<svg width="80" height="86" viewBox="0 0 80 86" fill="none" xmlns="http://www.w3.org/2000/svg">
<path fill-rule="evenodd" clip-rule="evenodd" d="M28.3392 24.8229C28.3392 18.4659 33.4926 13.3125 39.8496 13.3125C46.2065 13.3125 51.36 18.4659 51.36 24.8229C51.36 31.18 46.2065 36.3333 39.8496 36.3333C33.4926 36.3333 28.3392 31.18 28.3392 24.8229ZM39.8496 8C30.5586 8 23.0267 15.5319 23.0267 24.8229C23.0267 34.1139 30.5586 41.6458 39.8496 41.6458C49.1408 41.6458 56.6725 34.1139 56.6725 24.8229C56.6725 15.5319 49.1408 8 39.8496 8ZM19.7099 65.2064C23.2053 57.5685 30.9116 52.2708 39.8496 52.2708C48.7877 52.2708 56.494 57.5685 59.9893 65.2064C60.7252 66.815 60.3909 68.2891 59.3266 69.5067C58.1951 70.8015 56.2348 71.75 54.0163 71.75H25.683C23.4645 71.75 21.5044 70.8015 20.3725 69.5067C19.3084 68.2891 18.9739 66.815 19.7099 65.2064ZM39.8496 46.9583C28.7573 46.9583 19.2074 53.538 14.8792 62.9957C13.1734 66.7233 14.0991 70.4017 16.3726 73.0027C18.5784 75.5265 22.0334 77.0625 25.683 77.0625H54.0163C57.6659 77.0625 61.1208 75.5265 63.3266 73.0027C65.6003 70.4017 66.5258 66.7233 64.8201 62.9957C60.4918 53.538 50.9421 46.9583 39.8496 46.9583Z" fill="#1C274C"/>
<path d="M28.3392 24.8229C28.3392 18.4659 33.4926 13.3125 39.8496 13.3125C46.2065 13.3125 51.36 18.4659 51.36 24.8229C51.36 31.18 46.2065 36.3333 39.8496 36.3333C33.4926 36.3333 28.3392 31.18 28.3392 24.8229Z" fill="white"/>
<path d="M19.7099 65.2064C23.2053 57.5685 30.9116 52.2708 39.8496 52.2708C48.7877 52.2708 56.494 57.5685 59.9893 65.2064C60.7252 66.815 60.3909 68.2891 59.3266 69.5067C58.1951 70.8015 56.2348 71.75 54.0163 71.75H25.683C23.4645 71.75 21.5044 70.8015 20.3725 69.5067C19.3084 68.2891 18.9739 66.815 19.7099 65.2064Z" fill="white"/>
</svg>
