<svg width="83" height="83" viewBox="0 0 83 83" fill="none" xmlns="http://www.w3.org/2000/svg">
<path d="M27.6667 67.4375C19.5153 67.4375 15.4396 67.4375 12.9073 64.9053C10.375 62.3728 10.375 58.2971 10.375 50.1458V32.8542C10.375 24.7028 10.375 20.6271 12.9073 18.0948C15.4396 15.5625 19.5153 15.5625 27.6667 15.5625" fill="white"/>
<path d="M27.6667 67.4375C19.5153 67.4375 15.4396 67.4375 12.9073 64.9053C10.375 62.3728 10.375 58.2971 10.375 50.1458V32.8542C10.375 24.7028 10.375 20.6271 12.9073 18.0948C15.4396 15.5625 19.5153 15.5625 27.6667 15.5625" stroke="#1C274C" stroke-opacity="0.75" stroke-width="5"/>
<path d="M27.6667 55.3333C27.6667 65.1148 27.6667 70.0056 30.7055 73.0444C33.7443 76.0833 38.6352 76.0833 48.4167 76.0833H51.8751C61.6566 76.0833 66.5474 76.0833 69.5862 73.0444C72.6251 70.0056 72.6251 65.1148 72.6251 55.3333V27.6666C72.6251 17.885 72.6251 12.9942 69.5862 9.95539C66.5474 6.91663 61.6566 6.91663 51.8751 6.91663H48.4167C38.6352 6.91663 33.7443 6.91663 30.7055 9.95539C27.6667 12.9942 27.6667 17.885 27.6667 27.6666" fill="white"/>
<path d="M27.6667 55.3333C27.6667 65.1148 27.6667 70.0056 30.7055 73.0444C33.7443 76.0833 38.6352 76.0833 48.4167 76.0833H51.8751C61.6566 76.0833 66.5474 76.0833 69.5862 73.0444C72.6251 70.0056 72.6251 65.1148 72.6251 55.3333V27.6666C72.6251 17.885 72.6251 12.9942 69.5862 9.95539C66.5474 6.91663 61.6566 6.91663 51.8751 6.91663H48.4167C38.6352 6.91663 33.7443 6.91663 30.7055 9.95539C27.6667 12.9942 27.6667 17.885 27.6667 27.6666" stroke="#1C274C" stroke-width="5" stroke-linecap="round"/>
<path d="M20.75 41.5H51.875M51.875 41.5L43.2292 50.1458M51.875 41.5L43.2292 32.8541" stroke="#1C274C" stroke-width="5" stroke-linecap="round" stroke-linejoin="round"/>
</svg>
