<svg width="85" height="85" viewBox="0 0 85 85" fill="none" xmlns="http://www.w3.org/2000/svg">
<path fill-rule="evenodd" clip-rule="evenodd" d="M23.9063 24.7917C23.9063 18.4346 29.0597 13.2812 35.4167 13.2812C41.7737 13.2812 46.9271 18.4346 46.9271 24.7917C46.9271 31.1487 41.7737 36.3021 35.4167 36.3021C29.0597 36.3021 23.9063 31.1487 23.9063 24.7917ZM35.4167 7.96875C26.1257 7.96875 18.5938 15.5006 18.5938 24.7917C18.5938 34.0827 26.1257 41.6146 35.4167 41.6146C44.7079 41.6146 52.2396 34.0827 52.2396 24.7917C52.2396 15.5006 44.7079 7.96875 35.4167 7.96875ZM15.277 65.1752C18.7724 57.5372 26.4787 52.2396 35.4167 52.2396C44.3548 52.2396 52.0611 57.5372 55.5564 65.1752C56.2924 66.7838 55.958 68.2578 54.8938 69.4755C53.7622 70.7703 51.8019 71.7188 49.5834 71.7188H21.2501C19.0316 71.7188 17.0715 70.7703 15.9397 69.4755C14.8755 68.2578 14.541 66.7838 15.277 65.1752ZM35.4167 46.9271C24.3245 46.9271 14.7745 53.5068 10.4463 62.9645C8.74053 66.6921 9.66626 70.3704 11.9398 72.9714C14.1456 75.4952 17.6006 77.0312 21.2501 77.0312H49.5834C53.2331 77.0312 56.688 75.4952 58.8937 72.9714C61.1675 70.3704 62.0929 66.6921 60.3872 62.9645C56.059 53.5068 46.5092 46.9271 35.4167 46.9271ZM63.7501 29.2188C65.217 29.2188 66.4063 30.408 66.4063 31.875V39.8438H74.3751C75.842 39.8438 77.0313 41.033 77.0313 42.5C77.0313 43.967 75.842 45.1562 74.3751 45.1562H66.4063V53.125C66.4063 54.592 65.217 55.7812 63.7501 55.7812C62.2831 55.7812 61.0938 54.592 61.0938 53.125V45.1562H53.1251C51.6581 45.1562 50.4688 43.967 50.4688 42.5C50.4688 41.033 51.6581 39.8438 53.1251 39.8438H61.0938V31.875C61.0938 30.408 62.2831 29.2188 63.7501 29.2188Z" fill="#1C274C"/>
<path d="M23.9063 24.7917C23.9063 18.4346 29.0597 13.2812 35.4167 13.2812C41.7737 13.2812 46.9271 18.4346 46.9271 24.7917C46.9271 31.1487 41.7737 36.3021 35.4167 36.3021C29.0597 36.3021 23.9063 31.1487 23.9063 24.7917Z" fill="white"/>
<path d="M15.277 65.1752C18.7724 57.5372 26.4787 52.2396 35.4167 52.2396C44.3548 52.2396 52.0611 57.5372 55.5564 65.1752C56.2924 66.7838 55.958 68.2578 54.8938 69.4755C53.7622 70.7703 51.8019 71.7188 49.5834 71.7188H21.2501C19.0316 71.7188 17.0715 70.7703 15.9397 69.4755C14.8755 68.2578 14.541 66.7838 15.277 65.1752Z" fill="white"/>
</svg>
