<svg width="583" height="639" viewBox="0 0 583 639" fill="none" xmlns="http://www.w3.org/2000/svg">
<g clip-path="url(#clip0_46_948)">
<mask id="mask0_46_948" style="mask-type:luminance" maskUnits="userSpaceOnUse" x="-30" y="-33" width="636" height="688">
<path d="M-30 -32.3707H605.33V654.601H-30V-32.3707Z" fill="white"/>
</mask>
<g mask="url(#mask0_46_948)">
<path d="M537.131 167.247C537.131 167.247 434.975 8.20901 307.422 -8.66439C194.827 -23.5579 90.3148 34.6574 75.7683 160.461C70.5853 205.286 61.3552 254.873 44.9637 295.771C26.5861 341.63 -4.79023 379.817 19.2443 467.983C43.2788 556.148 144.736 635.76 218.499 635.56C292.265 635.358 361.556 562.888 418.717 496.956C475.876 431.023 657.937 369.052 537.131 167.247Z" fill="#7EE66C"/>
<mask id="mask1_46_948" style="mask-type:luminance" maskUnits="userSpaceOnUse" x="10" y="-11" width="568" height="647">
<path d="M10.5317 -10.9453H577.69V635.56H10.5317V-10.9453Z" fill="white"/>
</mask>
<g mask="url(#mask1_46_948)">
<g opacity="0.699997">
<path d="M537.131 167.247C537.131 167.247 434.975 8.20901 307.422 -8.66439C194.827 -23.5579 90.3148 34.6574 75.7683 160.461C70.5853 205.286 61.3552 254.873 44.9637 295.771C26.5861 341.63 -4.79023 379.817 19.2443 467.983C43.2788 556.148 144.736 635.76 218.499 635.56C292.265 635.358 361.556 562.888 418.717 496.956C475.876 431.023 657.937 369.052 537.131 167.247Z" fill="white"/>
</g>
</g>
</g>
<mask id="mask2_46_948" style="mask-type:luminance" maskUnits="userSpaceOnUse" x="-30" y="-33" width="636" height="688">
<path d="M-30 -32.3707H605.33V654.601H-30V-32.3707Z" fill="white"/>
</mask>
<g mask="url(#mask2_46_948)">
<mask id="mask3_46_948" style="mask-type:luminance" maskUnits="userSpaceOnUse" x="21" y="15" width="167" height="261">
<path d="M21.5511 15.9976H187.626V275.123H21.5511V15.9976Z" fill="white"/>
</mask>
<g mask="url(#mask3_46_948)">
<g opacity="0.300003">
<path d="M186.99 274.436H22.1873V16.6831H186.99V274.436Z" stroke="#1A2E35" stroke-width="1.33333" stroke-miterlimit="10" stroke-linecap="round" stroke-linejoin="round"/>
<path d="M128.207 189.051H111.753V171.259H84.3312V189.051H67.8774V218.702H84.3312V236.494H111.753V218.702H128.207V189.051Z" stroke="#1A2E35" stroke-width="1.33333" stroke-miterlimit="10" stroke-linecap="round" stroke-linejoin="round"/>
<path d="M118.925 193.612H107.534V181.295H88.5501V193.612H77.1587V214.14H88.5501V226.457H107.534V214.14H118.925V193.612Z" stroke="#1A2E35" stroke-width="1.33333" stroke-miterlimit="10" stroke-linecap="round" stroke-linejoin="round"/>
<path d="M50.221 96.7707C47.1015 96.7707 44.6314 96.0617 42.8054 94.6425C40.9808 93.2245 39.6771 91.2104 38.8982 88.5985C38.118 85.988 37.7279 82.9543 37.7279 79.5003V62.7848C37.7279 59.2085 38.1281 56.1239 38.9261 53.5328C39.7254 50.9428 41.1231 48.9478 43.1193 47.5505C45.1155 46.1532 47.8258 45.4525 51.2477 45.4525C54.5565 45.4525 57.1702 46.0488 59.0915 47.2414C61.0114 48.4354 62.3901 50.1199 63.2262 52.2989C64.0636 54.4794 64.4816 57.0693 64.4816 60.0713V62.9703H55.2986V59.4544C55.2986 58.1382 55.221 56.9772 55.0698 55.9701C54.9174 54.9629 54.5654 54.1716 54.0139 53.5946C53.4625 53.0189 52.5781 52.7317 51.3621 52.7317C50.1066 52.7317 49.1943 53.0807 48.6238 53.78C48.0533 54.4794 47.6911 55.3737 47.5399 56.4633C47.3874 57.5529 47.3112 58.7139 47.3112 59.9476V82.0901C47.3112 83.4888 47.4256 84.7432 47.6543 85.8533C47.8817 86.9635 48.3099 87.8277 48.9376 88.4433C49.5653 89.0615 50.4675 89.3693 51.648 89.3693C52.8259 89.3693 53.7382 89.0409 54.385 88.3828C55.0317 87.7261 55.4777 86.8316 55.7255 85.6995C55.972 84.5687 56.0965 83.2841 56.0965 81.8442V76.5393H51.5908V70.3717H64.596V96.0302H58.4345L57.8653 91.5277C57.2566 93.05 56.343 94.3045 55.127 95.291C53.9097 96.2775 52.2744 96.7707 50.221 96.7707Z" stroke="#1A2E35" stroke-width="1.33333" stroke-miterlimit="10" stroke-linecap="round" stroke-linejoin="round"/>
<path d="M80.2252 78.8222H85.7576L82.9635 58.6527L80.2252 78.8222ZM68.76 96.0308L77.7144 46.0701H88.1541L97.0525 96.0308H88.3256L86.6713 85.0516H79.37L77.6013 96.0308H68.76Z" stroke="#1A2E35" stroke-width="1.33333" stroke-miterlimit="10" stroke-linecap="round" stroke-linejoin="round"/>
<path d="M101.559 96.0306L102.357 46.0699H112.339L118.044 77.5882L124.147 46.0699H133.788L134.587 96.0306H127.741L127 62.1684L121.124 96.0306H115.249L109.089 61.9211L108.461 96.0306H101.559Z" stroke="#1A2E35" stroke-width="1.33333" stroke-miterlimit="10" stroke-linecap="round" stroke-linejoin="round"/>
<path d="M140.862 96.0306V46.0699H160.998V53.1018H150.275V66.3631H158.546V73.4554H150.275V89.1224H161.113V96.0306H140.862Z" stroke="#1A2E35" stroke-width="1.33333" stroke-miterlimit="10" stroke-linecap="round" stroke-linejoin="round"/>
<path d="M82.7927 152.393C84.01 152.393 84.9033 152.097 85.4738 151.499C86.0443 150.904 86.423 150.101 86.6148 149.095C86.8042 148.086 86.8995 147.008 86.8995 145.857V122.233C86.8995 121.081 86.8042 120.013 86.6148 119.024C86.423 118.038 86.0443 117.247 85.4738 116.65C84.9033 116.054 84.01 115.756 82.7927 115.756C81.6516 115.756 80.7965 116.054 80.226 116.65C79.6554 117.247 79.2742 118.038 79.0849 119.024C78.8943 120.013 78.799 121.081 78.799 122.233V145.857C78.799 147.008 78.8854 148.086 79.057 149.095C79.2272 150.101 79.5983 150.904 80.1688 151.499C80.7393 152.097 81.6135 152.393 82.7927 152.393ZM82.7927 159.732C79.4077 159.732 76.7266 159.075 74.7494 157.76C72.7723 156.444 71.3555 154.563 70.5003 152.116C69.6439 149.67 69.2157 146.741 69.2157 143.327V124.698C69.2157 121.286 69.6439 118.368 70.5003 115.941C71.3555 113.515 72.7723 111.664 74.7494 110.389C76.7266 109.116 79.4077 108.477 82.7927 108.477C86.2146 108.477 88.9249 109.125 90.9211 110.421C92.9173 111.717 94.3443 113.566 95.1994 115.971C96.0558 118.377 96.4828 121.286 96.4828 124.698V143.327C96.4828 146.741 96.0558 149.67 95.1994 152.116C94.3443 154.563 92.9173 156.444 90.9211 157.76C88.9249 159.075 86.2146 159.732 82.7927 159.732Z" stroke="#1A2E35" stroke-width="1.33333" stroke-miterlimit="10" stroke-linecap="round" stroke-linejoin="round"/>
<path d="M102.757 159.055V109.094H109.317L119.586 135.124V109.094H127.343V159.055H121.069L110.8 131.422V159.055H102.757Z" stroke="#1A2E35" stroke-width="1.33333" stroke-miterlimit="10" stroke-linecap="round" stroke-linejoin="round"/>
<path d="M60.585 147.824C45.9698 148.476 45.4806 149.006 44.8783 164.808C44.2748 149.006 43.7856 148.476 29.1704 147.824C43.7856 147.171 44.2748 146.643 44.8783 130.84C45.4806 146.643 45.9698 147.171 60.585 147.824Z" stroke="#1A2E35" stroke-width="1.33333" stroke-miterlimit="10" stroke-linecap="round" stroke-linejoin="round"/>
<path d="M183.232 37.7883C168.308 38.4546 167.809 38.9946 167.192 55.1315C166.577 38.9946 166.078 38.4546 151.154 37.7883C166.078 37.1233 166.577 36.5833 167.192 20.4449C167.809 36.5833 168.308 37.1233 183.232 37.7883Z" stroke="#1A2E35" stroke-width="1.33333" stroke-miterlimit="10" stroke-linecap="round" stroke-linejoin="round"/>
<path d="M168.646 123.231C168.646 118.481 165.085 114.629 160.691 114.629C156.298 114.629 152.737 118.481 152.737 123.231C152.737 127.983 156.298 131.834 160.691 131.834C165.085 131.834 168.646 127.983 168.646 123.231Z" stroke="#1A2E35" stroke-width="1.33333" stroke-miterlimit="10" stroke-linecap="round" stroke-linejoin="round"/>
<path d="M78.485 33.6263C78.485 31.2508 76.7035 29.3258 74.5066 29.3258C72.3109 29.3258 70.5294 31.2508 70.5294 33.6263C70.5294 36.0019 72.3109 37.9267 74.5066 37.9267C76.7035 37.9267 78.485 36.0019 78.485 33.6263Z" stroke="#1A2E35" stroke-width="1.33333" stroke-miterlimit="10" stroke-linecap="round" stroke-linejoin="round"/>
<path d="M90.418 33.6263C90.418 31.2508 88.6378 29.3258 86.4408 29.3258C84.2439 29.3258 82.4624 31.2508 82.4624 33.6263C82.4624 36.0019 84.2439 37.9267 86.4408 37.9267C88.6378 37.9267 90.418 36.0019 90.418 33.6263Z" stroke="#1A2E35" stroke-width="1.33333" stroke-miterlimit="10" stroke-linecap="round" stroke-linejoin="round"/>
<path d="M102.352 33.6263C102.352 31.2508 100.57 29.3258 98.3732 29.3258C96.1775 29.3258 94.396 31.2508 94.396 33.6263C94.396 36.0019 96.1775 37.9267 98.3732 37.9267C100.57 37.9267 102.352 36.0019 102.352 33.6263Z" stroke="#1A2E35" stroke-width="1.33333" stroke-miterlimit="10" stroke-linecap="round" stroke-linejoin="round"/>
<path d="M69.5352 261.583H43.0165C40.2706 261.583 38.0444 259.175 38.0444 256.206C38.0444 253.237 40.2706 250.831 43.0165 250.831H69.5352C72.2811 250.831 74.5073 253.237 74.5073 256.206C74.5073 259.175 72.2811 261.583 69.5352 261.583Z" stroke="#1A2E35" stroke-width="1.33333" stroke-miterlimit="10" stroke-linecap="round" stroke-linejoin="round"/>
<path d="M173.287 146.171H146.768C144.023 146.171 141.796 143.764 141.796 140.795C141.796 137.826 144.023 135.418 146.768 135.418H173.287C176.033 135.418 178.259 137.826 178.259 140.795C178.259 143.764 176.033 146.171 173.287 146.171Z" stroke="#1A2E35" stroke-width="1.33333" stroke-miterlimit="10" stroke-linecap="round" stroke-linejoin="round"/>
</g>
</g>
</g>
<path d="M32.7792 572.704H561.819" stroke="#1A2E35" stroke-width="1.33333" stroke-miterlimit="10" stroke-linecap="round" stroke-linejoin="round"/>
<mask id="mask4_46_948" style="mask-type:luminance" maskUnits="userSpaceOnUse" x="-30" y="-33" width="636" height="688">
<path d="M-30 -32.3707H605.33V654.601H-30V-32.3707Z" fill="white"/>
</mask>
<g mask="url(#mask4_46_948)">
<path d="M80.8885 395.663L80.8911 395.654C80.9153 395.586 80.8873 395.511 80.825 395.482C80.7615 395.452 80.6878 395.483 80.6611 395.552C76.8784 404.996 74.2189 414.911 71.999 424.91C69.8567 434.939 68.3052 445.112 67.2201 455.346L66.5428 463.04C66.4386 464.324 66.309 465.604 66.2239 466.89L66.0308 470.748C65.9278 473.323 65.7817 475.897 65.7144 478.474L65.7792 486.205L65.8579 490.07C65.9113 491.356 65.9965 492.642 66.0778 493.928C66.2569 496.497 66.4031 499.068 66.6203 501.63C67.0765 506.755 67.7881 511.854 68.5225 516.929C68.5314 516.995 68.5835 517.044 68.6458 517.044C68.7144 517.043 68.7716 516.983 68.7703 516.907V516.9C68.7589 514.322 68.6572 511.76 68.6038 509.197C68.5352 506.634 68.3294 504.083 68.3624 501.521C68.3739 498.957 68.3116 496.401 68.2849 493.846L68.2188 490.015L68.2824 486.182L68.3141 478.521L68.506 470.865L68.5797 467.033C68.6254 465.758 68.7131 464.485 68.7792 463.208L69.2138 455.556C70.0422 445.374 71.3358 435.228 73.2214 425.199C75.1033 415.182 77.4324 405.203 80.8885 395.663Z" fill="#1A2E35"/>
<path d="M81.9041 435.722C81.9219 435.652 81.8888 435.577 81.8253 435.552C81.7605 435.528 81.6893 435.566 81.6665 435.637C79.627 442.001 77.9993 448.513 76.6232 455.092C75.3081 461.683 74.275 468.361 73.6461 475.087C73.0171 481.791 72.3233 488.503 72.2382 495.243C72.1429 501.982 72.242 508.727 72.9014 515.458C72.9065 515.52 72.9535 515.572 73.012 515.579C73.0819 515.587 73.1429 515.532 73.1505 515.458C73.871 508.746 74.3093 502.051 74.7401 495.358C75.1797 488.671 75.2382 481.962 75.641 475.269C76.0158 468.599 76.7897 461.954 77.8519 455.352C78.8913 448.749 80.1899 442.172 81.9041 435.722Z" fill="#1A2E35"/>
<path d="M102.442 449.814C102.406 449.751 102.328 449.731 102.27 449.772C97.1286 453.291 92.5428 457.723 88.5364 462.719C86.5669 465.252 84.7358 467.906 83.1678 470.792L82.0636 473.043L81.1996 475.381C80.8895 476.157 80.671 476.957 80.4461 477.755C80.225 478.553 79.9759 479.347 79.7777 480.15C78.2339 486.587 77.2135 493.147 76.9353 499.738C76.6875 506.328 76.8031 512.927 77.6176 519.468C77.6265 519.53 77.6735 519.581 77.7332 519.587C77.8018 519.592 77.8628 519.536 77.8679 519.46L79.4334 499.931C80.056 493.474 80.4385 486.979 81.7206 480.672C81.8832 479.888 82.0929 479.118 82.2758 478.34C82.4626 477.561 82.6431 476.781 82.9099 476.041L83.6431 473.782L84.5872 471.651C85.9773 468.829 87.6787 466.13 89.5072 463.572C93.1756 458.455 97.4907 453.79 102.403 450.002L102.409 449.997C102.463 449.955 102.478 449.874 102.442 449.814Z" fill="#1A2E35"/>
<path d="M92.5025 474.906C89.7032 476.859 87.8316 479.931 86.2572 483.023C84.7566 486.183 83.5748 489.532 82.7577 492.968C82.5125 493.819 82.3181 494.68 82.1478 495.546L81.5811 498.144C81.2927 499.889 81.0666 501.65 80.9738 503.419C80.9535 505.192 80.9064 506.96 81.0169 508.726C81.1529 510.492 81.3384 512.255 81.6599 514.001C81.6713 514.05 81.7094 514.098 81.7603 514.108C81.8301 514.125 81.8963 514.075 81.9103 514.001C82.3067 512.259 82.5659 510.532 82.7755 508.809C83.0284 507.088 83.2762 505.381 83.4667 503.671C83.6993 501.968 83.9078 500.269 84.0298 498.554C84.2496 496.861 84.3651 495.132 84.7082 493.458C85.2584 490.073 86.1632 486.768 87.3868 483.607C88.6054 480.472 90.1911 477.347 92.6307 475.14L92.6485 475.121C92.6968 475.079 92.7083 475.003 92.6739 474.945C92.6358 474.884 92.5597 474.865 92.5025 474.906Z" fill="#1A2E35"/>
<path d="M63.698 494.47C63.022 485.799 61.7006 477.214 60.4502 468.635C59.1961 460.055 57.8136 451.502 56.3625 442.963C54.8593 434.433 53.2875 425.921 51.5874 417.44C51.5721 417.368 51.5086 417.321 51.4425 417.334C51.3739 417.348 51.3294 417.418 51.3409 417.491C52.7132 426.037 53.9559 434.609 55.1274 443.189C56.3308 451.761 57.4642 460.343 58.468 468.942C59.4477 477.544 60.2113 486.165 61.2088 494.752L64.1415 520.562C64.1479 520.628 64.1987 520.679 64.2609 520.683C64.3296 520.685 64.388 520.628 64.3918 520.553C64.4833 518.378 64.4858 516.203 64.5354 514.024C64.5532 511.844 64.4528 509.673 64.4172 507.496C64.3435 503.14 63.9992 498.807 63.698 494.47Z" fill="#1A2E35"/>
<path d="M58.8897 494.344C58.4614 490.91 57.8769 487.497 57.2721 484.092L56.145 479.029C55.7765 477.344 55.4271 475.652 54.9709 473.987C53.3699 467.269 51.3254 460.667 48.8413 454.27L47.8807 451.884L46.812 449.549C46.1322 447.979 45.3101 446.48 44.5312 444.967C42.8539 442.012 41.1144 439.062 38.7434 436.668C38.6951 436.619 38.6188 436.619 38.5718 436.669C38.5223 436.723 38.521 436.808 38.568 436.861L38.5807 436.875C40.7726 439.331 42.3698 442.364 43.8755 445.361C44.5719 446.902 45.3088 448.418 45.9048 450.009L46.8463 452.37L47.6824 454.777C49.9036 461.197 51.685 467.794 53.0243 474.501C53.7549 477.835 54.2403 481.235 54.8375 484.599L55.5885 489.68C55.8604 491.37 56.1946 493.049 56.4144 494.748C56.9151 498.138 57.4907 501.52 58.0383 504.911C58.5237 508.313 59.0993 511.707 59.7626 515.105C59.774 515.167 59.8249 515.217 59.8859 515.217C59.9545 515.217 60.0104 515.156 60.0116 515.082C60.0256 511.618 59.9507 508.153 59.788 504.69C59.6012 501.233 59.2226 497.792 58.8897 494.344Z" fill="#1A2E35"/>
<path d="M52.2548 494.786C50.7681 490.237 49.0502 485.784 47.176 481.419C45.2547 477.075 43.1785 472.817 40.7909 468.76C40.7528 468.702 40.6778 468.679 40.6206 468.714C40.5609 468.752 40.5419 468.835 40.5774 468.899C42.6639 473.114 44.4275 477.51 46.0286 481.955C47.655 486.389 49.1226 490.889 50.3513 495.46C51.6055 500.027 52.5038 504.681 53.6271 509.268C54.8088 513.852 55.7644 518.482 57.0681 523.125C57.0833 523.18 57.1316 523.224 57.1875 523.225C57.2574 523.226 57.3146 523.166 57.3158 523.091C57.3794 518.247 56.9397 513.408 56.068 508.667C55.2815 503.897 53.7313 499.333 52.2548 494.786Z" fill="#1A2E35"/>
<path d="M51.9791 509.939C51.2193 507.091 49.9219 504.437 48.4492 501.936C47.0019 499.422 45.3234 497.045 43.3119 495.032C42.2751 494.062 41.2154 493.128 40.0438 492.368C38.8888 491.588 37.6651 490.928 36.3373 490.556C36.2789 490.54 36.2166 490.569 36.1912 490.632C36.1632 490.699 36.1924 490.78 36.2547 490.809L36.27 490.817C38.6728 491.972 40.702 493.885 42.4187 495.981C44.1582 498.079 45.5458 500.487 46.7021 502.995C47.9194 505.485 48.5483 508.239 49.6068 510.804C50.0731 512.119 50.5369 513.443 51.0769 514.756C51.5344 516.097 52.0426 517.433 52.6894 518.762L52.6932 518.77C52.7136 518.811 52.7529 518.841 52.8 518.843C52.8724 518.847 52.9321 518.786 52.9347 518.711C52.9918 517.227 52.9118 515.75 52.7822 514.279C52.5852 512.823 52.3006 511.377 51.9791 509.939Z" fill="#1A2E35"/>
<path d="M52.4749 429.85C52.4749 429.85 39.3363 426.571 36.3032 411.272C33.2714 395.972 43.0415 402.529 34.2828 378.487C25.5229 354.442 27.5445 348.98 30.5763 342.058C33.6081 335.135 35.293 337.321 37.9881 346.43C40.6832 355.536 50.4533 369.744 54.1598 396.335C57.865 422.929 52.4749 429.85 52.4749 429.85Z" fill="#7EE66C"/>
<path d="M78.4164 403.987C78.4164 403.987 69.6565 400.707 69.3198 382.858C68.9831 365.007 75.7201 368.65 76.7315 346.43C77.7417 324.208 79.0899 308.543 82.7964 308.178C86.5016 307.814 96.2717 319.109 99.6415 343.879C103.009 368.65 95.2616 385.044 88.5233 392.33C81.785 399.615 78.4164 403.987 78.4164 403.987Z" fill="#7EE66C"/>
<path d="M47.7584 451.343C47.7584 451.343 45.7368 438.229 41.6948 432.037C37.6516 425.843 28.8916 420.378 23.1648 408.358C17.4367 396.336 11.0363 390.507 11.3731 407.629C11.7098 424.75 18.7848 433.495 27.5447 439.322C36.3034 445.151 47.7584 451.343 47.7584 451.343Z" fill="#7EE66C"/>
<path d="M44.0524 473.929C44.0524 473.929 35.9672 457.172 24.1755 444.786C12.3838 432.4 2.95035 426.207 6.31886 432.4C9.68865 438.594 13.7319 438.23 19.4588 449.158C25.1857 460.086 23.5008 468.1 31.5872 474.294C39.6724 480.485 44.0524 473.929 44.0524 473.929Z" fill="#7EE66C"/>
<path d="M43.0417 495.422C42.705 494.329 42.3683 486.315 30.9133 479.758C19.4583 473.201 8.678 475.752 10.0249 479.028C11.3731 482.308 18.4481 487.773 25.5219 491.05C32.5982 494.329 43.0417 495.422 43.0417 495.422Z" fill="#7EE66C"/>
<path d="M77.7424 452.071C77.7424 452.071 72.689 445.151 75.3841 430.579C78.0791 416.007 84.144 419.649 90.8823 412C97.6206 404.351 96.2724 403.258 103.009 395.244C109.748 387.23 115.813 382.858 118.508 386.136C121.203 389.415 117.159 399.615 113.117 405.442C109.074 411.272 102.674 414.186 99.6409 421.473C96.6091 428.757 97.9573 440.415 90.2088 445.879C82.4591 451.343 77.7424 452.071 77.7424 452.071Z" fill="#7EE66C"/>
<path d="M94.5872 456.079C94.5872 456.079 106.716 441.143 115.475 430.215C124.235 419.287 127.604 410.907 127.941 418.194C128.277 425.479 130.972 431.309 123.897 440.779C116.824 450.252 94.5872 456.079 94.5872 456.079Z" fill="#7EE66C"/>
<path d="M88.1862 480.122C88.1862 480.122 87.8495 474.294 107.053 460.814C126.256 447.337 134.342 444.786 132.32 450.251C130.3 455.714 121.876 461.18 112.78 471.014C103.684 480.85 88.1862 480.122 88.1862 480.122Z" fill="#7EE66C"/>
<path d="M53.2766 428.298C53.2766 428.298 48.7696 402.165 44.0529 383.586C39.3362 365.008 36.3044 353.714 36.3044 353.714" stroke="#1A2E35" stroke-width="1.33333" stroke-miterlimit="10" stroke-linecap="round" stroke-linejoin="round"/>
<path d="M77.6406 404.262C77.6406 404.262 85.8274 375.936 88.5238 358.814C91.2188 341.693 88.1858 328.943 86.8389 321.293" stroke="#1A2E35" stroke-width="1.33333" stroke-miterlimit="10" stroke-linecap="round" stroke-linejoin="round"/>
<path d="M46.6962 450.797C46.6962 450.797 41.6936 441.144 34.2818 431.672C26.8701 422.201 21.1432 417.101 17.7734 407.994" stroke="#1A2E35" stroke-width="1.33333" stroke-miterlimit="10" stroke-linecap="round" stroke-linejoin="round"/>
<path d="M77.7426 452.071C77.7426 452.071 80.4376 434.585 86.8392 425.479C93.2395 416.373 106.043 402.165 111.096 393.059" stroke="#1A2E35" stroke-width="1.33333" stroke-miterlimit="10" stroke-linecap="round" stroke-linejoin="round"/>
<path d="M42.2501 495.024C42.2501 495.024 30.9133 487.042 22.8268 482.673" stroke="#1A2E35" stroke-width="1.33333" stroke-miterlimit="10" stroke-linecap="round" stroke-linejoin="round"/>
<path d="M79.5111 572.286H56.0967C56.0967 572.286 34.9122 521.395 44.3888 508.901C51.8133 499.112 83.7958 499.112 91.219 508.901C100.694 521.395 79.5111 572.286 79.5111 572.286Z" fill="#1A2E35"/>
<path d="M79.5111 572.286H56.0967C56.0967 572.286 34.9122 521.395 44.3888 508.901C51.8133 499.112 83.7958 499.112 91.219 508.901C100.694 521.395 79.5111 572.286 79.5111 572.286Z" stroke="#1A2E35" stroke-width="1.33333" stroke-miterlimit="10" stroke-linecap="round" stroke-linejoin="round"/>
</g>
<mask id="mask5_46_948" style="mask-type:luminance" maskUnits="userSpaceOnUse" x="-30" y="-33" width="636" height="688">
<path d="M-30 -32.3707H605.33V654.601H-30V-32.3707Z" fill="white"/>
</mask>
<g mask="url(#mask5_46_948)">
<path d="M203.948 309.061L242.684 281.186L292.268 127.048L275.866 57.6472C275.283 55.1809 282.019 53.054 284.191 54.0337L348.824 85.1631V572.623H232.614V351.548L203.948 309.061Z" fill="#1A2E35"/>
<path d="M203.948 309.061L242.684 281.186L292.268 127.048L275.866 57.6472C275.283 55.1809 282.019 53.054 284.191 54.0337L348.824 85.1631V572.623H232.614V351.548L203.948 309.061Z" stroke="#1A2E35" stroke-width="1.33333" stroke-miterlimit="10" stroke-linecap="round" stroke-linejoin="round"/>
<path d="M208.41 309.061L247.148 281.186L296.73 127.048L280.328 57.6472C279.745 55.1809 282.018 53.054 284.192 54.0337L353.286 85.1631V572.623H237.076V351.548L208.41 309.061Z" fill="#7EE66C"/>
<path d="M208.41 309.061L247.148 281.186L296.73 127.048L280.328 57.6472C279.745 55.1809 282.018 53.054 284.192 54.0337L353.286 85.1631V572.623H237.076V351.548L208.41 309.061Z" stroke="#1A2E35" stroke-width="1.33333" stroke-miterlimit="10" stroke-linecap="round" stroke-linejoin="round"/>
<path d="M301.911 123.344L322.563 127.981H444.834L445.967 123.344H301.911Z" fill="#9D9D9D"/>
<path d="M301.911 123.344L322.563 127.981H444.834L445.967 123.344H301.911Z" stroke="#1A2E35" stroke-width="1.33333" stroke-miterlimit="10" stroke-linecap="round" stroke-linejoin="round"/>
<path d="M252.282 282.063L322.564 127.98H451.388L395.25 281.187L252.282 282.063Z" fill="#1A2E35"/>
<path d="M252.282 282.063L322.564 127.98H451.388L395.25 281.187L252.282 282.063Z" stroke="#1A2E35" stroke-width="1.33333" stroke-miterlimit="10" stroke-linecap="round" stroke-linejoin="round"/>
<path d="M277.59 256.659L328.497 145.051H421.811L381.146 256.025L277.59 256.659Z" fill="#797979"/>
<path d="M294.873 218.77L277.589 256.66L381.145 256.024L394.799 218.77H294.873Z" fill="#595959"/>
<path d="M411.22 173.952L421.811 145.051H328.496L315.313 173.952H411.22Z" fill="#979797"/>
<path d="M373.125 200.34H342.276C341.168 200.34 340.27 199.369 340.27 198.17V197.484C340.27 196.286 341.168 195.315 342.276 195.315H373.125C374.233 195.315 375.133 196.286 375.133 197.484V198.17C375.133 199.369 374.233 200.34 373.125 200.34Z" fill="#1A2E35"/>
<path d="M334.462 164.931L320.735 195.085C320.152 196.368 318.763 196.945 317.631 196.376C316.497 195.808 316.054 194.308 316.637 193.028L330.362 162.871C330.945 161.591 332.336 161.012 333.468 161.581C334.599 162.15 335.045 163.648 334.462 164.931Z" fill="#1A2E35"/>
<path d="M384.819 146.501L360.806 196.537C360.223 197.819 358.833 198.395 357.701 197.827C356.57 197.258 356.124 195.759 356.707 194.478L380.72 144.441C381.303 143.161 382.693 142.582 383.827 143.151C384.958 143.72 385.403 145.22 384.819 146.501Z" fill="#1A2E35"/>
<path d="M393.831 195.622L382.365 226.863C381.877 228.19 380.534 228.886 379.364 228.416C378.194 227.947 377.641 226.49 378.128 225.163L389.593 193.923C390.081 192.595 391.423 191.901 392.593 192.369C393.763 192.84 394.317 194.295 393.831 195.622Z" fill="#1A2E35"/>
<path d="M353.756 189.45H322.909C321.799 189.45 320.901 188.479 320.901 187.279V186.594C320.901 185.395 321.799 184.424 322.909 184.424H353.756C354.866 184.424 355.764 185.395 355.764 186.594V187.279C355.764 188.479 354.866 189.45 353.756 189.45Z" fill="#1A2E35"/>
<path d="M385.909 213.325H355.06C353.952 213.325 353.053 212.352 353.053 211.154V210.468C353.053 209.271 353.952 208.3 355.06 208.3H385.909C387.017 208.3 387.915 209.271 387.915 210.468V211.154C387.915 212.352 387.017 213.325 385.909 213.325Z" fill="#1A2E35"/>
<path d="M354.314 187.305C354.314 185.714 353.122 184.423 351.649 184.423C350.178 184.423 348.986 185.714 348.986 187.305C348.986 188.895 350.178 190.186 351.649 190.186C353.122 190.186 354.314 188.895 354.314 187.305Z" fill="#7EE66C"/>
<path d="M333.215 262.305C333.215 260.714 332.023 259.424 330.55 259.424C329.079 259.424 327.887 260.714 327.887 262.305C327.887 263.896 329.079 265.186 330.55 265.186C332.023 265.186 333.215 263.896 333.215 262.305Z" fill="#7EE66C"/>
<path d="M349.432 262.305C349.432 260.714 348.24 259.424 346.767 259.424C345.296 259.424 344.104 260.714 344.104 262.305C344.104 263.896 345.296 265.186 346.767 265.186C348.24 265.186 349.432 263.896 349.432 262.305Z" fill="#7EE66C"/>
<path d="M365.649 262.305C365.649 260.714 364.457 259.424 362.984 259.424C361.513 259.424 360.321 260.714 360.321 262.305C360.321 263.896 361.513 265.186 362.984 265.186C364.457 265.186 365.649 263.896 365.649 262.305Z" fill="#7EE66C"/>
<path d="M390.968 203.272C390.968 201.681 389.774 200.391 388.303 200.391C386.832 200.391 385.639 201.681 385.639 203.272C385.639 204.863 386.832 206.153 388.303 206.153C389.774 206.153 390.968 204.863 390.968 203.272Z" fill="white"/>
<path d="M306.974 239.814C306.185 238.609 304.375 238.609 302.932 239.814L301.997 240.601L301.481 239.814C301.087 239.212 300.435 238.909 299.704 238.909C298.973 238.909 298.159 239.212 297.435 239.814C295.995 241.022 295.467 242.979 296.255 244.189L296.773 244.97L299.635 249.345L304.859 244.97L305.793 244.189C306.518 243.587 307.009 242.794 307.223 242.004C307.436 241.213 307.37 240.42 306.974 239.814Z" fill="#7EE66C"/>
<path d="M320.532 239.814C319.743 238.609 317.933 238.609 316.49 239.814L315.555 240.601L315.04 239.814C314.645 239.212 313.993 238.909 313.262 238.909C312.53 238.909 311.717 239.212 310.993 239.814C309.553 241.022 309.025 242.979 309.814 244.189L310.331 244.97L313.192 249.345L318.417 244.97L319.351 244.189C320.076 243.587 320.567 242.794 320.781 242.004C320.994 241.213 320.928 240.42 320.532 239.814Z" fill="#7EE66C"/>
<path d="M394.388 137.828H407.425" stroke="white" stroke-width="1.33333" stroke-miterlimit="10"/>
<path d="M337.294 138.314H348.982" stroke="white" stroke-width="1.33333" stroke-miterlimit="10"/>
<path d="M252.282 282.063L395.25 281.187L356.513 309.061L213.073 309.937L252.282 282.063Z" fill="#7EE66C"/>
<path d="M252.282 282.063L395.25 281.187L356.513 309.061L213.073 309.937L252.282 282.063Z" stroke="#1A2E35" stroke-width="1.33333" stroke-miterlimit="10" stroke-linecap="round" stroke-linejoin="round"/>
<path d="M351.526 292.399C351.526 294.217 348.801 295.69 345.44 295.69C342.079 295.69 339.355 294.217 339.355 292.399C339.355 290.582 342.079 289.108 345.44 289.108C348.801 289.108 351.526 290.582 351.526 292.399Z" fill="#7EE66C"/>
<path d="M351.526 292.399C351.526 294.217 348.801 295.69 345.44 295.69C342.079 295.69 339.355 294.217 339.355 292.399C339.355 290.582 342.079 289.108 345.44 289.108C348.801 289.108 351.526 290.582 351.526 292.399Z" stroke="#1A2E35" stroke-width="1.33333" stroke-miterlimit="10" stroke-linecap="round" stroke-linejoin="round"/>
<path d="M329.66 296.118C329.66 297.936 326.934 299.409 323.575 299.409C320.212 299.409 317.489 297.936 317.489 296.118C317.489 294.303 320.212 292.828 323.575 292.828C326.934 292.828 329.66 294.303 329.66 296.118Z" fill="#7EE66C"/>
<path d="M329.66 296.118C329.66 297.936 326.934 299.409 323.575 299.409C320.212 299.409 317.489 297.936 317.489 296.118C317.489 294.303 320.212 292.828 323.575 292.828C326.934 292.828 329.66 294.303 329.66 296.118Z" stroke="#1A2E35" stroke-width="1.33333" stroke-miterlimit="10" stroke-linecap="round" stroke-linejoin="round"/>
<path d="M370.458 289.109C370.458 290.926 367.734 292.399 364.373 292.399C361.012 292.399 358.288 290.926 358.288 289.109C358.288 287.291 361.012 285.818 364.373 285.818C367.734 285.818 370.458 287.291 370.458 289.109Z" fill="#1A2E35"/>
<path d="M370.458 289.109C370.458 290.926 367.734 292.399 364.373 292.399C361.012 292.399 358.288 290.926 358.288 289.109C358.288 287.291 361.012 285.818 364.373 285.818C367.734 285.818 370.458 287.291 370.458 289.109Z" stroke="#1A2E35" stroke-width="1.33333" stroke-miterlimit="10" stroke-linecap="round" stroke-linejoin="round"/>
<path d="M380.715 351.549H236.602V572.704H380.715V351.549Z" fill="#1A2E35" stroke="#1A2E35" stroke-width="1.33333" stroke-miterlimit="10" stroke-linecap="round" stroke-linejoin="round"/>
<path d="M334.861 385.856H282.46V466.269H334.861V385.856Z" fill="#595959"/>
<path d="M352.05 309.061H207.938L236.603 351.549H380.716L352.05 309.061Z" fill="#1A2E35"/>
<path d="M352.05 309.061H207.938L236.603 351.549H380.716L352.05 309.061Z" stroke="#1A2E35" stroke-width="1.33333" stroke-miterlimit="10" stroke-linecap="round" stroke-linejoin="round"/>
<path d="M285.725 60.337H427.353L445.967 123.344H301.911L285.725 60.337Z" fill="#7EE66C"/>
<path d="M285.725 60.337H427.353L445.967 123.344H301.911L285.725 60.337Z" stroke="#1A2E35" stroke-width="1.33333" stroke-miterlimit="10" stroke-linecap="round" stroke-linejoin="round"/>
<path d="M319.693 95.7537L321.223 84.5369L322.768 95.7537H319.693ZM324.107 77.5518H318.309L313.322 105.315H318.237L319.223 99.2065H323.282L324.196 105.315H329.051L324.107 77.5518Z" fill="white"/>
<path d="M341.235 87.5757C341.029 88.1803 340.69 88.6255 340.204 88.9277C339.72 89.23 339.057 89.3742 338.203 89.3742H336.688V81.3875H338.469C339.645 81.3875 340.456 81.7214 340.883 82.4042C341.323 83.0733 341.544 84.0433 341.544 85.3321C341.544 86.2238 341.441 86.9712 341.235 87.5757ZM343.279 91.7759C344.104 91.3788 344.737 90.8691 345.193 90.2165C345.649 89.5652 345.973 88.8013 346.15 87.9261C346.326 87.0343 346.414 86.0328 346.414 84.887C346.414 84.5695 346.399 84.2659 346.385 83.9802C346.342 83.1997 346.224 82.5155 346.047 81.8959C345.899 81.3394 345.678 80.8462 345.414 80.4326C344.752 79.3499 343.809 78.6025 342.574 78.1889C341.338 77.7589 339.851 77.5529 338.115 77.5529H331.465V105.316H336.688V92.7308H338.527L341.471 105.316H346.826L343.279 91.7759Z" fill="white"/>
<path d="M364.072 87.5598V85.2213C364.072 83.6303 363.85 82.2302 363.424 81.0046C362.997 79.7955 362.246 78.8572 361.201 78.2045C360.157 77.5368 358.714 77.2015 356.876 77.2015C354.977 77.2015 353.477 77.5835 352.359 78.3323C351.254 79.0948 350.475 80.1624 350.033 81.546C349.843 82.134 349.695 82.7866 349.591 83.4873C349.445 84.3941 349.373 85.4123 349.373 86.4936V96.4697C349.373 98.2999 349.591 99.906 350.033 101.291C350.475 102.675 351.254 103.74 352.359 104.521C352.638 104.71 352.947 104.886 353.286 105.029C354.256 105.476 355.464 105.699 356.876 105.699C358.759 105.699 360.216 105.331 361.246 104.616C362.291 103.884 363.012 102.914 363.439 101.656C363.866 100.416 364.072 98.9827 364.072 97.3601V95.0697H359.011V97.775C359.011 98.4427 358.965 99.0637 358.892 99.6518C358.817 100.256 358.642 100.718 358.347 101.083C358.068 101.434 357.582 101.609 356.905 101.609C356.303 101.609 355.831 101.449 355.493 101.148C355.169 100.844 354.948 100.399 354.831 99.8112C354.713 99.2217 354.655 98.554 354.655 97.775V85.1566C354.655 84.4573 354.698 83.8061 354.786 83.2167C354.875 82.6438 355.066 82.167 355.389 81.8001C355.699 81.4347 356.214 81.2602 356.905 81.2602C357.612 81.2602 358.097 81.4347 358.378 81.785C358.671 82.134 358.848 82.5956 358.908 83.1521C358.965 83.71 359.011 84.3145 359.011 84.9506V87.5598H364.072Z" fill="white"/>
<path d="M372.384 95.7537L373.9 84.5369L375.461 95.7537H372.384ZM376.785 77.5518H370.987L366.013 105.315H370.914L371.899 99.2065H375.96L376.872 105.315H381.729L376.785 77.5518Z" fill="white"/>
<path d="M393.486 96.9785C393.486 97.9499 393.441 98.7454 393.338 99.3966C393.22 100.049 392.971 100.543 392.559 100.876C392.146 101.212 391.454 101.37 390.484 101.37H389.366V81.5299H390.454C391.381 81.5299 392.043 81.6577 392.455 81.9435C392.868 82.2142 393.146 82.6429 393.28 83.2157C393.426 83.8052 393.486 84.5842 393.486 85.5391V96.9785ZM398.09 81.3074C397.576 80.0186 396.723 79.0637 395.501 78.4592C394.28 77.8546 392.587 77.5524 390.409 77.5524H384.141V105.315H390.543C392.676 105.315 394.339 104.996 395.53 104.377C396.723 103.74 397.576 102.77 398.09 101.435C398.591 100.113 398.841 98.4266 398.841 96.374V86.2549C398.841 84.2504 398.591 82.5961 398.09 81.3074Z" fill="white"/>
<path d="M407.537 101.481V92.7624H412.128V88.833H407.537V81.4495H413.497V77.5515H402.3V105.316H413.555V101.481H407.537Z" fill="white"/>
<path d="M352.05 309.061L390.787 281.186L440.371 127.048L423.968 57.6472C423.385 55.1809 430.121 53.054 432.294 54.0337L490.777 82.3918C494.5 84.0695 496.927 88.0044 496.927 92.3667V572.623H380.716V351.548L352.05 309.061Z" fill="#1A2E35"/>
<path d="M352.05 309.061L390.787 281.186L440.371 127.048L423.968 57.6472C423.385 55.1809 430.121 53.054 432.294 54.0337L490.777 82.3918C494.5 84.0695 496.927 88.0044 496.927 92.3667V572.623H380.716V351.548L352.05 309.061Z" stroke="#1A2E35" stroke-width="1.33333" stroke-miterlimit="10" stroke-linecap="round" stroke-linejoin="round"/>
<path d="M501.385 92.3651V572.617H385.171V351.544L356.508 309.064L395.252 281.188L395.633 280.011L398.635 270.671L444.544 127.973L444.838 127.049L443.956 123.342L435.935 89.3892L435.92 89.3095L428.431 57.6483C427.961 55.6754 429.329 53.9098 431.007 53.7985H431.05C431.242 53.782 431.448 53.7985 431.653 53.8452C431.756 53.8617 431.874 53.8782 431.993 53.9249C432.11 53.9566 432.212 53.9895 432.301 54.0376L495.235 82.3889C498.958 84.0761 501.385 88.0056 501.385 92.3651Z" fill="#7EE66C"/>
<path d="M448.967 313.228C447.565 314.144 445.745 314.174 444.279 313.143L401.399 283.035C399.356 281.599 398.774 278.642 400.103 276.432C401.433 274.22 404.165 273.591 406.21 275.028L449.088 305.139C451.131 306.574 451.713 309.53 450.384 311.742C450.008 312.367 449.521 312.866 448.967 313.228Z" fill="#1A2E35"/>
<path d="M501.546 226.267L500.861 218.131C500.64 215.505 498.493 213.572 496.064 213.812C493.637 214.049 491.847 216.37 492.069 218.997L496.845 275.68C497.062 278.271 499.158 280.18 501.546 280V226.267Z" fill="#1A2E35"/>
<path d="M501.546 260.754C489.007 259.663 476.048 262.643 464.455 270.207C435.028 289.41 425.571 330.769 443.331 362.586C455.919 385.141 478.806 396.83 501.546 394.893V260.754Z" fill="white"/>
<path d="M501.546 287.862L451.478 320.536C446.673 323.67 445.13 330.423 448.029 335.617L460.247 357.508C463.147 362.704 469.391 364.373 474.197 361.239L501.546 343.392V287.862Z" fill="#1A2E35"/>
<path d="M501.546 209.933C498.608 207.915 494.754 207.722 491.571 209.798C487.095 212.719 485.655 219.013 488.358 223.855C491.06 228.696 496.88 230.253 501.359 227.331C501.424 227.288 501.482 227.239 501.546 227.195V209.933Z" fill="white"/>
<path d="M414.188 280.631C413.615 283.226 412.129 285.564 409.863 287.044C409.347 287.377 408.832 287.648 408.287 287.871C404.094 289.573 399.253 287.855 396.854 283.56C396.221 282.43 395.825 281.236 395.633 280.011L398.635 270.672C399.076 270.242 399.548 269.845 400.078 269.511C404.55 266.583 410.362 268.142 413.07 272.978C414.409 275.365 414.733 278.117 414.188 280.631Z" fill="white"/>
<path d="M478.867 329.998C481.182 334.15 479.949 339.544 476.11 342.049C472.273 344.554 467.283 343.219 464.968 339.069C462.65 334.919 463.884 329.525 467.722 327.02C471.56 324.516 476.55 325.848 478.867 329.998Z" fill="white"/>
<path d="M501.546 357.912L489.103 366.034C487.663 366.974 487.2 368.995 488.07 370.552C488.937 372.108 490.809 372.608 492.249 371.67L501.546 365.602V357.912Z" fill="#1A2E35"/>
<path d="M425.362 440.71C424.58 441.221 423.562 441.239 422.742 440.663L398.79 423.843C397.648 423.041 397.324 421.39 398.066 420.154C398.809 418.919 400.335 418.569 401.476 419.371L425.43 436.191C426.571 436.994 426.896 438.644 426.154 439.88C425.944 440.228 425.671 440.508 425.362 440.71Z" fill="#1A2E35"/>
<path d="M455.836 421.777C455.526 421.98 455.171 422.11 454.786 422.149C453.431 422.282 452.23 421.202 452.106 419.735L449.441 388.07C449.316 386.604 450.316 385.307 451.672 385.173C453.028 385.042 454.227 386.12 454.35 387.587L457.019 419.252C457.108 420.303 456.619 421.267 455.836 421.777Z" fill="#1A2E35"/>
<path d="M481.739 429.438C491.659 447.213 486.376 470.315 469.939 481.042C453.5 491.768 432.134 486.056 422.213 468.281C412.294 450.509 417.577 427.405 434.013 416.678C450.452 405.95 471.818 411.664 481.739 429.438Z" fill="white"/>
<path d="M468.818 448.369L442.107 465.799C437.96 468.506 432.567 467.062 430.063 462.578L426.439 456.084C423.936 451.599 425.27 445.768 429.417 443.061L456.128 425.632C460.275 422.924 465.668 424.366 468.171 428.852L471.796 435.345C474.3 439.829 472.967 445.661 468.818 448.369Z" fill="#1A2E35"/>
<path d="M456.425 384.874C454.916 382.168 451.664 381.298 449.162 382.932C446.66 384.564 445.857 388.081 447.367 390.786C448.876 393.489 452.128 394.357 454.628 392.727C457.13 391.093 457.933 387.579 456.425 384.874Z" fill="white"/>
<path d="M405.31 418.229C403.802 415.524 400.55 414.654 398.048 416.288C395.546 417.918 394.743 421.436 396.251 424.14C397.762 426.846 401.012 427.714 403.514 426.083C406.016 424.449 406.819 420.935 405.31 418.229Z" fill="white"/>
<path d="M464.387 435.512C465.681 437.829 464.991 440.844 462.847 442.243C460.704 443.642 457.915 442.897 456.623 440.579C455.328 438.26 456.017 435.247 458.162 433.847C460.305 432.45 463.092 433.194 464.387 435.512Z" fill="white"/>
<path d="M442.065 450.078C443.359 452.396 442.669 455.411 440.525 456.809C438.381 458.209 435.593 457.463 434.301 455.145C433.006 452.827 433.695 449.815 435.84 448.415C437.983 447.016 440.77 447.76 442.065 450.078Z" fill="white"/>
<path d="M473.355 457.816L449.342 473.486C448.647 473.938 447.744 473.698 447.325 472.947L447.085 472.517C446.666 471.765 446.889 470.79 447.584 470.337L471.597 454.667C472.291 454.215 473.194 454.455 473.613 455.206L473.854 455.635C474.272 456.387 474.048 457.362 473.355 457.816Z" fill="#1A2E35"/>
<path d="M356.513 309.061L395.25 281.186L444.833 127.048L428.43 57.6472C427.848 55.1809 430.121 53.054 432.294 54.0337L495.24 82.3918C498.962 84.0695 501.389 88.0044 501.389 92.3667V572.623H385.178V351.548L356.513 309.061Z" stroke="#1A2E35" stroke-width="1.33333" stroke-miterlimit="10" stroke-linecap="round" stroke-linejoin="round"/>
<path d="M501.385 115.26V160.398L496.926 166.267L455.654 220.666C455.623 220.698 455.609 220.729 455.579 220.761L446.25 233.044C443.632 236.497 439.835 238.279 435.994 238.279C433.037 238.279 430.065 237.228 427.607 235.032C421.957 230.021 421.134 221 425.768 214.874L435.097 202.592C435.126 202.544 435.171 202.496 435.2 202.464L496.926 121.13L501.385 115.26Z" fill="#1A2E35"/>
<path d="M436.001 238.286C433.044 238.286 430.07 237.222 427.607 235.036C421.952 230.017 421.131 220.995 425.77 214.881L435.102 202.588C439.743 196.474 448.087 195.588 453.741 200.603C459.393 205.621 460.217 214.643 455.576 220.757L446.245 233.051C443.627 236.5 439.829 238.286 436.001 238.286Z" fill="white"/>
<path d="M501.385 482.471V522.961L496.926 527.782L484.949 540.734C484.876 540.83 484.801 540.925 484.714 541.004L469.662 557.265C467.086 560.065 463.687 561.449 460.303 561.449C456.918 561.449 453.519 560.065 450.945 557.265C445.766 551.663 445.766 542.595 450.945 537.01L465.983 520.75C466.144 520.575 466.307 520.399 466.468 520.241L496.926 487.292L501.385 482.471Z" fill="#1A2E35"/>
<path d="M460.303 561.456C456.914 561.456 453.525 560.057 450.939 557.261C445.768 551.671 445.768 542.603 450.939 537.011L465.979 520.748C471.152 515.157 479.536 515.157 484.708 520.748C489.88 526.34 489.88 535.408 484.708 540.998L469.668 557.261C467.082 560.057 463.693 561.456 460.303 561.456Z" fill="white"/>
<path d="M301.928 454.871H289.177V434.72H301.928V454.871Z" fill="#C8C8C8"/>
<path d="M323.507 454.871H310.756V434.72H323.507V454.871Z" fill="#C8C8C8"/>
<path d="M301.928 420.4H289.177V400.247H301.928V420.4Z" fill="#929292"/>
<path d="M323.507 420.4H310.756V400.247H323.507V420.4Z" fill="#929292"/>
<path d="M323.507 400.247L318.422 420.414H306.578L310.756 400.247H323.507Z" fill="#7EE66C"/>
<path d="M301.09 400.247L296.003 420.414H284.159L288.337 400.247H301.09Z" fill="#7EE66C"/>
</g>
<mask id="mask6_46_948" style="mask-type:luminance" maskUnits="userSpaceOnUse" x="0" y="-33" width="636" height="688">
<path d="M0.49585 -32.3707H635.825V654.601H0.49585V-32.3707Z" fill="white"/>
</mask>
<g mask="url(#mask6_46_948)">
<path d="M259.408 552.626C259.408 552.626 272.719 562.318 279.508 562.905C286.299 563.492 290.645 565.254 289.829 568.486C289.015 571.716 283.311 575.533 272.447 576.709C261.581 577.883 255.877 575.828 248.001 575.533C240.124 575.24 233.333 579.058 228.717 574.651C224.098 570.247 224.642 567.017 224.914 564.079C225.185 561.142 230.89 561.436 240.124 558.207C249.359 554.975 259.408 552.626 259.408 552.626Z" fill="white"/>
<path d="M259.408 552.626C259.408 552.626 272.719 562.318 279.508 562.905C286.299 563.492 290.645 565.254 289.829 568.486C289.015 571.716 283.311 575.533 272.447 576.709C261.581 577.883 255.877 575.828 248.001 575.533C240.124 575.24 233.333 579.058 228.717 574.651C224.098 570.247 224.642 567.017 224.914 564.079C225.185 561.142 230.89 561.436 240.124 558.207C249.359 554.975 259.408 552.626 259.408 552.626Z" stroke="#1A2E35" stroke-width="1.33333" stroke-miterlimit="10" stroke-linecap="round" stroke-linejoin="round"/>
<path d="M289.83 568.486C290.065 567.554 289.858 566.75 289.302 566.056C285.376 569.725 275.816 574.604 269.459 574.358C261.854 574.067 254.791 572.008 240.396 572.302C230.494 572.506 227.66 572.568 226.856 572.587C227.358 573.249 227.963 573.933 228.716 574.651C233.334 579.058 240.124 575.24 248.001 575.533C255.878 575.828 261.582 577.883 272.446 576.709C283.311 575.533 289.014 571.716 289.83 568.486Z" fill="white"/>
<path d="M289.83 568.486C290.065 567.554 289.858 566.75 289.302 566.056C285.376 569.725 275.816 574.604 269.459 574.358C261.854 574.067 254.791 572.008 240.396 572.302C230.494 572.506 227.66 572.568 226.856 572.587C227.358 573.249 227.963 573.933 228.716 574.651C233.334 579.058 240.124 575.24 248.001 575.533C255.878 575.828 261.582 577.883 272.446 576.709C283.311 575.533 289.014 571.716 289.83 568.486Z" stroke="#1A2E35" stroke-width="1.33333" stroke-miterlimit="10" stroke-linecap="round" stroke-linejoin="round"/>
<path d="M251.684 401.125C251.684 401.125 272.481 455.857 271.303 464.767C270.126 473.677 256.393 511.013 255.215 517.378C254.038 523.742 255.999 535.622 255.999 535.622C255.999 535.622 259.532 536.895 259.924 541.137C260.316 545.382 261.886 553.867 261.886 553.867C261.886 553.867 254.038 560.231 245.406 562.777C236.773 565.323 226.963 566.171 225.394 566.171C223.825 566.171 222.254 559.383 221.47 554.715C220.685 550.049 228.14 539.865 230.887 533.926C233.634 527.985 240.697 500.407 245.406 491.072C250.115 481.739 256.784 454.16 255.999 443.553C255.215 432.945 247.76 411.731 247.76 404.943C247.76 398.154 251.684 396.881 251.684 401.125Z" fill="#9D9D9D"/>
<path d="M251.684 401.125C251.684 401.125 272.481 455.857 271.303 464.767C270.126 473.677 256.393 511.013 255.215 517.378C254.038 523.742 255.999 535.622 255.999 535.622C255.999 535.622 259.532 536.895 259.924 541.137C260.316 545.382 261.886 553.867 261.886 553.867C261.886 553.867 254.038 560.231 245.406 562.777C236.773 565.323 226.963 566.171 225.394 566.171C223.825 566.171 222.254 559.383 221.47 554.715C220.685 550.049 228.14 539.865 230.887 533.926C233.634 527.985 240.697 500.407 245.406 491.072C250.115 481.739 256.784 454.16 255.999 443.553C255.215 432.945 247.76 411.731 247.76 404.943C247.76 398.154 251.684 396.881 251.684 401.125Z" stroke="#1A2E35" stroke-width="1.33333" stroke-miterlimit="10" stroke-linecap="round" stroke-linejoin="round"/>
<path d="M224.371 550.276C224.371 550.276 229.26 552.92 238.495 550.863C247.729 548.808 251.804 544.108 246.915 544.403C242.026 544.695 235.778 547.045 235.778 547.045" stroke="#1A2E35" stroke-width="1.33333" stroke-miterlimit="10" stroke-linecap="round" stroke-linejoin="round"/>
<path d="M228.173 559.542C228.173 559.542 242.568 569.234 246.643 569.529C250.717 569.821 253.433 573.346 252.076 578.045C250.717 582.744 240.396 585.094 224.914 585.388C209.431 585.681 192.592 584.213 188.247 583.331C183.9 582.451 179.826 582.451 179.554 579.513C179.282 576.576 179.554 571.585 179.554 571.585C179.554 571.585 186.344 569.529 192.32 566.885C198.295 564.241 215.407 560.718 218.395 559.837C221.383 558.954 228.173 559.542 228.173 559.542Z" fill="white"/>
<path d="M228.173 559.542C228.173 559.542 242.568 569.234 246.643 569.529C250.717 569.821 253.433 573.346 252.076 578.045C250.717 582.744 240.396 585.094 224.914 585.388C209.431 585.681 192.592 584.213 188.247 583.331C183.9 582.451 179.826 582.451 179.554 579.513C179.282 576.576 179.554 571.585 179.554 571.585C179.554 571.585 186.344 569.529 192.32 566.885C198.295 564.241 215.407 560.718 218.395 559.837C221.383 558.954 228.173 559.542 228.173 559.542Z" stroke="#1A2E35" stroke-width="1.33333" stroke-miterlimit="10" stroke-linecap="round" stroke-linejoin="round"/>
<path d="M223.556 582.744C207.913 582.99 186.167 578.536 179.451 577.563C179.468 578.258 179.5 578.928 179.554 579.512C179.825 582.45 183.9 582.45 188.245 583.332C192.591 584.213 209.431 585.682 224.914 585.387C240.396 585.093 250.717 582.744 252.076 578.045C252.674 575.973 252.48 574.132 251.728 572.694C251.167 573.766 250.418 575.05 249.359 576.577C246.1 581.276 242.297 582.45 223.556 582.744Z" fill="white"/>
<path d="M223.556 582.744C207.913 582.99 186.167 578.536 179.451 577.563C179.468 578.258 179.5 578.928 179.554 579.512C179.825 582.45 183.9 582.45 188.245 583.332C192.591 584.213 209.431 585.682 224.914 585.387C240.396 585.093 250.717 582.744 252.076 578.045C252.674 575.973 252.48 574.132 251.728 572.694C251.167 573.766 250.418 575.05 249.359 576.577C246.1 581.276 242.297 582.45 223.556 582.744Z" stroke="#1A2E35" stroke-width="1.33333" stroke-miterlimit="10" stroke-linecap="round" stroke-linejoin="round"/>
<path d="M188.117 391.104C188.117 391.104 200.281 423.35 200.674 433.108C201.065 442.868 203.812 456.868 206.559 459.415L209.305 461.96C209.305 461.96 201.458 467.901 201.85 475.537C202.243 483.176 194.003 505.661 189.294 515.844C184.586 526.027 178.307 554.879 177.522 559.969C176.737 565.06 177.915 575.243 177.915 575.243C177.915 575.243 187.332 576.517 192.432 577.364C197.534 578.215 203.812 578.638 203.812 578.638L206.952 571.851L210.483 579.063C210.483 579.063 219.509 576.094 223.825 571.851C228.14 567.607 231.28 563.364 231.28 563.364L225.002 553.605C225.002 553.605 257.177 475.537 259.139 464.93C261.101 454.324 259.532 442.443 259.532 433.956C259.532 425.473 249.721 385.165 249.721 385.165L188.117 391.104Z" fill="#9D9D9D"/>
<path d="M188.117 391.104C188.117 391.104 200.281 423.35 200.674 433.108C201.065 442.868 203.812 456.868 206.559 459.415L209.305 461.96C209.305 461.96 201.458 467.901 201.85 475.537C202.243 483.176 194.003 505.661 189.294 515.844C184.586 526.027 178.307 554.879 177.522 559.969C176.737 565.06 177.915 575.243 177.915 575.243C177.915 575.243 187.332 576.517 192.432 577.364C197.534 578.215 203.812 578.638 203.812 578.638L206.952 571.851L210.483 579.063C210.483 579.063 219.509 576.094 223.825 571.851C228.14 567.607 231.28 563.364 231.28 563.364L225.002 553.605C225.002 553.605 257.177 475.537 259.139 464.93C261.101 454.324 259.532 442.443 259.532 433.956C259.532 425.473 249.721 385.165 249.721 385.165L188.117 391.104Z" stroke="#1A2E35" stroke-width="1.33333" stroke-miterlimit="10" stroke-linecap="round" stroke-linejoin="round"/>
<path d="M245.013 416.137C245.013 416.137 235.987 418.259 228.533 420.803C221.078 423.35 210.483 424.198 210.483 424.198L212.445 433.533C212.445 433.533 223.432 434.381 231.28 432.683C239.127 430.988 250.115 428.017 250.115 428.017L247.76 418.683" stroke="#1A2E35" stroke-width="1.33333" stroke-miterlimit="10" stroke-linecap="round" stroke-linejoin="round"/>
<path d="M214.407 436.928C214.407 436.928 218.723 452.202 219.116 453.898C219.508 455.596 215.976 461.961 217.938 464.082C219.9 466.203 234.418 467.051 241.482 466.203C248.544 465.354 254.823 461.961 255.215 457.717C255.608 453.475 250.899 435.654 250.899 435.654" stroke="#1A2E35" stroke-width="1.33333" stroke-miterlimit="10" stroke-linecap="round" stroke-linejoin="round"/>
<path d="M223.432 399.166L226.572 415.713" stroke="#1A2E35" stroke-width="1.33333" stroke-miterlimit="10" stroke-linecap="round" stroke-linejoin="round"/>
<path d="M230.495 469.597L211.267 531.544C211.267 531.544 196.749 544.694 195.965 547.665C195.181 550.635 205.381 562.516 205.381 562.516" stroke="#1A2E35" stroke-width="1.33333" stroke-miterlimit="10" stroke-linecap="round" stroke-linejoin="round"/>
<path d="M186.939 540.029C186.939 540.029 224.217 530.694 232.457 516.693" stroke="#1A2E35" stroke-width="1.33333" stroke-miterlimit="10" stroke-linecap="round" stroke-linejoin="round"/>
<path d="M253.762 165.408C253.762 165.408 249.106 168.932 250.037 173.464C250.969 177.995 258.419 183.029 255.624 185.043C252.83 187.057 250.502 188.065 250.502 189.574C250.502 191.084 245.38 210.217 241.19 210.719C236.999 211.223 226.756 207.7 226.756 207.7C226.756 207.7 220.703 213.741 219.305 222.803L186.712 213.238C186.712 213.238 190.903 205.182 187.178 196.623C183.452 188.065 179.728 182.526 179.728 182.526C179.728 182.526 192.766 150.303 217.444 143.758C242.121 137.213 253.762 165.408 253.762 165.408Z" fill="white"/>
<path d="M253.762 165.408C253.762 165.408 249.106 168.932 250.037 173.464C250.969 177.995 258.419 183.029 255.624 185.043C252.83 187.057 250.502 188.065 250.502 189.574C250.502 191.084 245.38 210.217 241.19 210.719C236.999 211.223 226.756 207.7 226.756 207.7C226.756 207.7 220.703 213.741 219.305 222.803L186.712 213.238C186.712 213.238 190.903 205.182 187.178 196.623C183.452 188.065 179.728 182.526 179.728 182.526C179.728 182.526 192.766 150.303 217.444 143.758C242.121 137.213 253.762 165.408 253.762 165.408Z" stroke="#1A2E35" stroke-width="1.33333" stroke-miterlimit="10" stroke-linecap="round" stroke-linejoin="round"/>
<path d="M246.933 194.351C246.933 194.351 238.233 192.967 237.721 186.88" stroke="#1A2E35" stroke-width="1.33333" stroke-miterlimit="10" stroke-linecap="round" stroke-linejoin="round"/>
<path d="M239.768 185.773L234.138 189.094" stroke="#1A2E35" stroke-width="1.33333" stroke-miterlimit="10" stroke-linecap="round" stroke-linejoin="round"/>
<path d="M213.668 194.904C213.668 194.904 221.165 205.552 226.756 207.7C226.756 207.7 222.113 213.441 221.345 215.379C221.345 215.379 214.435 203.481 213.668 194.904Z" fill="#1A2E35"/>
<path d="M213.668 194.904C213.668 194.904 221.165 205.552 226.756 207.7C226.756 207.7 222.113 213.441 221.345 215.379C221.345 215.379 214.435 203.481 213.668 194.904Z" stroke="#1A2E35" stroke-width="1.33333" stroke-miterlimit="10" stroke-linecap="round" stroke-linejoin="round"/>
<path d="M176.904 380.498C176.904 380.498 176.476 392.083 179.905 393.937C183.333 395.79 188.048 399.962 216.333 397.181C244.619 394.4 255.763 386.986 257.477 383.741C259.191 380.498 258.333 371.693 258.333 371.693C258.333 371.693 233.049 379.571 211.619 379.571C190.191 379.571 176.904 380.498 176.904 380.498Z" fill="white"/>
<path d="M176.904 380.498C176.904 380.498 176.476 392.083 179.905 393.937C183.333 395.79 188.048 399.962 216.333 397.181C244.619 394.4 255.763 386.986 257.477 383.741C259.191 380.498 258.333 371.693 258.333 371.693C258.333 371.693 233.049 379.571 211.619 379.571C190.191 379.571 176.904 380.498 176.904 380.498Z" stroke="#1A2E35" stroke-width="1.33333" stroke-miterlimit="10" stroke-linecap="round" stroke-linejoin="round"/>
<path d="M315.474 279.094L319.204 289.725C319.204 289.725 318.527 291.058 315.406 293.82C312.284 296.584 307.319 298.971 303.146 296.626C298.974 294.28 297.604 289.958 297.604 289.958C297.604 289.958 303.851 280.333 306.513 278.864C309.175 277.394 315.474 279.094 315.474 279.094Z" fill="white"/>
<path d="M315.474 279.094L319.204 289.725C319.204 289.725 318.527 291.058 315.406 293.82C312.284 296.584 307.319 298.971 303.146 296.626C298.974 294.28 297.604 289.958 297.604 289.958C297.604 289.958 303.851 280.333 306.513 278.864C309.175 277.394 315.474 279.094 315.474 279.094Z" stroke="#1A2E35" stroke-width="1.33333" stroke-miterlimit="10" stroke-linecap="round" stroke-linejoin="round"/>
<path d="M312.886 283.939L321.481 302.069" stroke="#1A2E35" stroke-width="2.66667" stroke-miterlimit="10" stroke-linecap="round" stroke-linejoin="round"/>
<path d="M318.626 279.087C318.626 279.087 324.432 282.693 323.536 285.213C322.639 287.736 318.44 291.355 315.062 291.995C311.685 292.634 310.671 289.064 312.359 288.743C314.048 288.423 318.3 282.443 318.626 279.087Z" fill="white"/>
<path d="M318.626 279.087C318.626 279.087 324.432 282.693 323.536 285.213C322.639 287.736 318.44 291.355 315.062 291.995C311.685 292.634 310.671 289.064 312.359 288.743C314.048 288.423 318.3 282.443 318.626 279.087Z" stroke="#1A2E35" stroke-width="1.33333" stroke-miterlimit="10" stroke-linecap="round" stroke-linejoin="round"/>
<path d="M322.975 286.839C322.975 286.839 325.237 289.788 324.242 291.906C323.247 294.023 316.879 297.4 314.741 296.6C312.604 295.799 315.061 291.994 315.061 291.994C315.061 291.994 321.395 288.103 322.975 286.839Z" fill="white"/>
<path d="M322.975 286.839C322.975 286.839 325.237 289.788 324.242 291.906C323.247 294.023 316.879 297.4 314.741 296.6C312.604 295.799 315.061 291.994 315.061 291.994C315.061 291.994 321.395 288.103 322.975 286.839Z" stroke="#1A2E35" stroke-width="1.33333" stroke-miterlimit="10" stroke-linecap="round" stroke-linejoin="round"/>
<path d="M322.917 293.363C322.917 293.363 323.551 295.896 321.83 297.668C320.11 299.442 314.52 300.743 313.173 299.309C311.825 297.875 314.741 296.6 314.741 296.6C314.741 296.6 319.644 295.189 322.917 293.363Z" fill="white"/>
<path d="M322.917 293.363C322.917 293.363 323.551 295.896 321.83 297.668C320.11 299.442 314.52 300.743 313.173 299.309C311.825 297.875 314.741 296.6 314.741 296.6C314.741 296.6 319.644 295.189 322.917 293.363Z" stroke="#1A2E35" stroke-width="1.33333" stroke-miterlimit="10" stroke-linecap="round" stroke-linejoin="round"/>
<path d="M318.626 279.087C317.891 274.549 313.893 271.516 309.696 272.311C305.499 273.105 302.694 277.428 303.429 281.967C304.165 286.503 308.162 289.537 312.359 288.743C316.556 287.948 319.362 283.625 318.626 279.087Z" fill="white"/>
<path d="M318.626 279.087C317.891 274.549 313.893 271.516 309.696 272.311C305.499 273.105 302.694 277.428 303.429 281.967C304.165 286.503 308.162 289.537 312.359 288.743C316.556 287.948 319.362 283.625 318.626 279.087Z" stroke="#1A2E35" stroke-width="1.33333" stroke-miterlimit="10" stroke-linecap="round" stroke-linejoin="round"/>
<path d="M292.407 283.701C292.407 283.701 300.684 273.078 301.158 270.635C301.633 268.192 306.698 267.233 307.891 266.537C309.083 265.841 316.364 259.756 316.808 262.494C317.252 265.235 316.999 269.045 314.34 271.431C311.681 273.817 306.542 274.32 306.542 274.32C306.542 274.32 308.844 280.47 307.599 283.53C306.353 286.588 298.502 291.839 298.502 291.839L292.407 283.701Z" fill="white"/>
<path d="M292.407 283.701C292.407 283.701 300.684 273.078 301.158 270.635C301.633 268.192 306.698 267.233 307.891 266.537C309.083 265.841 316.364 259.756 316.808 262.494C317.252 265.235 316.999 269.045 314.34 271.431C311.681 273.817 306.542 274.32 306.542 274.32C306.542 274.32 308.844 280.47 307.599 283.53C306.353 286.588 298.502 291.839 298.502 291.839L292.407 283.701Z" stroke="#1A2E35" stroke-width="1.33333" stroke-miterlimit="10" stroke-linecap="round" stroke-linejoin="round"/>
<path d="M279.524 299.097C279.524 299.097 264.613 304.817 258.693 305.455C252.774 306.095 236.485 301.945 236.485 301.945L237.635 287.013L237.619 280.023C237.619 280.023 245.314 284.835 255.06 288.535C264.805 292.237 279.524 299.097 279.524 299.097Z" fill="white"/>
<path d="M279.524 299.097C279.524 299.097 264.613 304.817 258.693 305.455C252.774 306.095 236.485 301.945 236.485 301.945L237.635 287.013L237.619 280.023C237.619 280.023 245.314 284.835 255.06 288.535C264.805 292.237 279.524 299.097 279.524 299.097Z" stroke="#1A2E35" stroke-width="1.33333" stroke-miterlimit="10" stroke-linecap="round" stroke-linejoin="round"/>
<path d="M163.19 259.547C163.19 259.547 173.048 300.328 174.333 311.911C175.619 323.498 168.762 376.79 173.048 380.961C177.333 385.131 195.334 391.155 219.762 387.448C244.192 383.742 257.906 377.717 258.334 371.692C258.762 365.667 251.905 337.864 248.476 323.498C245.048 309.132 244.192 282.718 242.476 265.107C240.762 247.499 241.19 239.157 236.048 233.133C230.906 227.108 227.048 225.717 221.904 225.255C216.762 224.791 203.048 226.645 192.762 235.449C182.476 244.254 175.619 254.912 171.333 257.23C167.048 259.547 163.19 259.547 163.19 259.547Z" fill="#7EE66C"/>
<path d="M163.19 259.547C163.19 259.547 173.048 300.328 174.333 311.911C175.619 323.498 168.762 376.79 173.048 380.961C177.333 385.131 195.334 391.155 219.762 387.448C244.192 383.742 257.906 377.717 258.334 371.692C258.762 365.667 251.905 337.864 248.476 323.498C245.048 309.132 244.192 282.718 242.476 265.107C240.762 247.499 241.19 239.157 236.048 233.133C230.906 227.108 227.048 225.717 221.904 225.255C216.762 224.791 203.048 226.645 192.762 235.449C182.476 244.254 175.619 254.912 171.333 257.23C167.048 259.547 163.19 259.547 163.19 259.547Z" stroke="#1A2E35" stroke-width="1.33333" stroke-miterlimit="10" stroke-linecap="round" stroke-linejoin="round"/>
<path d="M229.191 223.865C229.191 223.865 223.191 221.084 219.333 219.23C215.476 217.377 188.904 210.889 184.618 209.962C180.333 209.035 170.048 208.108 167.476 211.815C164.904 215.523 164.046 223.402 164.046 223.402C164.046 223.402 151.618 239.621 157.19 252.596C162.762 265.57 167.046 272.985 173.047 270.669C179.048 268.351 186.762 259.547 199.619 243.791C212.476 228.036 227.047 228.036 227.047 228.036C227.047 228.036 233.477 228.036 229.191 223.865Z" fill="white"/>
<path d="M229.191 223.865C229.191 223.865 223.191 221.084 219.333 219.23C215.476 217.377 188.904 210.889 184.618 209.962C180.333 209.035 170.048 208.108 167.476 211.815C164.904 215.523 164.046 223.402 164.046 223.402C164.046 223.402 151.618 239.621 157.19 252.596C162.762 265.57 167.046 272.985 173.047 270.669C179.048 268.351 186.762 259.547 199.619 243.791C212.476 228.036 227.047 228.036 227.047 228.036C227.047 228.036 233.477 228.036 229.191 223.865Z" stroke="#1A2E35" stroke-width="1.33333" stroke-miterlimit="10" stroke-linecap="round" stroke-linejoin="round"/>
<path d="M219.922 229.091C219.922 229.091 231.556 225.406 239.748 234.901C247.939 244.393 265.472 262.265 267.899 264.228C270.325 266.191 277.907 271.098 277.907 271.098C277.907 271.098 286.638 274.888 293.975 277.96C301.313 281.033 327.571 296.141 330.239 296.66C332.905 297.182 333.937 298.427 339.693 296.126C345.449 293.825 353.265 290.737 354.66 291.455C356.054 292.175 364.908 296.883 366.241 297.143C367.575 297.404 377.273 298.704 376.608 300.211C375.943 301.719 373.943 302.968 372.247 303.231C370.55 303.495 364.429 303.045 360.247 304.162C356.067 305.282 353.284 310.398 344.8 311.718C336.315 313.038 321.402 308.336 321.402 308.336C321.402 308.336 291.093 305.095 276.846 302.164C262.601 299.23 223.727 277.189 220.575 276.276C217.422 275.362 208.936 273.405 208.936 273.405" fill="#7EE66C"/>
<path d="M219.922 229.091C219.922 229.091 231.556 225.406 239.748 234.901C247.939 244.393 265.472 262.265 267.899 264.228C270.325 266.191 277.907 271.098 277.907 271.098C277.907 271.098 286.638 274.888 293.975 277.96C301.313 281.033 327.571 296.141 330.239 296.66C332.905 297.182 333.937 298.427 339.693 296.126C345.449 293.825 353.265 290.737 354.66 291.455C356.054 292.175 364.908 296.883 366.241 297.143C367.575 297.404 377.273 298.704 376.608 300.211C375.943 301.719 373.943 302.968 372.247 303.231C370.55 303.495 364.429 303.045 360.247 304.162C356.067 305.282 353.284 310.398 344.8 311.718C336.315 313.038 321.402 308.336 321.402 308.336C321.402 308.336 291.093 305.095 276.846 302.164C262.601 299.23 223.727 277.189 220.575 276.276C217.422 275.362 208.936 273.405 208.936 273.405" stroke="#1A2E35" stroke-width="1.33333" stroke-miterlimit="10" stroke-linecap="round" stroke-linejoin="round"/>
<path d="M203.797 286.847C214.646 287.031 230.702 280.785 230.702 280.785C230.702 280.785 225.075 290.558 216.654 295.612" stroke="#1A2E35" stroke-width="1.33333" stroke-miterlimit="10" stroke-linecap="round" stroke-linejoin="round"/>
<path d="M376.608 300.211C377.273 298.704 367.575 297.405 366.241 297.143C364.908 296.884 356.054 292.175 354.66 291.456C353.265 290.737 345.449 293.825 339.693 296.125C333.937 298.427 332.905 297.182 330.239 296.661C327.985 296.221 308.904 285.375 298.608 280.165C299.674 284.173 300.355 289.064 299.021 293.093C297.244 298.457 293.516 302.395 291.054 304.545C305.301 306.614 321.402 308.337 321.402 308.337C321.402 308.337 336.316 313.037 344.8 311.718C353.284 310.398 356.067 305.281 360.247 304.163C364.429 303.045 370.55 303.495 372.247 303.232C373.944 302.968 375.944 301.72 376.608 300.211Z" fill="white"/>
<path d="M376.608 300.211C377.273 298.704 367.575 297.405 366.241 297.143C364.908 296.884 356.054 292.175 354.66 291.456C353.265 290.737 345.449 293.825 339.693 296.125C333.937 298.427 332.905 297.182 330.239 296.661C327.985 296.221 308.904 285.375 298.608 280.165C299.674 284.173 300.355 289.064 299.021 293.093C297.244 298.457 293.516 302.395 291.054 304.545C305.301 306.614 321.402 308.337 321.402 308.337C321.402 308.337 336.316 313.037 344.8 311.718C353.284 310.398 356.067 305.281 360.247 304.163C364.429 303.045 370.55 303.495 372.247 303.232C373.944 302.968 375.944 301.72 376.608 300.211Z" stroke="#1A2E35" stroke-width="1.33333" stroke-miterlimit="10" stroke-linecap="round" stroke-linejoin="round"/>
<path d="M205.726 185.088L210.677 202.854C210.677 202.854 203.026 203.815 185.027 197.092C167.027 190.369 161.439 166.801 165.038 151.434C168.639 136.07 184.576 112.102 208.876 110.181C233.175 108.26 249.375 131.308 254.324 141.392C259.274 151.476 259.274 163.48 257.474 166.361C255.674 169.242 250.724 174.044 250.724 174.044L245.325 165.401C245.325 165.401 243.524 174.524 241.275 175.485C239.025 176.445 235.875 176.925 235.875 176.925L229.575 166.841L230.025 177.405C230.025 177.405 223.725 180.286 221.926 181.727C220.125 183.168 212.476 187.97 212.476 187.97C212.476 187.97 208.426 188.93 205.726 185.088Z" fill="#1A2E35"/>
<path d="M205.726 185.088L210.677 202.854C210.677 202.854 203.026 203.815 185.027 197.092C167.027 190.369 161.439 166.801 165.038 151.434C168.639 136.07 184.576 112.102 208.876 110.181C233.175 108.26 249.375 131.308 254.324 141.392C259.274 151.476 259.274 163.48 257.474 166.361C255.674 169.242 250.724 174.044 250.724 174.044L245.325 165.401C245.325 165.401 243.524 174.524 241.275 175.485C239.025 176.445 235.875 176.925 235.875 176.925L229.575 166.841L230.025 177.405C230.025 177.405 223.725 180.286 221.926 181.727C220.125 183.168 212.476 187.97 212.476 187.97C212.476 187.97 208.426 188.93 205.726 185.088Z" stroke="#1A2E35" stroke-width="1.33333" stroke-miterlimit="10" stroke-linecap="round" stroke-linejoin="round"/>
</g>
</g>
<defs>
<clipPath id="clip0_46_948">
<rect width="583" height="638.31" fill="white"/>
</clipPath>
</defs>
</svg>
