<svg width="583" height="389" viewBox="0 0 583 389" fill="none" xmlns="http://www.w3.org/2000/svg">
<mask id="mask0_19_4599" style="mask-type:luminance" maskUnits="userSpaceOnUse" x="0" y="0" width="583" height="389">
<path d="M0 0.161987H582.076V388.212H0V0.161987Z" fill="white"/>
</mask>
<g mask="url(#mask0_19_4599)">
<path d="M509.223 348.714C539.824 326.18 559.797 291.969 564.281 255.947C567.108 233.241 568.634 204.715 563.709 180.311C547.46 99.8011 481.216 56.1346 430.247 46.8213C379.279 37.5081 323.839 54.5823 280.475 81.7459C237.112 108.909 241.507 104.253 173.551 94.1635C105.594 84.0742 45.6754 113.566 21.0358 167.893C-3.60309 222.22 49.6375 253.007 52.7007 281.463C55.764 309.92 39.3153 360.366 145.819 372.784C252.322 385.201 291.619 324.665 343.28 341.74C384.851 355.479 444.525 396.356 509.223 348.714Z" fill="#7EE66C"/>
<mask id="mask1_19_4599" style="mask-type:luminance" maskUnits="userSpaceOnUse" x="14" y="44" width="553" height="331">
<path d="M14.5466 44.2586H566.913V374.477H14.5466V44.2586Z" fill="white"/>
</mask>
<g mask="url(#mask1_19_4599)">
<g opacity="0.699997">
<path d="M509.223 348.714C539.824 326.18 559.797 291.969 564.281 255.947C567.108 233.241 568.634 204.715 563.709 180.311C547.46 99.8011 481.216 56.1346 430.247 46.8213C379.279 37.5081 323.839 54.5823 280.475 81.7459C237.112 108.909 241.507 104.253 173.551 94.1635C105.594 84.0742 45.6754 113.566 21.0358 167.893C-3.60309 222.22 49.6375 253.007 52.7007 281.463C55.764 309.92 39.3153 360.366 145.819 372.784C252.322 385.201 291.619 324.665 343.28 341.74C384.851 355.479 444.525 396.356 509.223 348.714Z" fill="white"/>
</g>
</g>
</g>
<mask id="mask2_19_4599" style="mask-type:luminance" maskUnits="userSpaceOnUse" x="0" y="0" width="583" height="389">
<path d="M0 0.161987H582.076V388.212H0V0.161987Z" fill="white"/>
</mask>
<g mask="url(#mask2_19_4599)">
<path d="M438.985 54.8021H477.148C477.148 54.8021 478.448 50.9007 473.68 48.3C468.912 45.7 466.745 47.8669 465.011 45.7C463.277 43.5324 469.779 37.8971 456.775 32.2626C456.775 32.2626 455.909 20.1259 438.136 19.6921C430.468 19.5051 426.995 21.7402 425.144 24.5846" stroke="#1A2E35" stroke-width="1.33333" stroke-miterlimit="10" stroke-linecap="round" stroke-linejoin="round"/>
<path d="M427.34 54.8021H433.692" stroke="#1A2E35" stroke-width="1.33333" stroke-miterlimit="10" stroke-linecap="round" stroke-linejoin="round"/>
<path d="M422.83 30.5709C422.287 32.4188 421.699 34.0144 420.365 34.8627C415.597 37.8973 414.297 33.1297 409.529 36.1635C404.76 39.198 406.928 45.2664 403.027 46.1333C399.126 47.0002 393.925 42.2318 389.156 45.2664C384.389 48.3001 384.389 50.9008 382.221 50.9008C380.054 50.9008 375.719 49.167 373.119 50.9008C370.518 52.6347 367.484 54.8023 367.484 54.8023H416.223" stroke="#1A2E35" stroke-width="1.33333" stroke-miterlimit="10" stroke-linecap="round" stroke-linejoin="round"/>
<path d="M159.209 54.8021H196.704C196.704 54.8021 197.981 50.969 193.297 48.414C188.612 45.8591 186.483 47.988 184.779 45.8591C183.076 43.7295 189.464 38.1928 176.687 32.6569C176.687 32.6569 175.836 20.7321 158.375 20.306C150.84 20.1228 147.429 22.3184 145.609 25.1139" stroke="#1A2E35" stroke-width="1.33333" stroke-miterlimit="10" stroke-linecap="round" stroke-linejoin="round"/>
<path d="M147.767 54.8021H154.009" stroke="#1A2E35" stroke-width="1.33333" stroke-miterlimit="10" stroke-linecap="round" stroke-linejoin="round"/>
<path d="M143.336 30.9949C142.802 32.811 142.225 34.378 140.914 35.2123C136.23 38.1933 134.952 33.5087 130.268 36.4897C125.583 39.4707 127.712 45.4327 123.88 46.2849C120.046 47.1363 114.937 42.4517 110.251 45.4327C105.567 48.4137 105.567 50.9694 103.438 50.9694C101.308 50.9694 97.0498 49.2659 94.4941 50.9694C91.9391 52.673 88.9581 54.8018 88.9581 54.8018H136.845" stroke="#1A2E35" stroke-width="1.33333" stroke-miterlimit="10" stroke-linecap="round" stroke-linejoin="round"/>
<path d="M224.527 69.1295H236.487C236.487 69.1295 236.895 67.9072 235.4 67.0915C233.906 66.2766 233.227 66.9557 232.684 66.2766C232.14 65.5975 234.178 63.8311 230.102 62.0654C230.102 62.0654 229.831 58.2618 224.26 58.126C221.857 58.067 220.769 58.7678 220.188 59.6595" stroke="#1A2E35" stroke-width="1.33333" stroke-miterlimit="10" stroke-linecap="round" stroke-linejoin="round"/>
<path d="M220.877 69.1295H222.868" stroke="#1A2E35" stroke-width="1.33333" stroke-miterlimit="10" stroke-linecap="round" stroke-linejoin="round"/>
<path d="M219.464 61.5353C219.293 62.1143 219.109 62.6149 218.691 62.8803C217.197 63.8318 216.789 62.337 215.295 63.2877C213.8 64.2392 214.479 66.1407 213.257 66.4123C212.035 66.684 210.404 65.19 208.91 66.1407C207.415 67.0922 207.415 67.9071 206.736 67.9071C206.057 67.9071 204.698 67.3638 203.883 67.9071C203.068 68.4504 202.118 69.1295 202.118 69.1295H217.393" stroke="#1A2E35" stroke-width="1.33333" stroke-miterlimit="10" stroke-linecap="round" stroke-linejoin="round"/>
<path d="M356.378 27.3472H377.84C377.84 27.3472 378.571 25.1531 375.89 23.6902C373.208 22.228 371.99 23.4465 371.014 22.228C370.039 21.0088 373.696 17.8399 366.382 14.6711C366.382 14.6711 365.895 7.84531 355.9 7.60161C351.587 7.49606 349.635 8.75335 348.593 10.3529" stroke="#1A2E35" stroke-width="1.33333" stroke-miterlimit="10" stroke-linecap="round" stroke-linejoin="round"/>
<path d="M349.828 27.3472H353.401" stroke="#1A2E35" stroke-width="1.33333" stroke-miterlimit="10" stroke-linecap="round" stroke-linejoin="round"/>
<path d="M347.292 13.7196C346.986 14.7588 346.655 15.656 345.906 16.1333C343.224 17.8399 342.492 15.1585 339.811 16.8652C337.13 18.571 338.348 21.9843 336.155 22.4717C333.961 22.9591 331.035 20.2777 328.353 21.9843C325.672 23.6902 325.672 25.1531 324.454 25.1531C323.234 25.1531 320.797 24.1783 319.334 25.1531C317.871 26.1287 316.165 27.3472 316.165 27.3472H343.576" stroke="#1A2E35" stroke-width="1.33333" stroke-miterlimit="10" stroke-linecap="round" stroke-linejoin="round"/>
</g>
<path d="M357.444 92.0688L334.963 56.6437L320.067 65.1568L284.597 19.0471L224.273 92.0688H357.444Z" fill="#7EE66C"/>
<path d="M357.444 92.0688L334.963 56.6437L320.067 65.1568L284.597 19.0471L224.273 92.0688H357.444Z" stroke="#1A2E35" stroke-width="1.33333" stroke-miterlimit="10"/>
<path d="M284.597 19.047V2.9755" stroke="#1A2E35" stroke-width="1.33333" stroke-miterlimit="10"/>
<path d="M284.597 2.97574L300.696 8.56367L284.713 12.6987L284.597 2.97574Z" fill="#7EE66C"/>
<path d="M284.597 2.97574L300.696 8.56367L284.713 12.6987L284.597 2.97574Z" stroke="#1A2E35" stroke-width="1.33333" stroke-miterlimit="10"/>
<path d="M276.504 40.7086L281.728 34.6814L286.952 42.3159L291.773 36.6907L295.389 39.5033L297.182 35.407L284.598 19.0468L264.695 43.1378L274.897 37.0919L276.504 40.7086Z" fill="white"/>
<path d="M276.504 40.7086L281.728 34.6814L286.952 42.3159L291.773 36.6907L295.389 39.5033L297.182 35.407L284.598 19.0468L264.695 43.1378L274.897 37.0919L276.504 40.7086Z" stroke="#1A2E35" stroke-width="1.33333" stroke-miterlimit="10"/>
<path d="M334.767 68.0318L339.69 64.0931L334.963 56.6441L320.067 65.1563L331.151 63.6119L334.767 68.0318Z" fill="white"/>
<path d="M334.767 68.0318L339.69 64.0931L334.963 56.6441L320.067 65.1563L331.151 63.6119L334.767 68.0318Z" stroke="#1A2E35" stroke-width="1.33333" stroke-miterlimit="10"/>
<path d="M242.539 92.0688H339.616L291.393 53.1063L274.495 86.1138L270.458 79.9275L263.18 88.8069L266.861 67.6302L242.539 92.0688Z" fill="#1A2E35"/>
<path d="M357.097 92.0688L339.991 72.4521V81.2919L320.704 68.4335L340.146 92.0688H357.097Z" fill="#1A2E35"/>
<mask id="mask3_19_4599" style="mask-type:luminance" maskUnits="userSpaceOnUse" x="0" y="0" width="583" height="389">
<path d="M0 0.161987H582.076V388.212H0V0.161987Z" fill="white"/>
</mask>
<g mask="url(#mask3_19_4599)">
<path d="M494.353 168.367C494.353 164.433 497.541 161.245 501.474 161.245C505.407 161.245 508.596 164.433 508.596 168.367C508.596 172.3 505.407 175.488 501.474 175.488C497.541 175.488 494.353 172.3 494.353 168.367ZM515.594 175.978L522.569 177.57L524.184 170.493L517.484 168.964C517.491 168.764 517.515 168.568 517.515 168.367C517.515 166.147 517.063 164.032 516.247 162.11L521.681 157.776L517.156 152.101L511.959 156.246C510.161 154.689 508.016 153.533 505.653 152.896V146.128H498.394V152.629C495.951 153.104 493.716 154.142 491.806 155.589L486.552 151.398L482.027 157.073L487.156 161.164C486.103 163.254 485.489 165.601 485.448 168.092L478.764 169.617L480.378 176.693L486.973 175.189C487.978 177.322 489.426 179.204 491.219 180.697L488.152 187.066L494.691 190.216L497.711 183.945C498.92 184.236 500.175 184.407 501.474 184.407C502.516 184.407 503.532 184.3 504.519 184.11L507.646 190.605L514.187 187.456L511.145 181.142C512.97 179.758 514.499 178.006 515.594 175.978Z" stroke="#1A2E35" stroke-width="1.33333" stroke-miterlimit="10" stroke-linecap="round" stroke-linejoin="round"/>
<path d="M511.54 134.949C511.54 131.722 514.155 129.107 517.382 129.107C520.609 129.107 523.225 131.722 523.225 134.949C523.225 138.176 520.609 140.792 517.382 140.792C514.155 140.792 511.54 138.176 511.54 134.949ZM528.967 141.194L534.689 142.5L536.014 136.694L530.517 135.44C530.523 135.275 530.542 135.115 530.542 134.949C530.542 133.128 530.172 131.393 529.503 129.815L533.961 126.26L530.249 121.604L525.985 125.004C524.509 123.728 522.749 122.779 520.81 122.256V116.705H514.855V122.037C512.851 122.428 511.018 123.278 509.451 124.466L505.14 121.028L501.427 125.683L505.636 129.04C504.771 130.755 504.269 132.68 504.234 134.724L498.75 135.975L500.075 141.781L505.485 140.546C506.31 142.297 507.498 143.841 508.969 145.066L506.453 150.291L511.818 152.874L514.295 147.73C515.287 147.969 516.317 148.109 517.382 148.109C518.237 148.109 519.071 148.021 519.881 147.865L522.446 153.195L527.812 150.611L525.317 145.431C526.814 144.295 528.068 142.858 528.967 141.194Z" stroke="#1A2E35" stroke-width="1.33333" stroke-miterlimit="10" stroke-linecap="round" stroke-linejoin="round"/>
<path d="M81.4226 168.367C81.4226 164.433 78.2344 161.245 74.3011 161.245C70.3686 161.245 67.1796 164.433 67.1796 168.367C67.1796 172.3 70.3686 175.488 74.3011 175.488C78.2344 175.488 81.4226 172.3 81.4226 168.367ZM60.1807 175.978L53.2059 177.57L51.5908 170.493L58.2917 168.964C58.2839 168.764 58.2606 168.568 58.2606 168.367C58.2606 166.147 58.7123 164.032 59.528 162.11L54.0937 157.776L58.6192 152.101L63.816 156.246C65.6142 154.689 67.7593 153.533 70.1226 152.896V146.128H77.3814V152.629C79.823 153.104 82.059 154.142 83.969 155.589L89.2232 151.398L93.7486 157.073L88.6194 161.164C89.6733 163.254 90.2857 165.601 90.3276 168.092L97.0114 169.617L95.3971 176.693L88.8025 175.189C87.7975 177.322 86.3493 179.204 84.5565 180.697L87.6236 187.066L81.0842 190.216L78.0644 183.945C76.8552 184.236 75.6003 184.407 74.3011 184.407C73.2596 184.407 72.2429 184.3 71.2564 184.11L68.1288 190.605L61.5886 187.456L64.6301 181.142C62.8047 179.758 61.2758 178.006 60.1807 175.978Z" stroke="#1A2E35" stroke-width="1.33333" stroke-miterlimit="10" stroke-linecap="round" stroke-linejoin="round"/>
<path d="M64.2353 134.949C64.2353 131.722 61.6199 129.107 58.3928 129.107C55.1658 129.107 52.5504 131.722 52.5504 134.949C52.5504 138.176 55.1658 140.792 58.3928 140.792C61.6199 140.792 64.2353 138.176 64.2353 134.949ZM46.808 141.194L41.0858 142.5L39.761 136.694L45.2581 135.44C45.2519 135.275 45.2333 135.115 45.2333 134.949C45.2333 133.128 45.6035 131.393 46.2725 129.815L41.8138 126.26L45.5266 121.604L49.7905 125.004C51.2659 123.728 53.0261 122.779 54.9648 122.256V116.705H60.9198V122.037C62.9237 122.428 64.7569 123.278 66.3238 124.466L70.6351 121.028L74.3479 125.683L70.1391 129.04C71.0045 130.755 71.5066 132.68 71.5415 134.724L77.0255 135.975L75.7007 141.781L70.2905 140.546C69.4655 142.297 68.2773 143.841 66.8066 145.066L69.3227 150.291L63.9575 152.874L61.4802 147.73C60.4883 147.969 59.4584 148.109 58.3928 148.109C57.5384 148.109 56.704 148.021 55.8946 147.865L53.3288 153.195L47.9636 150.611L50.458 145.431C48.9609 144.295 47.7067 142.858 46.808 141.194Z" stroke="#1A2E35" stroke-width="1.33333" stroke-miterlimit="10" stroke-linecap="round" stroke-linejoin="round"/>
</g>
<mask id="mask4_19_4599" style="mask-type:luminance" maskUnits="userSpaceOnUse" x="0" y="0" width="583" height="389">
<path d="M0 0.161987H582.076V388.212H0V0.161987Z" fill="white"/>
</mask>
<g mask="url(#mask4_19_4599)">
<path d="M521.012 292.558H485.24C483.799 292.558 482.631 293.726 482.631 295.166V298.187C482.631 299.627 483.799 300.796 485.24 300.796H521.012V292.558Z" fill="white"/>
<path d="M521.012 292.558H485.24C483.799 292.558 482.631 293.726 482.631 295.166V298.187C482.631 299.627 483.799 300.796 485.24 300.796H521.012V292.558Z" stroke="#1A2E35" stroke-width="1.33333" stroke-miterlimit="10"/>
<path d="M554.377 294.949H520.327V298.404H554.377V294.949Z" fill="white" stroke="#1A2E35" stroke-width="1.33333" stroke-miterlimit="10"/>
<path d="M520.327 298.404V294.95H556.209V292.558H520.767C519.145 292.558 517.829 293.874 517.829 295.497V297.857C517.829 299.48 519.145 300.796 520.767 300.796H556.209V298.404H520.327Z" fill="white"/>
<path d="M520.327 298.404V294.95H556.209V292.558H520.767C519.145 292.558 517.829 293.874 517.829 295.497V297.857C517.829 299.48 519.145 300.796 520.767 300.796H556.209V298.404H520.327Z" stroke="#1A2E35" stroke-width="1.33333" stroke-miterlimit="10"/>
<path d="M521.012 284.31H485.24C483.799 284.31 482.631 285.478 482.631 286.918V289.939C482.631 291.379 483.799 292.547 485.24 292.547H521.012V284.31Z" fill="#1A2E35"/>
<path d="M521.012 284.31H485.24C483.799 284.31 482.631 285.478 482.631 286.918V289.939C482.631 291.379 483.799 292.547 485.24 292.547H521.012V284.31Z" stroke="#1A2E35" stroke-width="1.33333" stroke-miterlimit="10"/>
<path d="M554.377 286.701H520.327V290.156H554.377V286.701Z" fill="white" stroke="#1A2E35" stroke-width="1.33333" stroke-miterlimit="10"/>
<path d="M520.327 290.156V286.701H556.209V284.309H520.767C519.145 284.309 517.829 285.626 517.829 287.248V289.609C517.829 291.231 519.145 292.548 520.767 292.548H556.209V290.156H520.327Z" fill="#1A2E35"/>
<path d="M520.327 290.156V286.701H556.209V284.309H520.767C519.145 284.309 517.829 285.626 517.829 287.248V289.609C517.829 291.231 519.145 292.548 520.767 292.548H556.209V290.156H520.327Z" stroke="#1A2E35" stroke-width="1.33333" stroke-miterlimit="10"/>
<path d="M517.829 276.233H553.6C555.041 276.233 556.209 277.401 556.209 278.841V281.862C556.209 283.302 555.041 284.47 553.6 284.47H517.829V276.233Z" fill="#7EE66C"/>
<path d="M517.829 276.233H553.6C555.041 276.233 556.209 277.401 556.209 278.841V281.862C556.209 283.302 555.041 284.47 553.6 284.47H517.829V276.233Z" stroke="#1A2E35" stroke-width="1.33333" stroke-miterlimit="10"/>
<path d="M484.463 278.624H518.513V282.078H484.463V278.624Z" fill="white" stroke="#1A2E35" stroke-width="1.33333" stroke-miterlimit="10"/>
<path d="M518.513 282.079V278.624H482.631V276.232H518.073C519.696 276.232 521.011 277.549 521.011 279.171V281.532C521.011 283.154 519.696 284.471 518.073 284.471H482.631V282.079H518.513Z" fill="#7EE66C"/>
<path d="M518.513 282.079V278.624H482.631V276.232H518.073C519.696 276.232 521.011 277.549 521.011 279.171V281.532C521.011 283.154 519.696 284.471 518.073 284.471H482.631V282.079H518.513Z" stroke="#1A2E35" stroke-width="1.33333" stroke-miterlimit="10"/>
<path d="M517.829 268.499H553.6C555.041 268.499 556.209 269.667 556.209 271.108V274.128C556.209 275.569 555.041 276.737 553.6 276.737H517.829V268.499Z" fill="#7EE66C"/>
<path d="M517.829 268.499H553.6C555.041 268.499 556.209 269.667 556.209 271.108V274.128C556.209 275.569 555.041 276.737 553.6 276.737H517.829V268.499Z" stroke="#1A2E35" stroke-width="1.33333" stroke-miterlimit="10"/>
<path d="M484.463 270.891H518.513V274.345H484.463V270.891Z" fill="white" stroke="#1A2E35" stroke-width="1.33333" stroke-miterlimit="10"/>
<path d="M518.513 274.345V270.891H482.631V268.499H518.073C519.696 268.499 521.011 269.815 521.011 271.438V273.798C521.011 275.421 519.696 276.737 518.073 276.737H482.631V274.345H518.513Z" fill="#7EE66C"/>
<path d="M518.513 274.345V270.891H482.631V268.499H518.073C519.696 268.499 521.011 269.815 521.011 271.438V273.798C521.011 275.421 519.696 276.737 518.073 276.737H482.631V274.345H518.513Z" stroke="#1A2E35" stroke-width="1.33333" stroke-miterlimit="10"/>
<path d="M495.124 236.195H517.828V268.5H495.124V236.195Z" fill="#1A2E35" stroke="#1A2E35" stroke-width="1.33333" stroke-miterlimit="10"/>
<path d="M497.53 236.195H517.725V268.5H497.53V236.195Z" fill="white" stroke="#1A2E35" stroke-width="1.33333" stroke-miterlimit="10"/>
<path d="M500.784 236.195H518V268.5H500.784V236.195Z" fill="white" stroke="#1A2E35" stroke-width="1.33333" stroke-miterlimit="10"/>
<path d="M541.028 236.195H518.323V268.5H541.028V236.195Z" fill="#1A2E35" stroke="#1A2E35" stroke-width="1.33333" stroke-miterlimit="10"/>
<path d="M538.622 236.195H518.427V268.5H538.622V236.195Z" fill="white" stroke="#1A2E35" stroke-width="1.33333" stroke-miterlimit="10"/>
<path d="M535.368 236.195H518.151V268.5H535.368V236.195Z" fill="white" stroke="#1A2E35" stroke-width="1.33333" stroke-miterlimit="10"/>
<path d="M503.372 244.272H515.23" stroke="#1A2E35" stroke-width="1.33333" stroke-miterlimit="10"/>
<path d="M503.372 248.912H515.23" stroke="#1A2E35" stroke-width="1.33333" stroke-miterlimit="10"/>
<path d="M503.372 253.552H515.23" stroke="#1A2E35" stroke-width="1.33333" stroke-miterlimit="10"/>
<path d="M503.372 258.192H515.23" stroke="#1A2E35" stroke-width="1.33333" stroke-miterlimit="10"/>
<path d="M503.372 262.832H515.23" stroke="#1A2E35" stroke-width="1.33333" stroke-miterlimit="10"/>
<path d="M520.557 244.272H532.415" stroke="#1A2E35" stroke-width="1.33333" stroke-miterlimit="10"/>
<path d="M520.557 248.912H532.415" stroke="#1A2E35" stroke-width="1.33333" stroke-miterlimit="10"/>
<path d="M520.557 253.552H532.415" stroke="#1A2E35" stroke-width="1.33333" stroke-miterlimit="10"/>
<path d="M520.557 258.192H532.415" stroke="#1A2E35" stroke-width="1.33333" stroke-miterlimit="10"/>
<path d="M520.557 262.832H532.415" stroke="#1A2E35" stroke-width="1.33333" stroke-miterlimit="10"/>
</g>
<mask id="mask5_19_4599" style="mask-type:luminance" maskUnits="userSpaceOnUse" x="0" y="0" width="583" height="389">
<path d="M0 0.161987H582.076V388.212H0V0.161987Z" fill="white"/>
</mask>
<g mask="url(#mask5_19_4599)">
<path d="M68.8294 238.502C63.8243 233.497 55.7094 233.497 50.7043 238.502L46.7307 242.476L42.757 238.502C37.752 233.497 29.6371 233.497 24.632 238.502C19.6269 243.507 19.6269 251.622 24.632 256.627L41.974 277.655H46.7307L68.8294 256.627C73.8345 251.622 73.8345 243.507 68.8294 238.502Z" fill="#1A2E35"/>
<path d="M68.8294 238.502C63.8243 233.497 55.7094 233.497 50.7043 238.502L46.7307 242.476L42.757 238.502C37.752 233.497 29.6371 233.497 24.632 238.502C19.6269 243.507 19.6269 251.622 24.632 256.627L41.974 277.655H46.7307L68.8294 256.627C73.8345 251.622 73.8345 243.507 68.8294 238.502Z" stroke="#1A2E35" stroke-width="1.33333" stroke-miterlimit="10"/>
<path d="M64.0725 238.502C59.0675 233.497 50.9526 233.497 45.9475 238.502L41.9738 242.476L38.0002 238.502C32.9951 233.497 24.8802 233.497 19.8751 238.502C14.8701 243.507 14.8701 251.622 19.8751 256.627L41.9738 277.655L64.0725 256.627C69.0776 251.622 69.0776 243.507 64.0725 238.502Z" fill="#7EE66C"/>
<path d="M64.0725 238.502C59.0675 233.497 50.9526 233.497 45.9475 238.502L41.9738 242.476L38.0002 238.502C32.9951 233.497 24.8802 233.497 19.8751 238.502C14.8701 243.507 14.8701 251.622 19.8751 256.627L41.9738 277.655L64.0725 256.627C69.0776 251.622 69.0776 243.507 64.0725 238.502Z" stroke="#1A2E35" stroke-width="1.33333" stroke-miterlimit="10"/>
<path d="M67.1662 264.924C69.9004 262.189 74.3327 262.189 77.0661 264.924L79.2369 267.093L81.4069 264.924C84.1411 262.189 88.5734 262.189 91.3068 264.924C94.041 267.657 94.041 272.09 91.3068 274.823L81.8345 286.309H79.2369L67.1662 274.823C64.432 272.09 64.432 267.657 67.1662 264.924Z" fill="#1A2E35"/>
<path d="M67.1662 264.924C69.9004 262.189 74.3327 262.189 77.0661 264.924L79.2369 267.093L81.4069 264.924C84.1411 262.189 88.5734 262.189 91.3068 264.924C94.041 267.657 94.041 272.09 91.3068 274.823L81.8345 286.309H79.2369L67.1662 274.823C64.432 272.09 64.432 267.657 67.1662 264.924Z" stroke="#1A2E35" stroke-width="1.33333" stroke-miterlimit="10"/>
<path d="M69.7644 264.924C72.4986 262.189 76.9309 262.189 79.6643 264.924L81.8351 267.093L84.0051 264.924C86.7393 262.189 91.1716 262.189 93.905 264.924C96.6392 267.657 96.6392 272.09 93.905 274.823L81.8351 286.309L69.7644 274.823C67.0302 272.09 67.0302 267.657 69.7644 264.924Z" fill="#7EE66C"/>
<path d="M69.7644 264.924C72.4986 262.189 76.9309 262.189 79.6643 264.924L81.8351 267.093L84.0051 264.924C86.7393 262.189 91.1716 262.189 93.905 264.924C96.6392 267.657 96.6392 272.09 93.905 274.823L81.8351 286.309L69.7644 274.823C67.0302 272.09 67.0302 267.657 69.7644 264.924Z" stroke="#1A2E35" stroke-width="1.33333" stroke-miterlimit="10"/>
<path d="M56.1979 283.983L60.3205 292.336L69.5383 293.675L62.8677 300.177L64.4424 309.357L56.1979 305.023L47.9534 309.357L49.5281 300.177L42.8575 293.675L52.0752 292.336L56.1979 283.983Z" fill="white"/>
<path d="M56.1979 283.983L60.3205 292.336L69.5383 293.675L62.8677 300.177L64.4424 309.357L56.1979 305.023L47.9534 309.357L49.5281 300.177L42.8575 293.675L52.0752 292.336L56.1979 283.983Z" stroke="#1A2E35" stroke-width="1.33333" stroke-miterlimit="10"/>
<path d="M64.4428 309.358L62.8681 300.177L63.8196 299.25C57.0062 298.996 51.9305 302.344 48.5746 305.735L47.953 309.358L56.1983 305.023L64.4428 309.358Z" fill="#1A2E35"/>
<path d="M64.4428 309.358L62.8681 300.177L63.8196 299.25C57.0062 298.996 51.9305 302.344 48.5746 305.735L47.953 309.358L56.1983 305.023L64.4428 309.358Z" stroke="#1A2E35" stroke-width="1.33333" stroke-miterlimit="10"/>
<path d="M80.4235 243.851L82.7432 248.552L87.9307 249.305L84.1767 252.964L85.063 258.13L80.4235 255.691L75.7839 258.13L76.6702 252.964L72.9162 249.305L78.1037 248.552L80.4235 243.851Z" fill="white"/>
<path d="M80.4235 243.851L82.7432 248.552L87.9307 249.305L84.1767 252.964L85.063 258.13L80.4235 255.691L75.7839 258.13L76.6702 252.964L72.9162 249.305L78.1037 248.552L80.4235 243.851Z" stroke="#1A2E35" stroke-width="1.33333" stroke-miterlimit="10"/>
<path d="M85.063 258.13L84.1767 252.964L84.7122 252.442C80.8783 252.299 78.0214 254.183 76.1332 256.092L75.7839 258.13L80.4235 255.691L85.063 258.13Z" fill="#1A2E35"/>
<path d="M85.063 258.13L84.1767 252.964L84.7122 252.442C80.8783 252.299 78.0214 254.183 76.1332 256.092L75.7839 258.13L80.4235 255.691L85.063 258.13Z" stroke="#1A2E35" stroke-width="1.33333" stroke-miterlimit="10"/>
<path d="M24.3459 271.777L26.6656 276.478L31.8531 277.231L28.0999 280.89L28.9854 286.057L24.3459 283.617L19.7063 286.057L20.5927 280.89L16.8387 277.231L22.0261 276.478L24.3459 271.777Z" fill="white"/>
<path d="M24.3459 271.777L26.6656 276.478L31.8531 277.231L28.0999 280.89L28.9854 286.057L24.3459 283.617L19.7063 286.057L20.5927 280.89L16.8387 277.231L22.0261 276.478L24.3459 271.777Z" stroke="#1A2E35" stroke-width="1.33333" stroke-miterlimit="10"/>
<path d="M28.9855 286.056L28.0992 280.89L28.6347 280.368C24.8008 280.226 21.944 282.109 20.0557 284.018L19.7065 286.056L24.346 283.617L28.9855 286.056Z" fill="#1A2E35"/>
<path d="M28.9855 286.056L28.0992 280.89L28.6347 280.368C24.8008 280.226 21.944 282.109 20.0557 284.018L19.7065 286.056L24.346 283.617L28.9855 286.056Z" stroke="#1A2E35" stroke-width="1.33333" stroke-miterlimit="10"/>
</g>
<mask id="mask6_19_4599" style="mask-type:luminance" maskUnits="userSpaceOnUse" x="0" y="0" width="583" height="389">
<path d="M0 0.161987H582.076V388.212H0V0.161987Z" fill="white"/>
</mask>
<g mask="url(#mask6_19_4599)">
<path d="M408.932 186.452C404.743 185.443 393.213 182.334 391.625 178.362C389.677 173.494 390.976 165.056 390.976 165.056H383.511C383.511 165.056 384.81 173.494 382.862 178.362C381.274 182.334 369.745 185.443 365.555 186.452C364.663 186.667 364.04 187.464 364.04 188.383C364.04 189.48 364.929 190.37 366.027 190.37H408.46C409.558 190.37 410.447 189.48 410.447 188.383C410.447 187.464 409.824 186.667 408.932 186.452Z" fill="white"/>
<path d="M408.932 186.452C404.743 185.443 393.213 182.334 391.625 178.362C389.677 173.494 390.976 165.056 390.976 165.056H383.511C383.511 165.056 384.81 173.494 382.862 178.362C381.274 182.334 369.745 185.443 365.555 186.452C364.663 186.667 364.04 187.464 364.04 188.383C364.04 189.48 364.929 190.37 366.027 190.37H408.46C409.558 190.37 410.447 189.48 410.447 188.383C410.447 187.464 409.824 186.667 408.932 186.452Z" stroke="#1A2E35" stroke-width="1.33333" stroke-miterlimit="10"/>
<path d="M404.95 186.452C401.351 185.443 391.447 182.334 390.081 178.362C388.409 173.494 389.524 165.056 389.524 165.056H387.872C387.872 165.056 386.757 173.494 388.43 178.362C389.795 182.334 397.794 185.443 401.393 186.452C402.16 186.667 402.695 187.464 402.695 188.383C402.695 189.48 401.931 190.37 400.988 190.37H404.545C405.488 190.37 406.252 189.48 406.252 188.383C406.252 187.464 405.717 186.667 404.95 186.452Z" fill="#1A2E35"/>
<path d="M404.95 186.452C401.351 185.443 391.447 182.334 390.081 178.362C388.409 173.494 389.524 165.056 389.524 165.056H387.872C387.872 165.056 386.757 173.494 388.43 178.362C389.795 182.334 397.794 185.443 401.393 186.452C402.16 186.667 402.695 187.464 402.695 188.383C402.695 189.48 401.931 190.37 400.988 190.37H404.545C405.488 190.37 406.252 189.48 406.252 188.383C406.252 187.464 405.717 186.667 404.95 186.452Z" stroke="#1A2E35" stroke-width="1.33333" stroke-miterlimit="10"/>
<path d="M387.244 172.099C388.371 172.099 389.476 171.853 390.554 171.404C390.524 167.995 390.976 165.056 390.976 165.056H383.511C383.511 165.056 383.963 167.995 383.934 171.404C385.012 171.853 386.117 172.099 387.244 172.099Z" fill="#1A2E35"/>
<path d="M387.244 172.099C388.371 172.099 389.476 171.853 390.554 171.404C390.524 167.995 390.976 165.056 390.976 165.056H383.511C383.511 165.056 383.963 167.995 383.934 171.404C385.012 171.853 386.117 172.099 387.244 172.099Z" stroke="#1A2E35" stroke-width="1.33333" stroke-miterlimit="10"/>
<path d="M371.848 153.622C367.928 153.622 362.872 152.723 358.557 149.046C350.403 142.101 350.309 128.815 350.309 128.252V126.201H373.007V130.303H354.537C354.887 133.97 356.212 141.66 361.217 145.924C367.777 151.513 377.054 148.89 377.146 148.863L378.31 152.796C378.088 152.862 375.447 153.622 371.848 153.622Z" fill="white"/>
<path d="M371.848 153.622C367.928 153.622 362.872 152.723 358.557 149.046C350.403 142.101 350.309 128.815 350.309 128.252V126.201H373.007V130.303H354.537C354.887 133.97 356.212 141.66 361.217 145.924C367.777 151.513 377.054 148.89 377.146 148.863L378.31 152.796C378.088 152.862 375.447 153.622 371.848 153.622Z" stroke="#1A2E35" stroke-width="1.33333" stroke-miterlimit="10"/>
<path d="M403.089 153.622C407.009 153.622 412.065 152.723 416.38 149.046C424.533 142.101 424.627 128.815 424.627 128.252V126.201H401.93V130.303H420.4C420.05 133.97 418.725 141.66 413.72 145.924C407.16 151.513 397.883 148.89 397.791 148.863L396.626 152.796C396.848 152.862 399.489 153.622 403.089 153.622Z" fill="white"/>
<path d="M403.089 153.622C407.009 153.622 412.065 152.723 416.38 149.046C424.533 142.101 424.627 128.815 424.627 128.252V126.201H401.93V130.303H420.4C420.05 133.97 418.725 141.66 413.72 145.924C407.16 151.513 397.883 148.89 397.791 148.863L396.626 152.796C396.848 152.862 399.489 153.622 403.089 153.622Z" stroke="#1A2E35" stroke-width="1.33333" stroke-miterlimit="10"/>
<path d="M397.79 148.863L396.626 152.796C396.848 152.862 399.489 153.622 403.089 153.622C403.317 153.622 403.55 153.618 403.786 153.612C404.376 152.255 404.93 150.834 405.448 149.362C401.287 149.85 397.846 148.879 397.79 148.863Z" fill="#1A2E35"/>
<path d="M397.79 148.863L396.626 152.796C396.848 152.862 399.489 153.622 403.089 153.622C403.317 153.622 403.55 153.618 403.786 153.612C404.376 152.255 404.93 150.834 405.448 149.362C401.287 149.85 397.846 148.879 397.79 148.863Z" stroke="#1A2E35" stroke-width="1.33333" stroke-miterlimit="10"/>
<path d="M401.929 130.304H409.6C409.733 128.931 409.831 127.562 409.892 126.202H401.929V130.304Z" fill="#1A2E35"/>
<path d="M401.929 130.304H409.6C409.733 128.931 409.831 127.562 409.892 126.202H401.929V130.304Z" stroke="#1A2E35" stroke-width="1.33333" stroke-miterlimit="10"/>
<path d="M387.244 168.229C398.69 168.229 407.969 143.656 407.969 122.924H366.519C366.519 143.656 375.798 168.229 387.244 168.229Z" fill="white"/>
<path d="M387.244 168.229C398.69 168.229 407.969 143.656 407.969 122.924H366.519C366.519 143.656 375.798 168.229 387.244 168.229Z" stroke="#1A2E35" stroke-width="1.33333" stroke-miterlimit="10"/>
<path d="M407.905 125.78C407.943 124.822 407.969 123.868 407.969 122.925H366.519C366.519 123.868 366.544 124.822 366.582 125.78H407.905Z" fill="#1A2E35"/>
<path d="M407.905 125.78C407.943 124.822 407.969 123.868 407.969 122.925H366.519C366.519 123.868 366.544 124.822 366.582 125.78H407.905Z" stroke="#1A2E35" stroke-width="1.33333" stroke-miterlimit="10"/>
<path d="M401.11 122.924C401.11 140.799 393.422 161.731 383.512 164.689C384.29 164.921 385.082 165.057 385.885 165.057C396.916 165.057 405.857 142.204 405.857 122.924H401.11Z" fill="#1A2E35"/>
<path d="M401.11 122.924C401.11 140.799 393.422 161.731 383.512 164.689C384.29 164.921 385.082 165.057 385.885 165.057C396.916 165.057 405.857 142.204 405.857 122.924H401.11Z" stroke="#1A2E35" stroke-width="1.33333" stroke-miterlimit="10"/>
<path d="M407.391 123.924H367.096C366.085 123.924 365.265 123.103 365.265 122.092C365.265 121.081 366.085 120.26 367.096 120.26H407.391C408.402 120.26 409.222 121.081 409.222 122.092C409.222 123.103 408.402 123.924 407.391 123.924Z" fill="white"/>
<path d="M407.391 123.924H367.096C366.085 123.924 365.265 123.103 365.265 122.092C365.265 121.081 366.085 120.26 367.096 120.26H407.391C408.402 120.26 409.222 121.081 409.222 122.092C409.222 123.103 408.402 123.924 407.391 123.924Z" stroke="#1A2E35" stroke-width="1.33333" stroke-miterlimit="10"/>
</g>
<mask id="mask7_19_4599" style="mask-type:luminance" maskUnits="userSpaceOnUse" x="0" y="0" width="583" height="389">
<path d="M0 0.161987H582.076V388.212H0V0.161987Z" fill="white"/>
</mask>
<g mask="url(#mask7_19_4599)">
<path d="M217.843 154.896C217.843 172.529 206.868 186.823 193.328 186.823C179.789 186.823 168.812 172.529 168.812 154.896C168.812 137.263 179.789 122.969 193.328 122.969C206.868 122.969 217.843 137.263 217.843 154.896Z" fill="white"/>
<path d="M217.843 154.896C217.843 172.529 206.868 186.823 193.328 186.823C179.789 186.823 168.812 172.529 168.812 154.896C168.812 137.263 179.789 122.969 193.328 122.969C206.868 122.969 217.843 137.263 217.843 154.896Z" stroke="#1A2E35" stroke-width="1.33333" stroke-miterlimit="10"/>
<path d="M211.687 154.896C211.687 168.101 203.468 178.806 193.328 178.806C183.188 178.806 174.968 168.101 174.968 154.896C174.968 141.69 183.188 130.986 193.328 130.986C203.468 130.986 211.687 141.69 211.687 154.896Z" fill="white"/>
<path d="M211.687 154.896C211.687 168.101 203.468 178.806 193.328 178.806C183.188 178.806 174.968 168.101 174.968 154.896C174.968 141.69 183.188 130.986 193.328 130.986C203.468 130.986 211.687 141.69 211.687 154.896Z" stroke="#1A2E35" stroke-width="1.33333" stroke-miterlimit="10"/>
<path d="M176.911 154.896C176.911 142.115 184.611 131.677 194.299 131.02C193.977 130.997 193.653 130.986 193.328 130.986C183.189 130.986 174.968 141.69 174.968 154.896C174.968 168.101 183.189 178.806 193.328 178.806C193.653 178.806 193.977 178.793 194.299 178.772C184.611 178.114 176.911 167.677 176.911 154.896Z" fill="#1A2E35"/>
<path d="M176.911 154.896C176.911 142.115 184.611 131.677 194.299 131.02C193.977 130.997 193.653 130.986 193.328 130.986C183.189 130.986 174.968 141.69 174.968 154.896C174.968 168.101 183.189 178.806 193.328 178.806C193.653 178.806 193.977 178.793 194.299 178.772C184.611 178.114 176.911 167.677 176.911 154.896Z" stroke="#1A2E35" stroke-width="1.33333" stroke-miterlimit="10"/>
<path d="M199.544 122.969H193.328C206.867 122.969 217.843 137.263 217.843 154.896C217.843 172.529 206.867 186.823 193.328 186.823H199.544C213.083 186.823 224.059 172.529 224.059 154.896C224.059 137.263 213.083 122.969 199.544 122.969Z" fill="#1A2E35"/>
<path d="M199.544 122.969H193.328C206.867 122.969 217.843 137.263 217.843 154.896C217.843 172.529 206.867 186.823 193.328 186.823H199.544C213.083 186.823 224.059 172.529 224.059 154.896C224.059 137.263 213.083 122.969 199.544 122.969Z" stroke="#1A2E35" stroke-width="1.33333" stroke-miterlimit="10"/>
<path d="M203.051 125.353H208.24" stroke="white" stroke-width="1.33333" stroke-miterlimit="10"/>
<path d="M206.734 128.031H212.258" stroke="white" stroke-width="1.33333" stroke-miterlimit="10"/>
<path d="M210.249 131.379H215.438" stroke="white" stroke-width="1.33333" stroke-miterlimit="10"/>
<path d="M212.927 135.062H215.773" stroke="white" stroke-width="1.33333" stroke-miterlimit="10"/>
<path d="M220.125 138.075H215.438" stroke="white" stroke-width="1.33333" stroke-miterlimit="10"/>
<path d="M217.112 143.097H221.129" stroke="white" stroke-width="1.33333" stroke-miterlimit="10"/>
<path d="M223.306 147.951H218.619" stroke="white" stroke-width="1.33333" stroke-miterlimit="10"/>
<path d="M223.975 152.639H219.958" stroke="white" stroke-width="1.33333" stroke-miterlimit="10"/>
<path d="M223.975 159.669H218.786" stroke="white" stroke-width="1.33333" stroke-miterlimit="10"/>
<path d="M216.443 166.867H219.121" stroke="white" stroke-width="1.33333" stroke-miterlimit="10"/>
<path d="M211.253 177.078H215.606" stroke="white" stroke-width="1.33333" stroke-miterlimit="10"/>
<path d="M208.742 179.924H214.099" stroke="white" stroke-width="1.33333" stroke-miterlimit="10"/>
<path d="M206.064 182.77H211.253" stroke="white" stroke-width="1.33333" stroke-miterlimit="10"/>
<path d="M201.879 184.946H207.403" stroke="white" stroke-width="1.33333" stroke-miterlimit="10"/>
<path d="M193.795 172.213V168.856C191.668 168.759 190.079 167.965 189.025 166.473C187.973 164.981 187.404 162.754 187.322 159.794L191.689 158.927C191.73 160.131 191.838 161.136 192.014 161.942C192.189 162.749 192.453 163.35 192.803 163.747C193.154 164.144 193.608 164.343 194.166 164.343C194.806 164.343 195.244 164.102 195.483 163.621C195.719 163.14 195.839 162.586 195.839 161.96C195.839 160.732 195.596 159.703 195.111 158.873C194.626 158.043 193.96 157.207 193.113 156.364L190.481 153.729C189.882 153.078 189.345 152.417 188.87 151.743C188.395 151.069 188.019 150.299 187.74 149.432C187.462 148.566 187.322 147.543 187.322 146.363C187.322 144.101 187.874 142.338 188.979 141.074C190.083 139.811 191.565 139.095 193.423 138.926V135.713H194.91V138.926C196.024 138.999 196.938 139.293 197.65 139.811C198.363 140.329 198.904 140.979 199.276 141.76C199.648 142.543 199.916 143.398 200.081 144.324C200.246 145.251 200.349 146.147 200.391 147.013L195.962 147.771C195.941 146.881 195.88 146.093 195.777 145.407C195.673 144.721 195.487 144.186 195.219 143.8C194.95 143.416 194.538 143.235 193.981 143.258C193.403 143.283 192.963 143.548 192.665 144.053C192.365 144.558 192.215 145.124 192.215 145.75C192.215 146.857 192.443 147.748 192.897 148.422C193.351 149.095 193.867 149.745 194.445 150.37L197.015 152.97C197.697 153.692 198.326 154.475 198.904 155.317C199.482 156.159 199.947 157.092 200.297 158.115C200.649 159.138 200.824 160.312 200.824 161.635C200.824 162.911 200.602 164.072 200.159 165.119C199.715 166.166 199.074 167.014 198.238 167.664C197.403 168.314 196.416 168.699 195.281 168.819V172.213H193.795Z" fill="#1A2E35"/>
<path d="M193.795 172.213V168.856C191.668 168.759 190.079 167.965 189.025 166.473C187.973 164.981 187.404 162.754 187.322 159.794L191.689 158.927C191.73 160.131 191.838 161.136 192.014 161.942C192.189 162.749 192.453 163.35 192.803 163.747C193.154 164.144 193.608 164.343 194.166 164.343C194.806 164.343 195.244 164.102 195.483 163.621C195.719 163.14 195.839 162.586 195.839 161.96C195.839 160.732 195.596 159.703 195.111 158.873C194.626 158.043 193.96 157.207 193.113 156.364L190.481 153.729C189.882 153.078 189.345 152.417 188.87 151.743C188.395 151.069 188.019 150.299 187.74 149.432C187.462 148.566 187.322 147.543 187.322 146.363C187.322 144.101 187.874 142.338 188.979 141.074C190.083 139.811 191.565 139.095 193.423 138.926V135.713H194.91V138.926C196.024 138.999 196.938 139.293 197.65 139.811C198.363 140.329 198.904 140.979 199.276 141.76C199.648 142.543 199.916 143.398 200.081 144.324C200.246 145.251 200.349 146.147 200.391 147.013L195.962 147.771C195.941 146.881 195.88 146.093 195.777 145.407C195.673 144.721 195.487 144.186 195.219 143.8C194.95 143.416 194.538 143.235 193.981 143.258C193.403 143.283 192.963 143.548 192.665 144.053C192.365 144.558 192.215 145.124 192.215 145.75C192.215 146.857 192.443 147.748 192.897 148.422C193.351 149.095 193.867 149.745 194.445 150.37L197.015 152.97C197.697 153.692 198.326 154.475 198.904 155.317C199.482 156.159 199.947 157.092 200.297 158.115C200.649 159.138 200.824 160.312 200.824 161.635C200.824 162.911 200.602 164.072 200.159 165.119C199.715 166.166 199.074 167.014 198.238 167.664C197.403 168.314 196.416 168.699 195.281 168.819V172.213H193.795Z" stroke="#1A2E35" stroke-width="1.33333" stroke-miterlimit="10"/>
<path d="M192.687 172.213V168.856C190.56 168.759 188.971 167.965 187.917 166.473C186.864 164.981 186.296 162.754 186.214 159.794L190.581 158.927C190.621 160.131 190.73 161.136 190.906 161.942C191.081 162.749 191.345 163.35 191.696 163.747C192.046 164.144 192.5 164.343 193.058 164.343C193.698 164.343 194.136 164.102 194.375 163.621C194.611 163.14 194.731 162.586 194.731 161.96C194.731 160.732 194.488 159.703 194.003 158.873C193.518 158.043 192.852 157.207 192.005 156.364L189.373 153.729C188.774 153.078 188.237 152.417 187.762 151.743C187.287 151.069 186.911 150.299 186.632 149.432C186.354 148.566 186.214 147.543 186.214 146.363C186.214 144.101 186.767 142.338 187.871 141.074C188.975 139.811 190.457 139.095 192.315 138.926V135.713H193.802V138.926C194.916 138.999 195.83 139.293 196.542 139.811C197.255 140.329 197.796 140.979 198.168 141.76C198.54 142.543 198.808 143.398 198.973 144.324C199.138 145.251 199.242 146.147 199.283 147.013L194.854 147.771C194.833 146.881 194.771 146.093 194.669 145.407C194.565 144.721 194.379 144.186 194.111 143.8C193.842 143.416 193.43 143.235 192.873 143.258C192.294 143.283 191.855 143.548 191.557 144.053C191.256 144.558 191.107 145.124 191.107 145.75C191.107 146.857 191.335 147.748 191.789 148.422C192.243 149.095 192.759 149.745 193.337 150.37L195.907 152.97C196.589 153.692 197.218 154.475 197.796 155.317C198.374 156.159 198.839 157.092 199.19 158.115C199.541 159.138 199.717 160.312 199.717 161.635C199.717 162.911 199.495 164.072 199.051 165.119C198.607 166.166 197.966 167.014 197.131 167.664C196.295 168.314 195.308 168.699 194.173 168.819V172.213H192.687Z" fill="white"/>
<path d="M192.687 172.213V168.856C190.56 168.759 188.971 167.965 187.917 166.473C186.864 164.981 186.296 162.754 186.214 159.794L190.581 158.927C190.621 160.131 190.73 161.136 190.906 161.942C191.081 162.749 191.345 163.35 191.696 163.747C192.046 164.144 192.5 164.343 193.058 164.343C193.698 164.343 194.136 164.102 194.375 163.621C194.611 163.14 194.731 162.586 194.731 161.96C194.731 160.732 194.488 159.703 194.003 158.873C193.518 158.043 192.852 157.207 192.005 156.364L189.373 153.729C188.774 153.078 188.237 152.417 187.762 151.743C187.287 151.069 186.911 150.299 186.632 149.432C186.354 148.566 186.214 147.543 186.214 146.363C186.214 144.101 186.767 142.338 187.871 141.074C188.975 139.811 190.457 139.095 192.315 138.926V135.713H193.802V138.926C194.916 138.999 195.83 139.293 196.542 139.811C197.255 140.329 197.796 140.979 198.168 141.76C198.54 142.543 198.808 143.398 198.973 144.324C199.138 145.251 199.242 146.147 199.283 147.013L194.854 147.771C194.833 146.881 194.771 146.093 194.669 145.407C194.565 144.721 194.379 144.186 194.111 143.8C193.842 143.416 193.43 143.235 192.873 143.258C192.294 143.283 191.855 143.548 191.557 144.053C191.256 144.558 191.107 145.124 191.107 145.75C191.107 146.857 191.335 147.748 191.789 148.422C192.243 149.095 192.759 149.745 193.337 150.37L195.907 152.97C196.589 153.692 197.218 154.475 197.796 155.317C198.374 156.159 198.839 157.092 199.19 158.115C199.541 159.138 199.717 160.312 199.717 161.635C199.717 162.911 199.495 164.072 199.051 165.119C198.607 166.166 197.966 167.014 197.131 167.664C196.295 168.314 195.308 168.699 194.173 168.819V172.213H192.687Z" stroke="#1A2E35" stroke-width="1.33333" stroke-miterlimit="10"/>
<path d="M174.945 130.567C171.308 129.777 170.668 129.138 169.879 125.501C169.09 129.138 168.45 129.777 164.813 130.567C168.45 131.356 169.09 131.996 169.879 135.632C170.668 131.996 171.308 131.356 174.945 130.567Z" fill="white"/>
<path d="M174.945 130.567C171.308 129.777 170.668 129.138 169.879 125.501C169.09 129.138 168.45 129.777 164.813 130.567C168.45 131.356 169.09 131.996 169.879 135.632C170.668 131.996 171.308 131.356 174.945 130.567Z" stroke="#1A2E35" stroke-width="1.33333" stroke-miterlimit="10"/>
<path d="M174.945 130.567C171.308 129.777 170.668 129.138 169.879 125.501C169.09 129.138 168.45 129.777 164.813 130.567C168.45 131.356 169.09 131.996 169.879 135.632C170.668 131.996 171.308 131.356 174.945 130.567Z" fill="white"/>
<path d="M174.945 130.567C171.308 129.777 170.668 129.138 169.879 125.501C169.09 129.138 168.45 129.777 164.813 130.567C168.45 131.356 169.09 131.996 169.879 135.632C170.668 131.996 171.308 131.356 174.945 130.567Z" stroke="#1A2E35" stroke-width="1.33333" stroke-miterlimit="10"/>
<path d="M184.955 127.356C180.904 126.476 180.191 125.764 179.312 121.713C178.433 125.764 177.721 126.476 173.669 127.356C177.721 128.235 178.433 128.947 179.312 132.999C180.191 128.947 180.904 128.235 184.955 127.356Z" fill="white"/>
<path d="M184.955 127.356C180.904 126.476 180.191 125.764 179.312 121.713C178.433 125.764 177.721 126.476 173.669 127.356C177.721 128.235 178.433 128.947 179.312 132.999C180.191 128.947 180.904 128.235 184.955 127.356Z" stroke="#1A2E35" stroke-width="1.33333" stroke-miterlimit="10"/>
<path d="M184.955 127.356C180.904 126.476 180.191 125.764 179.312 121.713C178.433 125.764 177.721 126.476 173.669 127.356C177.721 128.235 178.433 128.947 179.312 132.999C180.191 128.947 180.904 128.235 184.955 127.356Z" fill="white"/>
<path d="M184.955 127.356C180.904 126.476 180.191 125.764 179.312 121.713C178.433 125.764 177.721 126.476 173.669 127.356C177.721 128.235 178.433 128.947 179.312 132.999C180.191 128.947 180.904 128.235 184.955 127.356Z" stroke="#1A2E35" stroke-width="1.33333" stroke-miterlimit="10"/>
<path d="M201.74 114.015C197.688 113.136 196.975 112.424 196.097 108.372C195.217 112.424 194.505 113.136 190.453 114.015C194.505 114.895 195.217 115.607 196.097 119.658C196.975 115.607 197.688 114.895 201.74 114.015Z" fill="white"/>
<path d="M201.74 114.015C197.688 113.136 196.975 112.424 196.097 108.372C195.217 112.424 194.505 113.136 190.453 114.015C194.505 114.895 195.217 115.607 196.097 119.658C196.975 115.607 197.688 114.895 201.74 114.015Z" stroke="#1A2E35" stroke-width="1.33333" stroke-miterlimit="10"/>
<path d="M201.74 114.015C197.688 113.136 196.975 112.424 196.097 108.372C195.217 112.424 194.505 113.136 190.453 114.015C194.505 114.895 195.217 115.607 196.097 119.658C196.975 115.607 197.688 114.895 201.74 114.015Z" fill="white"/>
<path d="M201.74 114.015C197.688 113.136 196.975 112.424 196.097 108.372C195.217 112.424 194.505 113.136 190.453 114.015C194.505 114.895 195.217 115.607 196.097 119.658C196.975 115.607 197.688 114.895 201.74 114.015Z" stroke="#1A2E35" stroke-width="1.33333" stroke-miterlimit="10"/>
<path d="M239.699 156.234C237.215 155.694 236.778 155.258 236.239 152.773C235.699 155.258 235.262 155.694 232.778 156.234C235.262 156.773 235.699 157.21 236.239 159.695C236.778 157.21 237.215 156.773 239.699 156.234Z" fill="white"/>
<path d="M239.699 156.234C237.215 155.694 236.778 155.258 236.239 152.773C235.699 155.258 235.262 155.694 232.778 156.234C235.262 156.773 235.699 157.21 236.239 159.695C236.778 157.21 237.215 156.773 239.699 156.234Z" stroke="#1A2E35" stroke-width="1.33333" stroke-miterlimit="10"/>
<path d="M239.699 156.234C237.215 155.694 236.778 155.258 236.239 152.773C235.699 155.258 235.262 155.694 232.778 156.234C235.262 156.773 235.699 157.21 236.239 159.695C236.778 157.21 237.215 156.773 239.699 156.234Z" fill="white"/>
<path d="M239.699 156.234C237.215 155.694 236.778 155.258 236.239 152.773C235.699 155.258 235.262 155.694 232.778 156.234C235.262 156.773 235.699 157.21 236.239 159.695C236.778 157.21 237.215 156.773 239.699 156.234Z" stroke="#1A2E35" stroke-width="1.33333" stroke-miterlimit="10"/>
<path d="M167.028 168.346C164.544 167.806 164.107 167.37 163.567 164.885C163.028 167.37 162.591 167.806 160.107 168.346C162.591 168.885 163.028 169.322 163.567 171.807C164.107 169.322 164.544 168.885 167.028 168.346Z" fill="white"/>
<path d="M167.028 168.346C164.544 167.806 164.107 167.37 163.567 164.885C163.028 167.37 162.591 167.806 160.107 168.346C162.591 168.885 163.028 169.322 163.567 171.807C164.107 169.322 164.544 168.885 167.028 168.346Z" stroke="#1A2E35" stroke-width="1.33333" stroke-miterlimit="10"/>
<path d="M167.028 168.346C164.544 167.806 164.107 167.37 163.567 164.885C163.028 167.37 162.591 167.806 160.107 168.346C162.591 168.885 163.028 169.322 163.567 171.807C164.107 169.322 164.544 168.885 167.028 168.346Z" fill="white"/>
<path d="M167.028 168.346C164.544 167.806 164.107 167.37 163.567 164.885C163.028 167.37 162.591 167.806 160.107 168.346C162.591 168.885 163.028 169.322 163.567 171.807C164.107 169.322 164.544 168.885 167.028 168.346Z" stroke="#1A2E35" stroke-width="1.33333" stroke-miterlimit="10"/>
<path d="M203.124 187.725C199.073 186.846 198.36 186.133 197.481 182.082C196.602 186.133 195.889 186.846 191.837 187.725C195.889 188.604 196.602 189.317 197.481 193.368C198.36 189.317 199.073 188.604 203.124 187.725Z" fill="white"/>
<path d="M203.124 187.725C199.073 186.846 198.36 186.133 197.481 182.082C196.602 186.133 195.889 186.846 191.837 187.725C195.889 188.604 196.602 189.317 197.481 193.368C198.36 189.317 199.073 188.604 203.124 187.725Z" stroke="#1A2E35" stroke-width="1.33333" stroke-miterlimit="10"/>
<path d="M203.124 187.725C199.073 186.846 198.36 186.133 197.481 182.082C196.602 186.133 195.889 186.846 191.837 187.725C195.889 188.604 196.602 189.317 197.481 193.368C198.36 189.317 199.073 188.604 203.124 187.725Z" fill="white"/>
<path d="M203.124 187.725C199.073 186.846 198.36 186.133 197.481 182.082C196.602 186.133 195.889 186.846 191.837 187.725C195.889 188.604 196.602 189.317 197.481 193.368C198.36 189.317 199.073 188.604 203.124 187.725Z" stroke="#1A2E35" stroke-width="1.33333" stroke-miterlimit="10"/>
</g>
<path d="M546.954 92.0688H559.205" stroke="#1A2E35" stroke-width="1.33333" stroke-miterlimit="10"/>
<path d="M130.653 92.0688H538.935" stroke="#1A2E35" stroke-width="1.33333" stroke-miterlimit="10"/>
<path d="M15.7836 92.0688H121.967" stroke="#1A2E35" stroke-width="1.33333" stroke-miterlimit="10"/>
<path d="M503.52 225.543H559.206" stroke="#1A2E35" stroke-width="1.33333" stroke-miterlimit="10"/>
<path d="M37.1028 225.543H495.501" stroke="#1A2E35" stroke-width="1.33333" stroke-miterlimit="10"/>
<path d="M15.7836 225.543H27.7479" stroke="#1A2E35" stroke-width="1.33333" stroke-miterlimit="10"/>
<path d="M250.265 369.836H559.205" stroke="#1A2E35" stroke-width="1.33333" stroke-miterlimit="10"/>
<path d="M15.7836 369.836H241.578" stroke="#1A2E35" stroke-width="1.33333" stroke-miterlimit="10"/>
<mask id="mask8_19_4599" style="mask-type:luminance" maskUnits="userSpaceOnUse" x="0" y="0" width="583" height="389">
<path d="M0 0.161987H582.076V388.212H0V0.161987Z" fill="white"/>
</mask>
<g mask="url(#mask8_19_4599)">
<path d="M462.418 333.498H438.938V329.75V329.357V318.01H462.418V329.357V329.75V333.498ZM462.418 353.624H438.938V337.97H462.418V353.624ZM438.938 293.019V289.271V277.758H462.418V289.271V293.019H438.938ZM438.938 313.144V304.427V297.883H462.418V304.427V313.144H438.938ZM438.938 257.405H462.418V263.948V264.34V272.893H438.938V264.34V263.948V257.405ZM438.938 237.279H462.418V252.932H438.938V237.279ZM464.654 221.625C463.419 221.625 462.418 222.626 462.418 223.862V232.806H438.938V223.862C438.938 222.626 437.936 221.625 436.702 221.625C435.466 221.625 434.465 222.626 434.465 223.862V263.948V264.34V289.271V304.427V329.357V329.75V369.836H438.938V358.096H462.418V369.836H466.89V329.75V329.357V304.427V289.271V264.34V263.948V223.862C466.89 222.626 465.889 221.625 464.654 221.625Z" fill="#7EE66C"/>
<path d="M462.418 333.498H438.938V329.75V329.357V318.01H462.418V329.357V329.75V333.498ZM462.418 353.624H438.938V337.97H462.418V353.624ZM438.938 293.019V289.271V277.758H462.418V289.271V293.019H438.938ZM438.938 313.144V304.427V297.883H462.418V304.427V313.144H438.938ZM438.938 257.405H462.418V263.948V264.34V272.893H438.938V264.34V263.948V257.405ZM438.938 237.279H462.418V252.932H438.938V237.279ZM464.654 221.625C463.419 221.625 462.418 222.626 462.418 223.862V232.806H438.938V223.862C438.938 222.626 437.936 221.625 436.702 221.625C435.466 221.625 434.465 222.626 434.465 223.862V263.948V264.34V289.271V304.427V329.357V329.75V369.836H438.938V358.096H462.418V369.836H466.89V329.75V329.357V304.427V289.271V264.34V263.948V223.862C466.89 222.626 465.889 221.625 464.654 221.625Z" stroke="#1A2E35" stroke-width="1.33333" stroke-miterlimit="10"/>
<path d="M297.399 200.859H273.918V197.111V196.718V185.371H297.399V196.718V197.111V200.859ZM297.399 220.985H273.918V205.331H297.399V220.985ZM273.918 160.38V156.632V145.119H297.399V156.632V160.38H273.918ZM273.918 180.506V171.788V165.245H297.399V171.788V180.506H273.918ZM273.918 124.766H297.399V131.309V131.702V140.254H273.918V131.702V131.309V124.766ZM273.918 104.64H297.399V120.293H273.918V104.64ZM299.635 88.9862C298.4 88.9862 297.399 89.9874 297.399 91.2229V100.167H273.918V91.2229C273.918 89.9874 272.917 88.9862 271.683 88.9862C270.447 88.9862 269.446 89.9874 269.446 91.2229V131.309V131.702V156.632V171.788V196.718V197.111V237.197H273.918V225.457H297.399V237.197H301.871V197.111V196.718V171.788V156.632V131.702V131.309V91.2229C301.871 89.9874 300.87 88.9862 299.635 88.9862Z" fill="#7EE66C"/>
<path d="M297.399 200.859H273.918V197.111V196.718V185.371H297.399V196.718V197.111V200.859ZM297.399 220.985H273.918V205.331H297.399V220.985ZM273.918 160.38V156.632V145.119H297.399V156.632V160.38H273.918ZM273.918 180.506V171.788V165.245H297.399V171.788V180.506H273.918ZM273.918 124.766H297.399V131.309V131.702V140.254H273.918V131.702V131.309V124.766ZM273.918 104.64H297.399V120.293H273.918V104.64ZM299.635 88.9862C298.4 88.9862 297.399 89.9874 297.399 91.2229V100.167H273.918V91.2229C273.918 89.9874 272.917 88.9862 271.683 88.9862C270.447 88.9862 269.446 89.9874 269.446 91.2229V131.309V131.702V156.632V171.788V196.718V197.111V237.197H273.918V225.457H297.399V237.197H301.871V197.111V196.718V171.788V156.632V131.702V131.309V91.2229C301.871 89.9874 300.87 88.9862 299.635 88.9862Z" stroke="#1A2E35" stroke-width="1.33333" stroke-miterlimit="10"/>
<path d="M131.348 333.498H107.868V329.75V329.357V318.01H131.348V329.357V329.75V333.498ZM131.348 353.624H107.868V337.97H131.348V353.624ZM107.868 293.019V289.271V277.758H131.348V289.271V293.019H107.868ZM107.868 313.144V304.427V297.883H131.348V304.427V313.144H107.868ZM107.868 257.405H131.348V263.948V264.34V272.893H107.868V264.34V263.948V257.405ZM107.868 237.279H131.348V252.932H107.868V237.279ZM133.584 221.625C132.349 221.625 131.348 222.626 131.348 223.862V232.806H107.868V223.862C107.868 222.626 106.867 221.625 105.632 221.625C104.396 221.625 103.395 222.626 103.395 223.862V263.948V264.34V289.271V304.427V329.357V329.75V369.836H107.868V358.096H131.348V369.836H135.821V329.75V329.357V304.427V289.271V264.34V263.948V223.862C135.821 222.626 134.82 221.625 133.584 221.625Z" fill="#7EE66C"/>
<path d="M131.348 333.498H107.868V329.75V329.357V318.01H131.348V329.357V329.75V333.498ZM131.348 353.624H107.868V337.97H131.348V353.624ZM107.868 293.019V289.271V277.758H131.348V289.271V293.019H107.868ZM107.868 313.144V304.427V297.883H131.348V304.427V313.144H107.868ZM107.868 257.405H131.348V263.948V264.34V272.893H107.868V264.34V263.948V257.405ZM107.868 237.279H131.348V252.932H107.868V237.279ZM133.584 221.625C132.349 221.625 131.348 222.626 131.348 223.862V232.806H107.868V223.862C107.868 222.626 106.867 221.625 105.632 221.625C104.396 221.625 103.395 222.626 103.395 223.862V263.948V264.34V289.271V304.427V329.357V329.75V369.836H107.868V358.096H131.348V369.836H135.821V329.75V329.357V304.427V289.271V264.34V263.948V223.862C135.821 222.626 134.82 221.625 133.584 221.625Z" stroke="#1A2E35" stroke-width="1.33333" stroke-miterlimit="10"/>
</g>
<mask id="mask9_19_4599" style="mask-type:luminance" maskUnits="userSpaceOnUse" x="0" y="0" width="583" height="389">
<path d="M0 0.161987H582.076V388.212H0V0.161987Z" fill="white"/>
</mask>
<g mask="url(#mask9_19_4599)">
<path d="M145.273 276.857L147.349 343.93C147.764 357.3 155.703 369.287 167.852 374.885C182.879 381.81 200.7 377.363 210.713 364.19L253.839 307.45L145.273 276.857Z" fill="#1A2E35"/>
<path d="M145.273 276.857L147.349 343.93C147.764 357.3 155.703 369.287 167.852 374.885C182.879 381.81 200.7 377.363 210.713 364.19L253.839 307.45L145.273 276.857Z" stroke="#1A2E35" stroke-width="1.33333" stroke-miterlimit="10" stroke-linecap="round" stroke-linejoin="round"/>
<path d="M425.765 276.857L423.688 343.93C423.273 357.3 415.335 369.287 403.185 374.885C388.158 381.81 370.337 377.363 360.325 364.19L317.198 307.45L425.765 276.857Z" fill="#1A2E35"/>
<path d="M425.765 276.857L423.688 343.93C423.273 357.3 415.335 369.287 403.185 374.885C388.158 381.81 370.337 377.363 360.325 364.19L317.198 307.45L425.765 276.857Z" stroke="#1A2E35" stroke-width="1.33333" stroke-miterlimit="10" stroke-linecap="round" stroke-linejoin="round"/>
<path d="M367.714 218.272V218.266H203.864C171.505 218.266 145.272 244.498 145.272 276.857C145.272 309.216 171.505 335.449 203.864 335.449C225.01 335.449 243.536 324.243 253.839 307.449H317.478C327.781 324.243 346.306 335.449 367.453 335.449C399.812 335.449 426.045 309.216 426.045 276.857C426.045 244.586 399.952 218.413 367.714 218.272Z" fill="#6E6E6E"/>
<path d="M367.714 218.272V218.266H203.864C171.505 218.266 145.272 244.498 145.272 276.857C145.272 309.216 171.505 335.449 203.864 335.449C225.01 335.449 243.536 324.243 253.839 307.449H317.478C327.781 324.243 346.306 335.449 367.453 335.449C399.812 335.449 426.045 309.216 426.045 276.857C426.045 244.586 399.952 218.413 367.714 218.272Z" stroke="#1A2E35" stroke-width="1.33333" stroke-miterlimit="10" stroke-linecap="round" stroke-linejoin="round"/>
<path d="M232.165 275.461C232.165 258.147 218.128 244.11 200.813 244.11C183.498 244.11 169.462 258.147 169.462 275.461C169.462 292.776 183.498 306.813 200.813 306.813C218.128 306.813 232.165 292.776 232.165 275.461Z" fill="#1A2E35"/>
<path d="M232.165 275.461C232.165 258.147 218.128 244.11 200.813 244.11C183.498 244.11 169.462 258.147 169.462 275.461C169.462 292.776 183.498 306.813 200.813 306.813C218.128 306.813 232.165 292.776 232.165 275.461Z" stroke="#1A2E35" stroke-width="1.33333" stroke-miterlimit="10" stroke-linecap="round" stroke-linejoin="round"/>
<path d="M231.742 263.212H213.062V244.533C213.062 242.416 211.347 240.701 209.231 240.701H192.396C190.28 240.701 188.565 242.416 188.565 244.533V263.212H169.884C167.768 263.212 166.053 264.928 166.053 267.043V283.879C166.053 285.995 167.768 287.71 169.884 287.71H188.565V306.39C188.565 308.506 190.28 310.222 192.396 310.222H209.231C211.347 310.222 213.062 308.506 213.062 306.39V287.71H231.742C233.858 287.71 235.573 285.995 235.573 283.879V267.043C235.573 264.928 233.858 263.212 231.742 263.212Z" fill="#7EE66C"/>
<path d="M231.742 263.212H213.062V244.533C213.062 242.416 211.347 240.701 209.231 240.701H192.396C190.28 240.701 188.565 242.416 188.565 244.533V263.212H169.884C167.768 263.212 166.053 264.928 166.053 267.043V283.879C166.053 285.995 167.768 287.71 169.884 287.71H188.565V306.39C188.565 308.506 190.28 310.222 192.396 310.222H209.231C211.347 310.222 213.062 308.506 213.062 306.39V287.71H231.742C233.858 287.71 235.573 285.995 235.573 283.879V267.043C235.573 264.928 233.858 263.212 231.742 263.212Z" stroke="#1A2E35" stroke-width="1.33333" stroke-miterlimit="10"/>
<path d="M209.983 275.461C209.983 270.397 205.878 266.292 200.814 266.292C195.749 266.292 191.644 270.397 191.644 275.461C191.644 280.526 195.749 284.631 200.814 284.631C205.878 284.631 209.983 280.526 209.983 275.461Z" fill="#7EE66C"/>
<path d="M209.983 275.461C209.983 270.397 205.878 266.292 200.814 266.292C195.749 266.292 191.644 270.397 191.644 275.461C191.644 280.526 195.749 284.631 200.814 284.631C205.878 284.631 209.983 280.526 209.983 275.461Z" stroke="#1A2E35" stroke-width="1.33333" stroke-miterlimit="10"/>
<path d="M393.65 297.63C405.893 285.386 405.893 265.536 393.65 253.293C381.407 241.049 361.556 241.049 349.313 253.293C337.07 265.536 337.07 285.387 349.313 297.63C361.556 309.873 381.407 309.873 393.65 297.63Z" fill="#1A2E35"/>
<path d="M393.65 297.63C405.893 285.386 405.893 265.536 393.65 253.293C381.407 241.049 361.556 241.049 349.313 253.293C337.07 265.536 337.07 285.387 349.313 297.63C361.556 309.873 381.407 309.873 393.65 297.63Z" stroke="#1A2E35" stroke-width="1.33333" stroke-miterlimit="10" stroke-linecap="round" stroke-linejoin="round"/>
<path d="M402.013 288.67L388.804 275.461L402.013 262.252C403.509 260.756 403.509 258.331 402.013 256.834L390.108 244.93C388.613 243.433 386.187 243.433 384.69 244.93L371.482 258.139L358.273 244.93C356.776 243.433 354.351 243.433 352.855 244.93L340.95 256.834C339.455 258.331 339.455 260.756 340.95 262.252L354.159 275.461L340.95 288.67C339.455 290.166 339.455 292.592 340.95 294.088L352.855 305.993C354.351 307.489 356.776 307.489 358.273 305.993L371.482 292.783L384.69 305.993C386.187 307.489 388.613 307.489 390.108 305.993L402.013 294.088C403.509 292.592 403.509 290.166 402.013 288.67Z" fill="#7EE66C"/>
<path d="M402.013 288.67L388.804 275.461L402.013 262.252C403.509 260.756 403.509 258.331 402.013 256.834L390.108 244.93C388.613 243.433 386.187 243.433 384.69 244.93L371.482 258.139L358.273 244.93C356.776 243.433 354.351 243.433 352.855 244.93L340.95 256.834C339.455 258.331 339.455 260.756 340.95 262.252L354.159 275.461L340.95 288.67C339.455 290.166 339.455 292.592 340.95 294.088L352.855 305.993C354.351 307.489 356.776 307.489 358.273 305.993L371.482 292.783L384.69 305.993C386.187 307.489 388.613 307.489 390.108 305.993L402.013 294.088C403.509 292.592 403.509 290.166 402.013 288.67Z" stroke="#1A2E35" stroke-width="1.33333" stroke-miterlimit="10"/>
<path d="M377.966 281.945C381.547 278.364 381.547 272.558 377.966 268.978C374.385 265.397 368.579 265.397 364.998 268.978C361.417 272.558 361.417 278.364 364.998 281.945C368.579 285.526 374.385 285.526 377.966 281.945Z" fill="#7EE66C"/>
<path d="M377.966 281.945C381.547 278.364 381.547 272.558 377.966 268.978C374.385 265.397 368.579 265.397 364.998 268.978C361.417 272.558 361.417 278.364 364.998 281.945C368.579 285.526 374.385 285.526 377.966 281.945Z" stroke="#1A2E35" stroke-width="1.33333" stroke-miterlimit="10"/>
</g>
<mask id="mask10_19_4599" style="mask-type:luminance" maskUnits="userSpaceOnUse" x="0" y="0" width="583" height="389">
<path d="M0 0.161987H582.076V388.212H0V0.161987Z" fill="white"/>
</mask>
<g mask="url(#mask10_19_4599)">
<path d="M468.852 281.327C468.852 281.327 469.528 281.102 469.978 281.665C470.429 282.228 470.429 282.904 470.429 282.904C470.429 282.904 471.329 284.031 471.442 284.706C471.555 285.382 470.316 288.422 470.316 288.422L473.469 296.418L469.077 288.873C469.077 288.873 467.05 285.269 466.825 284.706C466.6 284.143 466.6 282.228 466.6 281.665C466.6 281.102 466.487 279.864 467.163 280.539C467.838 281.215 468.064 281.777 468.064 281.777V282.228L468.852 281.327Z" fill="white"/>
<path d="M468.852 281.327C468.852 281.327 469.528 281.102 469.978 281.665C470.429 282.228 470.429 282.904 470.429 282.904C470.429 282.904 471.329 284.031 471.442 284.706C471.555 285.382 470.316 288.422 470.316 288.422L473.469 296.418L469.077 288.873C469.077 288.873 467.05 285.269 466.825 284.706C466.6 284.143 466.6 282.228 466.6 281.665C466.6 281.102 466.487 279.864 467.163 280.539C467.838 281.215 468.064 281.777 468.064 281.777V282.228L468.852 281.327Z" stroke="#1A2E35" stroke-width="1.33333" stroke-miterlimit="10" stroke-linecap="round" stroke-linejoin="round"/>
<path d="M430.675 309.819L428.535 309.594C428.535 309.594 426.846 309.143 426.396 309.143C425.946 309.143 424.369 310.044 423.918 310.495C423.467 310.945 422.792 311.17 423.13 311.621C423.467 312.071 425.157 311.509 425.157 311.509L423.693 313.423C423.693 313.423 423.693 314.211 424.481 314.436C425.27 314.662 426.171 314.099 426.171 314.099C426.171 314.099 427.972 314.436 428.31 314.55C428.648 314.662 432.59 312.297 432.59 312.297L430.675 309.819Z" fill="white"/>
<path d="M430.675 309.819L428.535 309.594C428.535 309.594 426.846 309.143 426.396 309.143C425.946 309.143 424.369 310.044 423.918 310.495C423.467 310.945 422.792 311.17 423.13 311.621C423.467 312.071 425.157 311.509 425.157 311.509L423.693 313.423C423.693 313.423 423.693 314.211 424.481 314.436C425.27 314.662 426.171 314.099 426.171 314.099C426.171 314.099 427.972 314.436 428.31 314.55C428.648 314.662 432.59 312.297 432.59 312.297L430.675 309.819Z" stroke="#1A2E35" stroke-width="1.33333" stroke-miterlimit="10" stroke-linecap="round" stroke-linejoin="round"/>
<path d="M442.275 309.256L441.148 336.171C441.148 336.171 441.486 354.078 442.162 357.456C442.837 360.834 443.401 363.763 443.401 363.763L442.837 365.001V366.691C442.837 366.691 438.784 369.506 437.883 370.182C436.981 370.858 436.419 371.195 436.981 371.533C437.545 371.87 445.09 372.321 446.441 372.321C447.793 372.321 448.694 372.209 448.806 371.645C448.919 371.083 448.694 367.028 448.694 367.028C448.694 367.028 449.031 364.325 449.145 363.537C449.256 362.749 448.806 359.483 448.806 357.569C448.806 355.654 449.37 342.703 449.482 340.338C449.595 337.974 451.509 324.798 451.509 324.798C451.509 324.798 455.675 354.866 455.901 356.217C456.126 357.569 458.041 364.1 458.041 364.1V365.452C458.041 365.79 458.716 368.155 458.716 368.155C458.716 368.155 458.716 371.87 459.28 372.209C459.842 372.546 461.982 372.659 462.658 371.87C463.334 371.083 462.545 367.817 462.545 367.817C462.545 367.817 462.771 365.001 462.771 363.875C462.771 362.749 461.982 359.708 461.982 358.92C461.982 358.132 461.082 334.257 461.082 334.257L461.644 309.369L442.387 307.68L442.275 309.256Z" fill="#1A2E35"/>
<path d="M442.275 309.256L441.148 336.171C441.148 336.171 441.486 354.078 442.162 357.456C442.837 360.834 443.401 363.763 443.401 363.763L442.837 365.001V366.691C442.837 366.691 438.784 369.506 437.883 370.182C436.981 370.858 436.419 371.195 436.981 371.533C437.545 371.87 445.09 372.321 446.441 372.321C447.793 372.321 448.694 372.209 448.806 371.645C448.919 371.083 448.694 367.028 448.694 367.028C448.694 367.028 449.031 364.325 449.145 363.537C449.256 362.749 448.806 359.483 448.806 357.569C448.806 355.654 449.37 342.703 449.482 340.338C449.595 337.974 451.509 324.798 451.509 324.798C451.509 324.798 455.675 354.866 455.901 356.217C456.126 357.569 458.041 364.1 458.041 364.1V365.452C458.041 365.79 458.716 368.155 458.716 368.155C458.716 368.155 458.716 371.87 459.28 372.209C459.842 372.546 461.982 372.659 462.658 371.87C463.334 371.083 462.545 367.817 462.545 367.817C462.545 367.817 462.771 365.001 462.771 363.875C462.771 362.749 461.982 359.708 461.982 358.92C461.982 358.132 461.082 334.257 461.082 334.257L461.644 309.369L442.387 307.68L442.275 309.256Z" stroke="#1A2E35" stroke-width="1.33333" stroke-miterlimit="10" stroke-linecap="round" stroke-linejoin="round"/>
<path d="M451.622 276.035C451.622 276.035 442.499 280.089 442.049 281.778C441.599 283.467 441.824 308.468 441.937 309.369C442.049 310.27 447.455 311.509 451.397 311.846C455.338 312.185 460.969 310.72 461.644 309.369C462.32 308.018 463.334 297.207 463.334 297.207L464.01 294.842C464.01 294.842 468.852 300.36 471.104 301.373C473.356 302.387 474.483 300.585 474.258 298.783C474.032 296.981 468.965 287.972 468.176 286.057C467.388 284.143 467.05 280.652 466.15 279.525C465.249 278.399 461.194 275.359 461.194 275.359C461.194 275.359 455.113 273.67 451.622 276.035Z" fill="white"/>
<path d="M451.622 276.035C451.622 276.035 442.499 280.089 442.049 281.778C441.599 283.467 441.824 308.468 441.937 309.369C442.049 310.27 447.455 311.509 451.397 311.846C455.338 312.185 460.969 310.72 461.644 309.369C462.32 308.018 463.334 297.207 463.334 297.207L464.01 294.842C464.01 294.842 468.852 300.36 471.104 301.373C473.356 302.387 474.483 300.585 474.258 298.783C474.032 296.981 468.965 287.972 468.176 286.057C467.388 284.143 467.05 280.652 466.15 279.525C465.249 278.399 461.194 275.359 461.194 275.359C461.194 275.359 455.113 273.67 451.622 276.035Z" stroke="#1A2E35" stroke-width="1.33333" stroke-miterlimit="10" stroke-linecap="round" stroke-linejoin="round"/>
<path d="M446.667 278.737C446.667 278.737 440.585 280.99 440.247 282.679C439.91 284.368 440.022 300.022 440.022 300.022L430.675 309.819L432.139 313.085C432.139 313.085 448.018 303.513 448.243 301.711C448.469 299.909 448.243 285.156 448.243 285.156" fill="white"/>
<path d="M446.667 278.737C446.667 278.737 440.585 280.99 440.247 282.679C439.91 284.368 440.022 300.022 440.022 300.022L430.675 309.819L432.139 313.085C432.139 313.085 448.018 303.513 448.243 301.711C448.469 299.909 448.243 285.156 448.243 285.156" stroke="#1A2E35" stroke-width="1.33333" stroke-miterlimit="10" stroke-linecap="round" stroke-linejoin="round"/>
<path d="M464.01 294.842L465.812 286.058L464.01 294.842Z" fill="white"/>
<path d="M464.01 294.842L465.812 286.058" stroke="#1A2E35" stroke-width="1.33333" stroke-miterlimit="10" stroke-linecap="round" stroke-linejoin="round"/>
<path d="M464.347 293.603L466.825 289.436" stroke="#1A2E35" stroke-width="1.33333" stroke-miterlimit="10" stroke-linecap="round" stroke-linejoin="round"/>
<path d="M458.483 288.797C456.978 291.601 454.732 295.491 452.523 298.219L458.483 288.797Z" fill="white"/>
<path d="M458.483 288.797C456.978 291.601 454.732 295.491 452.523 298.219" stroke="#1A2E35" stroke-width="1.33333" stroke-miterlimit="10" stroke-linecap="round" stroke-linejoin="round"/>
<path d="M460.293 285.269C460.293 285.269 460.014 285.849 459.534 286.791L460.293 285.269Z" fill="white"/>
<path d="M460.293 285.269C460.293 285.269 460.014 285.849 459.534 286.791" stroke="#1A2E35" stroke-width="1.33333" stroke-miterlimit="10" stroke-linecap="round" stroke-linejoin="round"/>
<path d="M453.127 301.329C451.118 302.893 448.267 305.028 446.892 305.653" stroke="#1A2E35" stroke-width="1.33333" stroke-miterlimit="10" stroke-linecap="round" stroke-linejoin="round"/>
<path d="M455.338 299.571C455.338 299.571 454.909 299.921 454.235 300.457" stroke="#1A2E35" stroke-width="1.33333" stroke-miterlimit="10" stroke-linecap="round" stroke-linejoin="round"/>
<path d="M459.505 268.715L459.617 274.008L452.072 275.81L453.536 269.391C453.536 269.391 454.099 267.138 456.464 267.025C458.829 266.913 459.505 268.715 459.505 268.715Z" fill="white"/>
<path d="M459.505 268.715L459.617 274.008L452.072 275.81L453.536 269.391C453.536 269.391 454.099 267.138 456.464 267.025C458.829 266.913 459.505 268.715 459.505 268.715Z" stroke="#1A2E35" stroke-width="1.33333" stroke-miterlimit="10" stroke-linecap="round" stroke-linejoin="round"/>
<path d="M452.523 259.818C452.523 259.818 450.721 261.507 450.721 262.182C450.721 262.858 449.933 264.097 449.594 264.66C449.257 265.223 447.793 265.336 447.906 266.237C448.018 267.138 448.919 267.363 448.919 267.363C448.919 267.363 447.567 273.782 449.594 274.458C451.622 275.133 455 271.53 455 271.53L455.789 268.827C455.789 268.827 458.492 269.503 459.279 269.503C460.068 269.503 462.545 267.25 463.897 265.223C465.248 263.196 462.208 258.691 458.266 257.228C454.325 255.763 451.172 257.79 451.172 258.691C451.172 259.593 452.523 259.818 452.523 259.818Z" fill="white"/>
<path d="M452.523 259.818C452.523 259.818 450.721 261.507 450.721 262.182C450.721 262.858 449.933 264.097 449.594 264.66C449.257 265.223 447.793 265.336 447.906 266.237C448.018 267.138 448.919 267.363 448.919 267.363C448.919 267.363 447.567 273.782 449.594 274.458C451.622 275.133 455 271.53 455 271.53L455.789 268.827C455.789 268.827 458.492 269.503 459.279 269.503C460.068 269.503 462.545 267.25 463.897 265.223C465.248 263.196 462.208 258.691 458.266 257.228C454.325 255.763 451.172 257.79 451.172 258.691C451.172 259.593 452.523 259.818 452.523 259.818Z" stroke="#1A2E35" stroke-width="1.33333" stroke-miterlimit="10" stroke-linecap="round" stroke-linejoin="round"/>
<path d="M458.266 257.228C454.324 255.764 451.171 257.791 451.171 258.691C451.171 259.535 452.355 259.786 452.507 259.815L452.523 259.817C452.523 259.817 455.338 260.606 455.338 261.394C455.338 262.183 454.663 262.07 454.549 262.408C454.437 262.746 454.212 262.971 454.663 263.309L455.113 263.647C455.113 263.647 454.437 267.138 454.212 268.039C453.987 268.94 453.423 269.165 452.748 269.165C452.072 269.165 449.932 267.025 448.919 267.363C448.919 267.363 447.567 273.782 449.595 274.458C451.622 275.134 455 271.53 455 271.53L455.789 268.827C455.789 268.827 458.491 269.502 459.28 269.502C460.068 269.502 462.545 267.25 463.897 265.223C465.249 263.197 462.208 258.691 458.266 257.228Z" fill="#1A2E35"/>
<path d="M458.266 257.228C454.324 255.764 451.171 257.791 451.171 258.691C451.171 259.535 452.355 259.786 452.507 259.815L452.523 259.817C452.523 259.817 455.338 260.606 455.338 261.394C455.338 262.183 454.663 262.07 454.549 262.408C454.437 262.746 454.212 262.971 454.663 263.309L455.113 263.647C455.113 263.647 454.437 267.138 454.212 268.039C453.987 268.94 453.423 269.165 452.748 269.165C452.072 269.165 449.932 267.025 448.919 267.363C448.919 267.363 447.567 273.782 449.595 274.458C451.622 275.134 455 271.53 455 271.53L455.789 268.827C455.789 268.827 458.491 269.502 459.28 269.502C460.068 269.502 462.545 267.25 463.897 265.223C465.249 263.197 462.208 258.691 458.266 257.228Z" stroke="#1A2E35" stroke-width="1.33333" stroke-miterlimit="10" stroke-linecap="round" stroke-linejoin="round"/>
<path d="M451.284 263.084C451.284 263.084 452.523 262.633 453.199 263.76" stroke="#1A2E35" stroke-width="1.33333" stroke-miterlimit="10" stroke-linecap="round" stroke-linejoin="round"/>
<path d="M451.171 264.547C451.171 264.547 452.297 264.21 452.973 264.885" stroke="#1A2E35" stroke-width="1.33333" stroke-miterlimit="10" stroke-linecap="round" stroke-linejoin="round"/>
<path d="M449.144 269.615C449.144 269.615 450.383 270.066 451.284 269.615" stroke="white" stroke-width="1.33333" stroke-miterlimit="10" stroke-linecap="round" stroke-linejoin="round"/>
<path d="M455.338 266.012C455.338 266.012 456.352 264.435 457.028 265.223C457.703 266.012 457.253 268.264 456.464 268.714C455.676 269.165 455.225 268.601 455.225 268.601L455.338 266.012Z" fill="white"/>
<path d="M455.338 266.012C455.338 266.012 456.352 264.435 457.028 265.223C457.703 266.012 457.253 268.264 456.464 268.714C455.676 269.165 455.225 268.601 455.225 268.601L455.338 266.012Z" stroke="#1A2E35" stroke-width="1.33333" stroke-miterlimit="10" stroke-linecap="round" stroke-linejoin="round"/>
<path d="M459.505 272.656C459.505 272.656 454.324 273.444 453.198 273.782C452.072 274.12 450.157 275.246 450.157 275.246L449.707 276.935C449.707 276.935 457.59 275.246 459.055 275.246C460.518 275.246 461.194 275.358 461.194 275.358C461.194 275.358 460.631 272.543 459.505 272.656Z" fill="white"/>
<path d="M459.505 272.656C459.505 272.656 454.324 273.444 453.198 273.782C452.072 274.12 450.157 275.246 450.157 275.246L449.707 276.935C449.707 276.935 457.59 275.246 459.055 275.246C460.518 275.246 461.194 275.358 461.194 275.358C461.194 275.358 460.631 272.543 459.505 272.656Z" stroke="#1A2E35" stroke-width="1.33333" stroke-miterlimit="10" stroke-linecap="round" stroke-linejoin="round"/>
</g>
<mask id="mask11_19_4599" style="mask-type:luminance" maskUnits="userSpaceOnUse" x="0" y="0" width="583" height="389">
<path d="M0 0.161987H582.076V388.212H0V0.161987Z" fill="white"/>
</mask>
<g mask="url(#mask11_19_4599)">
<path d="M94.4169 209.844C94.4169 209.844 90.5666 211.735 89.4902 214.517C87.6741 219.207 90.6536 219.31 91.4622 218.749C92.2709 218.189 94.0987 215.807 94.6318 214.662C95.165 213.516 96.2306 211.225 96.2306 211.225L94.4169 209.844Z" fill="white"/>
<path d="M94.4169 209.844C94.4169 209.844 90.5666 211.735 89.4902 214.517C87.6741 219.207 90.6536 219.31 91.4622 218.749C92.2709 218.189 94.0987 215.807 94.6318 214.662C95.165 213.516 96.2306 211.225 96.2306 211.225L94.4169 209.844Z" stroke="#1A2E35" stroke-width="1.33333" stroke-miterlimit="10" stroke-linecap="round" stroke-linejoin="round"/>
<path d="M141.934 156.616C141.934 156.616 144.062 159.889 144.552 162.015C145.043 164.142 149.297 170.524 149.297 170.524L146.738 171.739C146.738 171.739 140.134 164.798 139.316 163.815C138.498 162.834 138.335 159.561 138.335 159.561L141.934 156.616Z" fill="white"/>
<path d="M141.934 156.616C141.934 156.616 144.062 159.889 144.552 162.015C145.043 164.142 149.297 170.524 149.297 170.524L146.738 171.739C146.738 171.739 140.134 164.798 139.316 163.815C138.498 162.834 138.335 159.561 138.335 159.561L141.934 156.616Z" stroke="#1A2E35" stroke-width="1.33333" stroke-miterlimit="10" stroke-linecap="round" stroke-linejoin="round"/>
<path d="M141.734 217.363L143.543 220.109C143.543 220.109 148.373 223.89 146.693 225.36C145.013 226.83 139.699 223.027 138.438 221.976C137.178 220.926 138.122 220.288 138.417 217.363H141.734Z" fill="white"/>
<path d="M141.734 217.363L143.543 220.109C143.543 220.109 148.373 223.89 146.693 225.36C145.013 226.83 139.699 223.027 138.438 221.976C137.178 220.926 138.122 220.288 138.417 217.363H141.734Z" stroke="#1A2E35" stroke-width="1.33333" stroke-miterlimit="10" stroke-linecap="round" stroke-linejoin="round"/>
<path d="M122.632 156.053C122.632 156.053 118.015 161.56 116.413 166.135C114.812 170.71 113.533 176.373 112.451 179.388C111.062 183.258 110.837 193.312 110.837 193.312C110.837 193.312 105.771 196.67 104.128 198.876C102.486 201.081 93.8622 210.374 93.8622 210.374C93.8622 210.374 94.1292 211.321 94.5219 211.583C94.9139 211.846 96.0757 211.656 96.0757 211.656C96.0757 211.656 110.367 204.848 111.877 203.689C113.387 202.529 118.422 198.827 118.938 198.404C119.455 197.982 123.89 177.672 124.805 176.528C125.72 175.385 126.58 173.626 126.58 173.626L127.266 174.084L128.067 174.198C128.067 174.198 133.176 189.83 134.091 192.803C135.006 195.777 136.129 203.637 136.815 206.611C137.502 209.585 138.417 217.363 138.417 217.363C138.417 217.363 139.103 217.592 139.675 217.706C140.247 217.82 141.734 217.363 141.734 217.363C141.734 217.363 143.008 207.004 143.122 202.886C143.236 198.768 143.332 193.546 143.332 192.174C143.332 190.801 140.371 168.435 139.342 165.918C138.312 163.402 136.243 156.968 136.243 156.968L122.632 156.053Z" fill="#1A2E35"/>
<path d="M122.632 156.053C122.632 156.053 118.015 161.56 116.413 166.135C114.812 170.71 113.533 176.373 112.451 179.388C111.062 183.258 110.837 193.312 110.837 193.312C110.837 193.312 105.771 196.67 104.128 198.876C102.486 201.081 93.8622 210.374 93.8622 210.374C93.8622 210.374 94.1292 211.321 94.5219 211.583C94.9139 211.846 96.0757 211.656 96.0757 211.656C96.0757 211.656 110.367 204.848 111.877 203.689C113.387 202.529 118.422 198.827 118.938 198.404C119.455 197.982 123.89 177.672 124.805 176.529C125.72 175.385 126.58 173.626 126.58 173.626L127.266 174.084L128.067 174.198C128.067 174.198 133.176 189.83 134.091 192.803C135.006 195.777 136.129 203.637 136.815 206.611C137.502 209.585 138.417 217.363 138.417 217.363C138.417 217.363 139.103 217.592 139.675 217.706C140.247 217.82 141.734 217.363 141.734 217.363C141.734 217.363 143.008 207.004 143.122 202.886C143.236 198.768 143.332 193.546 143.332 192.174C143.332 190.801 140.371 168.435 139.342 165.918C138.312 163.402 136.243 156.968 136.243 156.968L122.632 156.053Z" stroke="#1A2E35" stroke-width="1.33333" stroke-miterlimit="10" stroke-linecap="round" stroke-linejoin="round"/>
<path d="M129.751 132.397L122.888 134.57C122.888 134.57 122.517 149.877 122.632 151.592C122.746 153.308 121.831 156.168 122.403 156.854C122.975 157.54 125.72 160.285 130.753 160.4C135.785 160.514 137.158 158.913 137.158 158.913L138.187 154.452C138.187 154.452 141.875 143.492 141.875 142.119C141.875 140.747 138.558 136.744 136.614 135.142C134.669 133.541 129.751 132.397 129.751 132.397Z" fill="white"/>
<path d="M129.751 132.397L122.888 134.57C122.888 134.57 122.517 149.877 122.632 151.592C122.746 153.308 121.831 156.168 122.403 156.854C122.975 157.54 125.72 160.285 130.753 160.4C135.785 160.514 137.158 158.913 137.158 158.913L138.187 154.452C138.187 154.452 141.875 143.492 141.875 142.119C141.875 140.747 138.558 136.744 136.614 135.142C134.669 133.541 129.751 132.397 129.751 132.397Z" stroke="#1A2E35" stroke-width="1.33333" stroke-miterlimit="10" stroke-linecap="round" stroke-linejoin="round"/>
<path d="M143.497 138.928L142.96 149.916L143.414 157.542L138.335 159.561L139.524 147.953L143.497 138.928Z" fill="#7EE66C"/>
<path d="M143.497 138.928L142.96 149.916L143.414 157.542L138.335 159.561L139.524 147.953L143.497 138.928Z" stroke="#1A2E35" stroke-width="1.33333" stroke-miterlimit="10" stroke-linecap="round" stroke-linejoin="round"/>
<path d="M135.585 134.227C135.585 134.227 132.836 149.954 132.836 152.356C132.836 154.758 131.325 163.374 130.982 167.491C130.638 171.609 129.952 184.764 129.952 184.764C129.952 184.764 133.384 185.336 136.587 184.993C139.789 184.65 145.28 182.476 145.28 182.476C145.28 182.476 142.42 168.063 141.276 164.632C140.133 161.2 138.874 155.939 138.874 155.596C138.874 155.252 143.497 140.301 143.497 138.929C143.497 137.556 136.843 134.57 135.585 134.227Z" fill="#7EE66C"/>
<path d="M135.585 134.227C135.585 134.227 132.836 149.954 132.836 152.356C132.836 154.758 131.325 163.374 130.982 167.491C130.638 171.609 129.952 184.764 129.952 184.764C129.952 184.764 133.384 185.336 136.587 184.993C139.789 184.65 145.28 182.476 145.28 182.476C145.28 182.476 142.42 168.063 141.276 164.632C140.133 161.2 138.874 155.939 138.874 155.596C138.874 155.252 143.497 140.301 143.497 138.929C143.497 137.556 136.843 134.57 135.585 134.227Z" stroke="#1A2E35" stroke-width="1.33333" stroke-miterlimit="10" stroke-linecap="round" stroke-linejoin="round"/>
<path d="M128.573 133.099C128.573 133.099 128.893 151.903 128.273 154.223C127.652 156.544 124.957 162.331 124.225 166.397C123.493 170.464 120.759 183.349 120.759 183.349C120.759 183.349 117.296 183.015 114.29 181.856C111.285 180.698 106.543 177.18 106.543 177.18C106.543 177.18 113.028 163.995 115.018 160.976C117.01 157.956 119.585 153.197 119.673 152.866C119.762 152.535 119.361 136.923 119.715 135.597C120.07 134.271 127.269 133.105 128.573 133.099Z" fill="#7EE66C"/>
<path d="M128.573 133.099C128.573 133.099 128.893 151.903 128.273 154.223C127.652 156.544 124.957 162.331 124.225 166.397C123.493 170.464 120.759 183.349 120.759 183.349C120.759 183.349 117.296 183.015 114.29 181.856C111.285 180.698 106.543 177.18 106.543 177.18C106.543 177.18 113.028 163.995 115.018 160.976C117.01 157.956 119.585 153.197 119.673 152.866C119.762 152.535 119.361 136.923 119.715 135.597C120.07 134.271 127.269 133.105 128.573 133.099Z" stroke="#1A2E35" stroke-width="1.33333" stroke-miterlimit="10" stroke-linecap="round" stroke-linejoin="round"/>
<path d="M140.4 120.193C140.4 120.193 141.072 122.29 141.072 122.914C141.072 123.538 140.76 124.578 140.76 124.578C140.76 124.578 142.631 126.241 142.735 126.657C142.839 127.073 141.695 127.696 141.695 127.696C141.695 127.696 140.657 132.488 140.657 132.8C140.657 133.112 136.705 132.894 136.705 132.894L131.403 139.132L128.908 132.998L130.052 129.567C130.052 129.567 126.622 127.592 127.869 124.578C129.116 121.562 131.923 119.899 134.73 119.483C137.537 119.067 140.198 119.689 140.198 119.689L140.4 120.193Z" fill="white"/>
<path d="M140.4 120.193C140.4 120.193 141.072 122.29 141.072 122.914C141.072 123.538 140.76 124.578 140.76 124.578C140.76 124.578 142.631 126.241 142.735 126.657C142.839 127.073 141.695 127.696 141.695 127.696C141.695 127.696 140.657 132.488 140.657 132.8C140.657 133.112 136.705 132.894 136.705 132.894L131.403 139.132L128.908 132.998L130.052 129.567C130.052 129.567 126.622 127.592 127.869 124.578C129.116 121.562 131.923 119.899 134.73 119.483C137.537 119.067 140.198 119.689 140.198 119.689L140.4 120.193Z" stroke="#1A2E35" stroke-width="1.33333" stroke-miterlimit="10" stroke-linecap="round" stroke-linejoin="round"/>
<path d="M136.705 132.894L134.097 132.397L133.945 135.905L136.705 132.894Z" fill="#1A2E35"/>
<path d="M136.705 132.894L134.097 132.397L133.945 135.905L136.705 132.894Z" stroke="#1A2E35" stroke-width="1.33333" stroke-miterlimit="10" stroke-linecap="round" stroke-linejoin="round"/>
<path d="M139.694 124.98C139.694 125.342 139.559 125.635 139.391 125.635C139.224 125.635 139.089 125.342 139.089 124.98C139.089 124.619 139.224 124.325 139.391 124.325C139.559 124.325 139.694 124.619 139.694 124.98Z" fill="#1A2E35"/>
<path d="M138.686 123.922C138.686 123.922 138.989 123.318 140.096 123.62" stroke="#1A2E35" stroke-width="1.33333" stroke-miterlimit="10" stroke-linecap="round" stroke-linejoin="round"/>
<path d="M141.206 128.76C141.206 128.76 139.896 128.962 139.391 128.256" stroke="#1A2E35" stroke-width="1.33333" stroke-miterlimit="10" stroke-linecap="round" stroke-linejoin="round"/>
<path d="M140.655 121.459C140.655 121.459 137.225 120.627 136.601 121.875C135.977 123.122 136.497 123.746 135.977 124.889C135.458 126.033 133.483 127.488 133.483 127.488C133.483 127.488 131.611 125.409 130.988 126.449C130.364 127.488 130.572 129.048 131.196 129.568C131.819 130.087 133.586 129.776 133.586 129.776L130.884 131.023C130.884 131.023 130.988 132.583 128.492 133.206C125.997 133.83 122.983 132.167 123.398 130.087C123.814 128.008 127.245 126.76 127.245 126.76C127.245 126.76 123.606 122.291 126.621 118.964C129.636 115.637 135.561 117.196 135.561 117.196C135.561 117.196 136.393 116.26 138.784 116.053C141.175 115.845 142.215 118.236 142.215 119.588C142.215 120.939 140.655 121.459 140.655 121.459Z" fill="#1A2E35"/>
<path d="M140.655 121.459C140.655 121.459 137.225 120.627 136.601 121.875C135.977 123.122 136.497 123.746 135.977 124.889C135.458 126.033 133.483 127.488 133.483 127.488C133.483 127.488 131.611 125.409 130.988 126.449C130.364 127.488 130.572 129.048 131.196 129.568C131.819 130.087 133.586 129.776 133.586 129.776L130.884 131.023C130.884 131.023 130.988 132.583 128.492 133.206C125.997 133.83 122.983 132.167 123.398 130.087C123.814 128.008 127.245 126.76 127.245 126.76C127.245 126.76 123.606 122.291 126.621 118.964C129.636 115.637 135.561 117.196 135.561 117.196C135.561 117.196 136.393 116.26 138.784 116.053C141.175 115.845 142.215 118.236 142.215 119.588C142.215 120.939 140.655 121.459 140.655 121.459Z" stroke="#1A2E35" stroke-width="1.33333" stroke-miterlimit="10" stroke-linecap="round" stroke-linejoin="round"/>
<path d="M110.849 151.734L115.484 155.113C115.484 155.113 114.579 158.885 114.149 161.117C113.72 163.35 113.219 173.124 113.219 173.124L114.707 174.276V176.793L114.035 176.876C114.035 176.876 114.371 178.134 114.035 178.302C113.7 178.47 113.113 178.47 113.113 178.47C113.113 178.47 111.268 177.212 111.1 176.793C110.932 176.373 110.879 172.818 110.879 172.818C110.879 172.818 108.332 162.553 108.407 160.228C108.482 157.904 110.849 151.734 110.849 151.734Z" fill="white"/>
<path d="M110.849 151.734L115.484 155.113C115.484 155.113 114.579 158.885 114.149 161.117C113.72 163.35 113.219 173.124 113.219 173.124L114.707 174.276V176.793L114.035 176.876C114.035 176.876 114.371 178.134 114.035 178.302C113.7 178.47 113.113 178.47 113.113 178.47C113.113 178.47 111.268 177.212 111.1 176.793C110.932 176.373 110.879 172.818 110.879 172.818C110.879 172.818 108.332 162.553 108.407 160.228C108.482 157.904 110.849 151.734 110.849 151.734Z" stroke="#1A2E35" stroke-width="1.33333" stroke-miterlimit="10" stroke-linecap="round" stroke-linejoin="round"/>
<path d="M123.161 142.717C123.161 142.717 121.55 145.317 119.561 147.298C118.184 148.671 115.827 156.505 115.827 156.505L110.044 152.997C110.044 152.997 114.424 139.431 117.27 136.499C120.117 133.567 124.143 133.717 124.143 133.717" fill="#7EE66C"/>
<path d="M123.161 142.717C123.161 142.717 121.55 145.317 119.561 147.298C118.184 148.671 115.827 156.505 115.827 156.505L110.044 152.997C110.044 152.997 114.424 139.431 117.27 136.499C120.117 133.567 124.143 133.717 124.143 133.717" stroke="#1A2E35" stroke-width="1.33333" stroke-miterlimit="10" stroke-linecap="round" stroke-linejoin="round"/>
<path d="M146.402 171.236C146.402 171.236 149.925 169.726 150.344 170.397C150.764 171.068 151.434 172.661 151.015 172.913C150.596 173.165 148.248 174.339 147.828 174.255C147.409 174.171 146.654 173.081 146.402 171.236Z" fill="white"/>
<path d="M146.402 171.236C146.402 171.236 149.925 169.726 150.344 170.397C150.764 171.068 151.434 172.661 151.015 172.913C150.596 173.165 148.248 174.339 147.828 174.255C147.409 174.171 146.654 173.081 146.402 171.236Z" stroke="#1A2E35" stroke-width="1.33333" stroke-miterlimit="10" stroke-linecap="round" stroke-linejoin="round"/>
<path d="M151.183 171.655C151.183 171.655 151.351 170.062 151.267 169.642C151.183 169.223 149.841 169.139 149.841 169.139C149.841 169.139 147.996 169.055 148.416 169.558C148.835 170.062 150.344 170.397 150.344 170.397L151.183 171.655Z" fill="white"/>
<path d="M151.183 171.655C151.183 171.655 151.351 170.062 151.267 169.642C151.183 169.223 149.841 169.139 149.841 169.139C149.841 169.139 147.996 169.055 148.416 169.558C148.835 170.062 150.344 170.397 150.344 170.397L151.183 171.655Z" stroke="#1A2E35" stroke-width="1.33333" stroke-miterlimit="10" stroke-linecap="round" stroke-linejoin="round"/>
</g>
<mask id="mask12_19_4599" style="mask-type:luminance" maskUnits="userSpaceOnUse" x="0" y="0" width="583" height="389">
<path d="M0 0.161987H582.076V388.212H0V0.161987Z" fill="white"/>
</mask>
<g mask="url(#mask12_19_4599)">
<path d="M296.974 292.257H273.009C267.318 292.257 262.705 287.643 262.705 281.952C262.705 276.262 267.318 271.649 273.009 271.649H296.974C302.664 271.649 307.277 276.262 307.277 281.952C307.277 287.643 302.664 292.257 296.974 292.257Z" fill="#7EE66C"/>
<path d="M296.974 292.257H273.009C267.318 292.257 262.705 287.643 262.705 281.952C262.705 276.262 267.318 271.649 273.009 271.649H296.974C302.664 271.649 307.277 276.262 307.277 281.952C307.277 287.643 302.664 292.257 296.974 292.257Z" stroke="#1A2E35" stroke-width="1.33333" stroke-miterlimit="10"/>
<path d="M275.921 285.528C275.455 285.528 275.067 285.443 274.756 285.272C274.446 285.101 274.212 284.844 274.053 284.499C273.895 284.154 273.803 283.715 273.779 283.182L275.101 282.958C275.113 283.268 275.146 283.527 275.199 283.735C275.252 283.943 275.332 284.098 275.441 284.201C275.55 284.303 275.685 284.355 275.846 284.355C276.045 284.355 276.18 284.293 276.251 284.168C276.323 284.044 276.358 283.901 276.358 283.74C276.358 283.423 276.282 283.158 276.13 282.944C275.978 282.73 275.778 282.514 275.529 282.296L274.747 281.617C274.468 281.381 274.24 281.114 274.063 280.816C273.886 280.518 273.797 280.151 273.797 279.717C273.797 279.096 273.979 278.62 274.342 278.287C274.705 277.955 275.203 277.789 275.837 277.789C276.215 277.789 276.526 277.851 276.768 277.976C277.01 278.1 277.198 278.266 277.331 278.473C277.465 278.682 277.558 278.909 277.611 279.153C277.664 279.398 277.696 279.642 277.709 279.885L276.396 280.08C276.383 279.851 276.363 279.648 276.335 279.474C276.307 279.301 276.251 279.164 276.167 279.065C276.084 278.965 275.958 278.916 275.79 278.916C275.61 278.916 275.477 278.982 275.39 279.116C275.303 279.249 275.259 279.398 275.259 279.559C275.259 279.825 275.32 280.045 275.441 280.215C275.562 280.386 275.728 280.564 275.939 280.75L276.703 281.421C277.02 281.695 277.291 282.006 277.518 282.357C277.744 282.708 277.858 283.141 277.858 283.656C277.858 284.01 277.777 284.33 277.616 284.615C277.454 284.901 277.229 285.125 276.94 285.286C276.652 285.447 276.312 285.528 275.921 285.528Z" fill="#1A2E35"/>
<path d="M279.376 285.426V279.028H278.212V277.882H282.067V279.028H280.922V285.426H279.376Z" fill="#1A2E35"/>
<path d="M283.976 282.828H284.88L284.423 279.781L283.976 282.828ZM282.104 285.426L283.567 277.882H285.271L286.724 285.426H285.299L285.029 283.768H283.837L283.548 285.426H282.104Z" fill="#1A2E35"/>
<path d="M288.968 281.095H289.415C289.664 281.095 289.859 281.055 290.002 280.974C290.145 280.893 290.246 280.771 290.305 280.606C290.364 280.442 290.393 280.238 290.393 279.996C290.393 279.648 290.33 279.383 290.202 279.2C290.075 279.017 289.837 278.925 289.49 278.925H288.968V281.095ZM287.432 285.426V277.882H289.387C289.896 277.882 290.333 277.94 290.696 278.054C291.059 278.169 291.338 278.373 291.534 278.664C291.73 278.956 291.827 279.36 291.827 279.875C291.827 280.186 291.801 280.461 291.748 280.699C291.695 280.938 291.602 281.146 291.469 281.323C291.335 281.5 291.148 281.642 290.905 281.747L291.948 285.426H290.375L289.508 282.008H288.968V285.426H287.432Z" fill="#1A2E35"/>
<path d="M293.513 285.426V279.028H292.349V277.882H296.205V279.028H295.059V285.426H293.513Z" fill="#1A2E35"/>
</g>
<mask id="mask13_19_4599" style="mask-type:luminance" maskUnits="userSpaceOnUse" x="0" y="0" width="583" height="389">
<path d="M0 0.161987H582.076V388.212H0V0.161987Z" fill="white"/>
</mask>
<g mask="url(#mask13_19_4599)">
<path d="M228.053 251.359C228.943 253.519 231.048 254.929 233.384 254.929H285.659H337.934C340.269 254.929 342.375 253.519 343.264 251.359L356.903 218.266H214.415L228.053 251.359Z" fill="#7EE66C"/>
<path d="M228.053 251.359C228.943 253.519 231.048 254.929 233.384 254.929H285.659H337.934C340.269 254.929 342.375 253.519 343.264 251.359L356.903 218.266H214.415L228.053 251.359Z" stroke="#1A2E35" stroke-width="1.33333" stroke-miterlimit="10"/>
<path d="M233.839 244.427C232.757 244.427 231.899 244.2 231.266 243.744C230.633 243.289 230.18 242.643 229.91 241.805C229.639 240.967 229.504 239.994 229.504 238.885V233.521C229.504 232.374 229.643 231.384 229.92 230.553C230.197 229.722 230.683 229.082 231.375 228.633C232.068 228.185 233.008 227.96 234.195 227.96C235.343 227.96 236.25 228.152 236.916 228.534C237.583 228.917 238.061 229.458 238.351 230.157C238.641 230.857 238.787 231.687 238.787 232.651V233.581H235.601V232.453C235.601 232.03 235.574 231.658 235.521 231.334C235.469 231.011 235.346 230.758 235.155 230.572C234.963 230.388 234.657 230.296 234.235 230.296C233.799 230.296 233.483 230.408 233.285 230.632C233.087 230.857 232.961 231.143 232.908 231.493C232.856 231.843 232.829 232.215 232.829 232.611V239.717C232.829 240.166 232.869 240.568 232.949 240.924C233.027 241.28 233.176 241.557 233.393 241.755C233.612 241.953 233.924 242.051 234.334 242.051C234.742 242.051 235.059 241.947 235.284 241.736C235.508 241.525 235.663 241.237 235.749 240.874C235.834 240.512 235.877 240.1 235.877 239.638V237.935H234.314V235.956H238.826V244.19H236.689L236.491 242.745C236.28 243.233 235.963 243.636 235.541 243.952C235.119 244.269 234.551 244.427 233.839 244.427Z" fill="#1A2E35"/>
<path d="M244.249 238.667H246.17L245.199 232.196L244.249 238.667ZM240.271 244.189L243.379 228.158H247L250.088 244.189H247.06L246.485 240.667H243.952L243.339 244.189H240.271Z" fill="#1A2E35"/>
<path d="M251.651 244.19L251.928 228.158H255.392L257.371 238.272L259.489 228.158H262.834L263.111 244.19H260.736L260.479 233.324L258.44 244.19H256.402L254.264 233.245L254.046 244.19H251.651Z" fill="#1A2E35"/>
<path d="M265.327 228.158H268.574V244.189H265.327V228.158Z" fill="#1A2E35"/>
<path d="M271.028 244.19V228.158H277.797V230.375H274.294V234.71H277.262V236.985H274.294V244.19H271.028Z" fill="#1A2E35"/>
<path d="M279.4 228.158H282.646V244.189H279.4V228.158Z" fill="#1A2E35"/>
<path d="M289.553 244.407C288.365 244.407 287.425 244.183 286.732 243.734C286.04 243.286 285.555 242.662 285.278 241.864C285.001 241.065 284.862 240.139 284.862 239.083V233.324C284.862 232.215 285.001 231.263 285.278 230.464C285.555 229.665 286.04 229.048 286.732 228.613C287.425 228.178 288.365 227.96 289.553 227.96C290.7 227.96 291.601 228.151 292.254 228.534C292.908 228.916 293.369 229.457 293.64 230.157C293.91 230.857 294.045 231.668 294.045 232.591V233.937H290.878V232.433C290.878 232.063 290.859 231.717 290.819 231.394C290.78 231.071 290.671 230.807 290.492 230.602C290.315 230.398 290.007 230.296 289.572 230.296C289.137 230.296 288.821 230.401 288.622 230.612C288.424 230.823 288.299 231.097 288.246 231.433C288.194 231.77 288.167 232.143 288.167 232.552V239.835C288.167 240.284 288.204 240.677 288.276 241.013C288.348 241.35 288.487 241.606 288.692 241.785C288.896 241.963 289.189 242.052 289.572 242.052C289.994 242.052 290.295 241.949 290.473 241.745C290.651 241.54 290.763 241.267 290.81 240.923C290.856 240.58 290.878 240.218 290.878 239.835V238.271H294.045V239.598C294.045 240.535 293.913 241.363 293.65 242.081C293.385 242.801 292.93 243.368 292.284 243.783C291.637 244.199 290.727 244.407 289.553 244.407Z" fill="#1A2E35"/>
<path d="M299.231 238.667H301.151L300.181 232.196L299.231 238.667ZM295.252 244.189L298.36 228.158H301.981L305.069 244.189H302.041L301.467 240.667H298.933L298.32 244.189H295.252Z" fill="#1A2E35"/>
<path d="M307.385 244.19V230.592H304.911V228.158H313.105V230.592H310.67V244.19H307.385Z" fill="#1A2E35"/>
<path d="M314.589 228.158H317.835V244.189H314.589V228.158Z" fill="#1A2E35"/>
<path d="M324.762 242.052C325.184 242.052 325.495 241.956 325.693 241.765C325.89 241.574 326.022 241.317 326.088 240.993C326.154 240.67 326.187 240.323 326.187 239.954V232.374C326.187 232.004 326.154 231.661 326.088 231.345C326.022 231.028 325.89 230.774 325.693 230.583C325.495 230.392 325.184 230.295 324.762 230.295C324.366 230.295 324.069 230.392 323.871 230.583C323.674 230.774 323.541 231.028 323.476 231.345C323.409 231.661 323.377 232.004 323.377 232.374V239.954C323.377 240.323 323.406 240.67 323.465 240.993C323.525 241.317 323.654 241.574 323.852 241.765C324.05 241.956 324.353 242.052 324.762 242.052ZM324.762 244.407C323.588 244.407 322.657 244.196 321.971 243.774C321.285 243.352 320.794 242.748 320.497 241.963C320.2 241.178 320.052 240.238 320.052 239.142V233.165C320.052 232.07 320.2 231.134 320.497 230.355C320.794 229.577 321.285 228.983 321.971 228.573C322.657 228.165 323.588 227.96 324.762 227.96C325.949 227.96 326.89 228.168 327.582 228.583C328.275 228.999 328.77 229.593 329.067 230.364C329.363 231.137 329.512 232.07 329.512 233.165V239.142C329.512 240.238 329.363 241.178 329.067 241.963C328.77 242.748 328.275 243.352 327.582 243.774C326.89 244.196 325.949 244.407 324.762 244.407Z" fill="#1A2E35"/>
<path d="M331.689 244.19V228.158H333.965L337.528 236.51V228.158H340.219V244.19H338.042L334.48 235.323V244.19H331.689Z" fill="#1A2E35"/>
</g>
</svg>
