<svg width="25" height="26" viewBox="0 0 25 26" fill="none" xmlns="http://www.w3.org/2000/svg">
<g clip-path="url(#clip0_3_13)">
<path d="M24.2702 9.7825C23.6765 9.0675 22.8119 8.66667 21.9056 8.66667H21.8119C21.291 3.8025 17.3119 0 12.4994 0C7.68688 0 3.6973 3.8025 3.17646 8.66667H3.12438C2.21813 8.66667 1.35355 9.07833 0.759798 9.7825C0.166048 10.4975 -0.0943688 11.44 0.0306312 12.3717L1.1348 20.41C1.5723 23.595 4.22855 25.9892 7.3223 25.9892H17.7077C20.8015 25.9892 23.4577 23.595 23.8952 20.41L24.9994 12.3717C25.1244 11.44 24.864 10.4975 24.2702 9.7825ZM12.4994 2.16667C16.166 2.16667 19.2077 4.99417 19.7181 8.66667H5.28063C5.79105 4.99417 8.83272 2.16667 12.4994 2.16667ZM22.9369 12.0683L21.8327 20.1067C21.541 22.23 19.7702 23.8225 17.7077 23.8225H7.3223C5.2598 23.8225 3.48896 22.2192 3.1973 20.1067L2.09313 12.0683C2.05146 11.7542 2.1348 11.4508 2.33271 11.2017C2.53063 10.9633 2.81188 10.8225 3.12438 10.8225H21.9056C22.2077 10.8225 22.489 10.9525 22.6869 11.1908C22.8848 11.4292 22.9785 11.7433 22.9265 12.0575L22.9369 12.0683Z" fill="black"/>
<path d="M22.9369 12.0683L21.8327 20.1067C21.541 22.23 19.7702 23.8225 17.7077 23.8225H7.3223C5.2598 23.8225 3.48896 22.2192 3.1973 20.1067L2.09313 12.0683C2.05146 11.7542 2.1348 11.4508 2.33271 11.2017C2.53063 10.9633 2.81188 10.8225 3.12438 10.8225H21.9056C22.2077 10.8225 22.489 10.9525 22.6869 11.1908C22.8848 11.4292 22.9785 11.7433 22.9265 12.0575L22.9369 12.0683Z" fill="white"/>
<path d="M12.4994 2.16667C16.166 2.16667 19.2077 4.99417 19.7181 8.66667H5.28063C5.79105 4.99417 8.83272 2.16667 12.4994 2.16667Z" fill="white"/>
</g>
<defs>
<clipPath id="clip0_3_13">
<rect width="25" height="26" fill="white"/>
</clipPath>
</defs>
</svg>
