<svg width="29" height="29" viewBox="0 0 29 29" fill="none" xmlns="http://www.w3.org/2000/svg">
<path d="M14.5 26.6527L3.93312 16.104C2.5755 14.7256 1.81451 12.8685 1.81451 10.9338C1.81451 8.99913 2.5755 7.14206 3.93312 5.76368C4.60662 5.08824 5.40678 4.55234 6.28775 4.18669C7.16872 3.82103 8.11319 3.63281 9.06703 3.63281C10.0209 3.63281 10.9653 3.82103 11.8463 4.18669C12.7273 4.55234 13.5274 5.08824 14.2009 5.76368L14.5 6.07181L14.7991 5.76368C15.4725 5.08824 16.2727 4.55234 17.1537 4.18669C18.0347 3.82103 18.9791 3.63281 19.933 3.63281C20.8868 3.63281 21.8313 3.82103 22.7122 4.18669C23.5932 4.55234 24.3934 5.08824 25.0669 5.76368C26.4223 7.1432 27.1818 8.99984 27.1818 10.9338C27.1818 12.8678 26.4223 14.7245 25.0669 16.104L14.5 26.6527ZM9.0625 5.43743C8.34606 5.43505 7.63636 5.5757 6.97499 5.85114C6.31362 6.12658 5.71388 6.53128 5.21093 7.04149C4.19087 8.08027 3.61935 9.47796 3.61935 10.9338C3.61935 12.3897 4.19087 13.7874 5.21093 14.8262L14.5 24.0971L23.7891 14.8262C24.8091 13.7874 25.3806 12.3897 25.3806 10.9338C25.3806 9.47796 24.8091 8.08027 23.7891 7.04149C23.2841 6.53593 22.6844 6.13487 22.0243 5.86123C21.3642 5.58759 20.6566 5.44675 19.942 5.44675C19.2274 5.44675 18.5199 5.58759 17.8598 5.86123C17.1997 6.13487 16.6 6.53593 16.095 7.04149L14.5 8.61837L12.9141 7.05056C12.41 6.54114 11.8103 6.13637 11.1493 5.85953C10.4883 5.58269 9.77911 5.43924 9.0625 5.43743Z" fill="black"/>
<path d="M9.0625 5.43743C8.34606 5.43505 7.63636 5.5757 6.97499 5.85114C6.31362 6.12658 5.71388 6.53128 5.21093 7.04149C4.19087 8.08027 3.61935 9.47796 3.61935 10.9338C3.61935 12.3897 4.19087 13.7874 5.21093 14.8262L14.5 24.0971L23.7891 14.8262C24.8091 13.7874 25.3806 12.3897 25.3806 10.9338C25.3806 9.47796 24.8091 8.08027 23.7891 7.04149C23.2841 6.53593 22.6844 6.13487 22.0243 5.86123C21.3642 5.58759 20.6566 5.44675 19.942 5.44675C19.2274 5.44675 18.5199 5.58759 17.8598 5.86123C17.1997 6.13487 16.6 6.53593 16.095 7.04149L14.5 8.61837L12.9141 7.05056C12.41 6.54114 11.8103 6.13637 11.1493 5.85953C10.4883 5.58269 9.77911 5.43924 9.0625 5.43743Z" fill="white"/>
</svg>
