<svg width="41" height="40" viewBox="0 0 41 40" fill="none" xmlns="http://www.w3.org/2000/svg">
<g clip-path="url(#clip0_23_5217)">
<path d="M35.2329 20C35.2329 28.2843 28.5172 35 20.2329 35C11.9486 35 5.23291 28.2843 5.23291 20C5.23291 11.7157 11.9486 5 20.2329 5C28.5172 5 35.2329 11.7157 35.2329 20Z" fill="white" stroke="black" stroke-width="2" stroke-linecap="round" stroke-linejoin="round"/>
<path d="M26.4829 18.75C26.4829 22.2018 23.6847 25 20.2329 25C16.7811 25 13.9829 22.2018 13.9829 18.75C13.9829 15.2982 16.7811 12.5 20.2329 12.5C23.6847 12.5 26.4829 15.2982 26.4829 18.75Z" stroke="black" stroke-width="2" stroke-linecap="round" stroke-linejoin="round"/>
<path d="M10.2017 31.1562C11.1421 29.3038 12.5772 27.7479 14.3478 26.6611C16.1184 25.5743 18.1554 24.999 20.2329 24.999C22.3104 24.999 24.3474 25.5743 26.118 26.6611C27.8886 27.7479 29.3237 29.3038 30.2642 31.1562" stroke="black" stroke-width="2" stroke-linecap="round" stroke-linejoin="round"/>
</g>
<defs>
<clipPath id="clip0_23_5217">
<rect width="40" height="40" fill="white" transform="translate(0.23291)"/>
</clipPath>
</defs>
</svg>
